STARTFONT 2.1
FONT -FontForge-Roboto Condensed-Book-R-Condensed---20-200-72-72-P-98-ISO10646-1
SIZE 20 72 72
FONTBOUNDINGBOX 35 26 -15 -6
COMMENT "Generated by fontforge, http://fontforge.sourceforge.net"
COMMENT "Copyright 2011 Google Inc. All Rights Reserved."
STARTPROPERTIES 41
FOUNDRY "FontForge"
FAMILY_NAME "Roboto Condensed"
WEIGHT_NAME "Book"
SLANT "R"
SETWIDTH_NAME "Condensed"
ADD_STYLE_NAME ""
PIXEL_SIZE 20
POINT_SIZE 200
RESOLUTION_X 72
RESOLUTION_Y 72
SPACING "P"
AVERAGE_WIDTH 98
CHARSET_REGISTRY "ISO10646"
CHARSET_ENCODING "1"
FONTNAME_REGISTRY ""
CHARSET_COLLECTIONS "ISO8859-2 ISO8859-5 ISO8859-7 ISO8859-9 ISO8859-4 ISO10646-1"
FONT_NAME "RobotoCondensed-Regular"
FACE_NAME "Roboto Condensed"
COPYRIGHT "Copyright 2011 Google Inc. All Rights Reserved."
FONT_VERSION "2.137; 2017"
FONT_ASCENT 15
FONT_DESCENT 5
UNDERLINE_POSITION -2
UNDERLINE_THICKNESS 1
X_HEIGHT 10
CAP_HEIGHT 13
DEFAULT_CHAR 1
RAW_ASCENT 750
RAW_DESCENT 250
NORM_SPACE 5
RELATIVE_WEIGHT 40
RELATIVE_SETWIDTH 50
SUPERSCRIPT_X 0
SUPERSCRIPT_Y 9
SUPERSCRIPT_SIZE 12
SUBSCRIPT_X 0
SUBSCRIPT_Y 2
SUBSCRIPT_SIZE 12
FIGURE_WIDTH 10
AVG_LOWERCASE_WIDTH 96
AVG_UPPERCASE_WIDTH 114
ENDPROPERTIES
CHARS 1296
STARTCHAR uni0000
ENCODING 0
SWIDTH 0 0
DWIDTH 0 0
BBX 1 1 0 0
BITMAP
00
ENDCHAR
STARTCHAR uni0002
ENCODING 2
SWIDTH 0 0
DWIDTH 0 0
BBX 1 1 0 0
BITMAP
00
ENDCHAR
STARTCHAR uni000D
ENCODING 13
SWIDTH 229 0
DWIDTH 5 0
BBX 1 1 0 0
BITMAP
00
ENDCHAR
STARTCHAR space
ENCODING 32
SWIDTH 229 0
DWIDTH 5 0
BBX 1 1 0 0
BITMAP
00
ENDCHAR
STARTCHAR exclam
ENCODING 33
SWIDTH 245 0
DWIDTH 5 0
BBX 2 14 2 0
BITMAP
80
80
80
80
80
80
80
80
80
80
00
00
80
C0
ENDCHAR
STARTCHAR quotedbl
ENCODING 34
SWIDTH 319 0
DWIDTH 6 0
BBX 4 5 1 10
BITMAP
D0
D0
D0
D0
90
ENDCHAR
STARTCHAR numbersign
ENCODING 35
SWIDTH 547 0
DWIDTH 11 0
BBX 9 14 1 0
BITMAP
0980
0900
1900
7F80
1300
1200
1200
3200
FF80
2600
2600
2400
2400
2400
ENDCHAR
STARTCHAR dollar
ENCODING 36
SWIDTH 493 0
DWIDTH 10 0
BBX 8 18 1 -2
BITMAP
18
18
3C
7E
66
43
43
70
3C
1E
07
03
C3
E3
7E
3C
18
18
ENDCHAR
STARTCHAR percent
ENCODING 37
SWIDTH 632 0
DWIDTH 13 0
BBX 11 14 1 0
BITMAP
7000
D800
8880
8900
8B00
DA00
7600
05C0
0A40
0A60
1260
3260
2240
01C0
ENDCHAR
STARTCHAR ampersand
ENCODING 38
SWIDTH 543 0
DWIDTH 11 0
BBX 10 14 1 0
BITMAP
3C00
7E00
6600
6600
6600
3C00
3800
7800
CD80
C780
C780
C300
7F80
3DC0
ENDCHAR
STARTCHAR quotesingle
ENCODING 39
SWIDTH 174 0
DWIDTH 3 0
BBX 1 5 1 10
BITMAP
80
80
80
80
80
ENDCHAR
STARTCHAR parenleft
ENCODING 40
SWIDTH 313 0
DWIDTH 6 0
BBX 5 21 1 -5
BITMAP
10
18
30
20
60
40
40
C0
C0
C0
C0
C0
C0
C0
40
40
60
20
30
10
18
ENDCHAR
STARTCHAR parenright
ENCODING 41
SWIDTH 318 0
DWIDTH 6 0
BBX 5 21 0 -5
BITMAP
80
40
60
20
30
30
10
18
18
18
18
18
18
18
10
10
30
20
60
40
80
ENDCHAR
STARTCHAR asterisk
ENCODING 42
SWIDTH 430 0
DWIDTH 9 0
BBX 8 8 0 6
BITMAP
08
08
49
FF
18
3C
26
62
ENDCHAR
STARTCHAR plus
ENCODING 43
SWIDTH 496 0
DWIDTH 10 0
BBX 8 11 1 1
BITMAP
18
18
18
18
FF
FF
18
18
18
18
18
ENDCHAR
STARTCHAR comma
ENCODING 44
SWIDTH 196 0
DWIDTH 4 0
BBX 3 5 0 -3
BITMAP
60
60
60
40
C0
ENDCHAR
STARTCHAR hyphen
ENCODING 45
SWIDTH 248 0
DWIDTH 5 0
BBX 5 2 0 5
BITMAP
F8
F8
ENDCHAR
STARTCHAR period
ENCODING 46
SWIDTH 263 0
DWIDTH 5 0
BBX 3 2 1 0
BITMAP
60
E0
ENDCHAR
STARTCHAR slash
ENCODING 47
SWIDTH 370 0
DWIDTH 7 0
BBX 7 15 0 -1
BITMAP
06
04
0C
0C
08
18
18
10
30
30
20
60
60
40
C0
ENDCHAR
STARTCHAR zero
ENCODING 48
SWIDTH 493 0
DWIDTH 10 0
BBX 8 14 1 0
BITMAP
3C
7E
66
C3
C3
C3
C3
C3
C3
C3
C3
66
7E
3C
ENDCHAR
STARTCHAR one
ENCODING 49
SWIDTH 493 0
DWIDTH 10 0
BBX 4 14 2 0
BITMAP
10
70
F0
90
10
10
10
10
10
10
10
10
10
10
ENDCHAR
STARTCHAR two
ENCODING 50
SWIDTH 493 0
DWIDTH 10 0
BBX 8 14 1 0
BITMAP
3C
7E
C6
C3
02
06
06
0C
18
30
20
60
FF
FF
ENDCHAR
STARTCHAR three
ENCODING 51
SWIDTH 493 0
DWIDTH 10 0
BBX 8 14 1 0
BITMAP
3C
7E
E6
C2
02
06
3C
3E
06
03
C3
C6
7E
3C
ENDCHAR
STARTCHAR four
ENCODING 52
SWIDTH 493 0
DWIDTH 10 0
BBX 8 14 1 0
BITMAP
06
0E
0E
1E
16
26
66
46
C6
FF
FF
06
06
06
ENDCHAR
STARTCHAR five
ENCODING 53
SWIDTH 493 0
DWIDTH 10 0
BBX 8 14 1 0
BITMAP
7F
7F
60
60
60
7C
7E
43
03
03
C3
63
7E
3C
ENDCHAR
STARTCHAR six
ENCODING 54
SWIDTH 493 0
DWIDTH 10 0
BBX 8 14 1 0
BITMAP
1C
3C
70
60
40
DC
FE
E3
C3
C3
43
63
7E
3C
ENDCHAR
STARTCHAR seven
ENCODING 55
SWIDTH 493 0
DWIDTH 10 0
BBX 8 14 1 0
BITMAP
FF
FF
03
02
06
04
0C
0C
08
18
10
30
30
60
ENDCHAR
STARTCHAR eight
ENCODING 56
SWIDTH 493 0
DWIDTH 10 0
BBX 8 14 1 0
BITMAP
3C
7E
66
C3
42
66
3C
7E
66
C3
C3
C3
7E
3C
ENDCHAR
STARTCHAR nine
ENCODING 57
SWIDTH 493 0
DWIDTH 10 0
BBX 8 14 1 0
BITMAP
3C
7E
E6
C2
C3
C3
C3
E7
7F
3A
06
0E
3C
38
ENDCHAR
STARTCHAR colon
ENCODING 58
SWIDTH 233 0
DWIDTH 5 0
BBX 3 11 1 0
BITMAP
C0
E0
00
00
00
00
00
00
00
C0
E0
ENDCHAR
STARTCHAR semicolon
ENCODING 59
SWIDTH 202 0
DWIDTH 4 0
BBX 3 14 0 -3
BITMAP
60
60
00
00
00
00
00
00
00
60
60
60
60
C0
ENDCHAR
STARTCHAR less
ENCODING 60
SWIDTH 445 0
DWIDTH 9 0
BBX 6 9 1 2
BITMAP
04
0C
38
E0
C0
E0
38
0C
04
ENDCHAR
STARTCHAR equal
ENCODING 61
SWIDTH 479 0
DWIDTH 10 0
BBX 7 6 1 3
BITMAP
FE
FE
00
00
FE
FE
ENDCHAR
STARTCHAR greater
ENCODING 62
SWIDTH 459 0
DWIDTH 9 0
BBX 7 9 1 2
BITMAP
80
E0
38
0E
02
0E
38
E0
80
ENDCHAR
STARTCHAR question
ENCODING 63
SWIDTH 421 0
DWIDTH 8 0
BBX 6 14 1 0
BITMAP
78
FC
CC
04
04
0C
18
30
30
30
00
00
30
30
ENDCHAR
STARTCHAR at
ENCODING 64
SWIDTH 769 0
DWIDTH 15 0
BBX 13 18 1 -4
BITMAP
0F80
1FE0
3870
6010
4398
4788
CC88
8888
8888
9888
9888
8998
CFF0
CEE0
6000
7080
3F80
0F00
ENDCHAR
STARTCHAR A
ENCODING 65
SWIDTH 576 0
DWIDTH 12 0
BBX 10 14 1 0
BITMAP
0C00
0C00
1E00
1E00
1200
3300
3300
3300
6180
7F80
7F80
C0C0
C0C0
C0C0
ENDCHAR
STARTCHAR B
ENCODING 66
SWIDTH 545 0
DWIDTH 11 0
BBX 8 14 2 0
BITMAP
FC
FE
86
82
83
86
FC
FE
86
83
83
87
FE
FC
ENDCHAR
STARTCHAR C
ENCODING 67
SWIDTH 566 0
DWIDTH 11 0
BBX 9 14 1 0
BITMAP
1E00
7F00
6380
C180
C180
C000
C000
C000
C000
C180
C180
6380
7F00
1E00
ENDCHAR
STARTCHAR D
ENCODING 68
SWIDTH 570 0
DWIDTH 11 0
BBX 9 14 1 0
BITMAP
FC00
FF00
C300
C180
C180
C180
C180
C180
C180
C180
C180
C300
FF00
FC00
ENDCHAR
STARTCHAR E
ENCODING 69
SWIDTH 496 0
DWIDTH 10 0
BBX 7 14 2 0
BITMAP
FE
FE
80
80
80
80
FC
FC
80
80
80
80
FE
FE
ENDCHAR
STARTCHAR F
ENCODING 70
SWIDTH 480 0
DWIDTH 10 0
BBX 7 14 2 0
BITMAP
FE
FE
80
80
80
80
FC
FC
80
80
80
80
80
80
ENDCHAR
STARTCHAR G
ENCODING 71
SWIDTH 590 0
DWIDTH 12 0
BBX 10 14 1 0
BITMAP
1E00
7F00
6180
4180
C0C0
C000
C000
C7C0
C7C0
C0C0
60C0
61C0
3F80
1F00
ENDCHAR
STARTCHAR H
ENCODING 72
SWIDTH 620 0
DWIDTH 12 0
BBX 10 14 1 0
BITMAP
C0C0
C0C0
C0C0
C0C0
C0C0
C0C0
FFC0
FFC0
C0C0
C0C0
C0C0
C0C0
C0C0
C0C0
ENDCHAR
STARTCHAR I
ENCODING 73
SWIDTH 250 0
DWIDTH 5 0
BBX 1 14 2 0
BITMAP
80
80
80
80
80
80
80
80
80
80
80
80
80
80
ENDCHAR
STARTCHAR J
ENCODING 74
SWIDTH 483 0
DWIDTH 10 0
BBX 7 14 1 0
BITMAP
06
06
06
06
06
06
06
06
06
06
86
C6
FE
78
ENDCHAR
STARTCHAR K
ENCODING 75
SWIDTH 544 0
DWIDTH 11 0
BBX 9 14 2 0
BITMAP
8380
8600
8600
8C00
9800
B000
B000
F800
D800
8C00
8600
8600
8300
8380
ENDCHAR
STARTCHAR L
ENCODING 76
SWIDTH 475 0
DWIDTH 10 0
BBX 7 14 2 0
BITMAP
80
80
80
80
80
80
80
80
80
80
80
80
FE
FE
ENDCHAR
STARTCHAR M
ENCODING 77
SWIDTH 755 0
DWIDTH 15 0
BBX 12 14 2 0
BITMAP
C070
C070
E0F0
E0F0
A0B0
B1B0
B1B0
9130
9B30
9B30
8A30
8E30
8E30
8430
ENDCHAR
STARTCHAR N
ENCODING 78
SWIDTH 619 0
DWIDTH 12 0
BBX 10 14 1 0
BITMAP
C0C0
E0C0
E0C0
F0C0
D0C0
D8C0
C8C0
CCC0
C6C0
C6C0
C3C0
C3C0
C1C0
C1C0
ENDCHAR
STARTCHAR O
ENCODING 79
SWIDTH 600 0
DWIDTH 12 0
BBX 10 14 1 0
BITMAP
1E00
3F80
6180
40C0
C0C0
C0C0
C0C0
C0C0
C0C0
C0C0
C0C0
6180
3F80
1E00
ENDCHAR
STARTCHAR P
ENCODING 80
SWIDTH 554 0
DWIDTH 11 0
BBX 9 14 1 0
BITMAP
FE00
FF00
C180
C180
C180
C180
C180
FF00
FE00
C000
C000
C000
C000
C000
ENDCHAR
STARTCHAR Q
ENCODING 81
SWIDTH 600 0
DWIDTH 12 0
BBX 10 16 1 -2
BITMAP
1E00
7F00
6180
C080
C0C0
C0C0
C0C0
C0C0
C0C0
C0C0
C080
6180
7F00
1F00
0180
00C0
ENDCHAR
STARTCHAR R
ENCODING 82
SWIDTH 530 0
DWIDTH 11 0
BBX 8 14 2 0
BITMAP
FC
FE
C7
C3
C3
C3
C7
FE
FC
CC
C6
C6
C3
C3
ENDCHAR
STARTCHAR S
ENCODING 83
SWIDTH 518 0
DWIDTH 10 0
BBX 8 14 1 0
BITMAP
3C
7E
C3
C3
C1
E0
78
1E
03
83
C1
C3
7F
3E
ENDCHAR
STARTCHAR T
ENCODING 84
SWIDTH 520 0
DWIDTH 10 0
BBX 9 14 1 0
BITMAP
FF80
FF80
1800
1800
1800
1800
1800
1800
1800
1800
1800
1800
1800
1800
ENDCHAR
STARTCHAR U
ENCODING 85
SWIDTH 561 0
DWIDTH 11 0
BBX 9 14 1 0
BITMAP
C180
C180
C180
C180
C180
C180
C180
C180
C180
C180
C180
E380
7F00
3E00
ENDCHAR
STARTCHAR V
ENCODING 86
SWIDTH 560 0
DWIDTH 11 0
BBX 11 14 0 0
BITMAP
C060
60C0
60C0
60C0
3180
3180
3180
1100
1B00
1B00
0A00
0E00
0E00
0400
ENDCHAR
STARTCHAR W
ENCODING 87
SWIDTH 761 0
DWIDTH 15 0
BBX 14 14 1 0
BITMAP
C30C
C308
C718
C718
4518
4598
6C90
6C90
68B0
28F0
28F0
3860
3860
3060
ENDCHAR
STARTCHAR X
ENCODING 88
SWIDTH 550 0
DWIDTH 11 0
BBX 9 14 1 0
BITMAP
C180
6300
6300
3200
3600
1400
1C00
1C00
1400
3600
2300
6300
E180
C180
ENDCHAR
STARTCHAR Y
ENCODING 89
SWIDTH 524 0
DWIDTH 10 0
BBX 10 14 0 0
BITMAP
E0C0
6080
6180
3180
3300
1B00
1E00
0E00
0C00
0C00
0C00
0C00
0C00
0C00
ENDCHAR
STARTCHAR Z
ENCODING 90
SWIDTH 522 0
DWIDTH 10 0
BBX 9 14 1 0
BITMAP
FF00
FF00
0300
0600
0600
0C00
1800
1800
3000
2000
6000
C000
FF80
FF80
ENDCHAR
STARTCHAR bracketleft
ENCODING 91
SWIDTH 250 0
DWIDTH 5 0
BBX 4 19 1 -3
BITMAP
F0
F0
C0
C0
C0
C0
C0
C0
C0
C0
C0
C0
C0
C0
C0
C0
C0
F0
F0
ENDCHAR
STARTCHAR backslash
ENCODING 92
SWIDTH 369 0
DWIDTH 7 0
BBX 7 15 0 -1
BITMAP
C0
60
60
20
30
30
10
18
18
08
0C
0C
04
06
06
ENDCHAR
STARTCHAR bracketright
ENCODING 93
SWIDTH 250 0
DWIDTH 5 0
BBX 4 19 0 -3
BITMAP
F0
F0
30
30
30
30
30
30
30
30
30
30
30
30
30
30
30
F0
F0
ENDCHAR
STARTCHAR asciicircum
ENCODING 94
SWIDTH 371 0
DWIDTH 7 0
BBX 7 7 0 7
BITMAP
10
38
28
28
6C
6C
C6
ENDCHAR
STARTCHAR underscore
ENCODING 95
SWIDTH 404 0
DWIDTH 8 0
BBX 8 2 0 -2
BITMAP
FF
FF
ENDCHAR
STARTCHAR grave
ENCODING 96
SWIDTH 309 0
DWIDTH 6 0
BBX 4 3 1 12
BITMAP
C0
60
30
ENDCHAR
STARTCHAR a
ENCODING 97
SWIDTH 479 0
DWIDTH 10 0
BBX 8 11 1 0
BITMAP
3C
7E
46
82
3E
7E
E2
C2
C6
7E
3B
ENDCHAR
STARTCHAR b
ENCODING 98
SWIDTH 493 0
DWIDTH 10 0
BBX 8 15 1 0
BITMAP
C0
C0
C0
C0
DC
FE
E3
C3
C3
C3
C3
C3
E3
FE
DC
ENDCHAR
STARTCHAR c
ENCODING 99
SWIDTH 461 0
DWIDTH 9 0
BBX 7 11 1 0
BITMAP
3C
7E
C6
C2
C0
C0
C0
C2
C6
7E
3C
ENDCHAR
STARTCHAR d
ENCODING 100
SWIDTH 496 0
DWIDTH 10 0
BBX 8 15 1 0
BITMAP
03
03
03
03
3B
7F
C7
C3
C3
C3
C3
C3
C7
7F
3B
ENDCHAR
STARTCHAR e
ENCODING 101
SWIDTH 468 0
DWIDTH 9 0
BBX 7 11 1 0
BITMAP
3C
7E
C6
C2
FE
FE
C0
C0
C2
7E
3C
ENDCHAR
STARTCHAR f
ENCODING 102
SWIDTH 316 0
DWIDTH 6 0
BBX 6 15 0 0
BITMAP
1C
3C
30
30
F8
F8
30
30
30
30
30
30
30
30
30
ENDCHAR
STARTCHAR g
ENCODING 103
SWIDTH 492 0
DWIDTH 10 0
BBX 8 15 1 -4
BITMAP
3B
7F
C7
C3
C3
C3
C3
C3
C7
7F
3B
03
86
7E
3C
ENDCHAR
STARTCHAR h
ENCODING 104
SWIDTH 482 0
DWIDTH 10 0
BBX 8 15 1 0
BITMAP
C0
C0
C0
C0
DC
FE
E6
C3
C3
C3
C3
C3
C3
C3
C3
ENDCHAR
STARTCHAR i
ENCODING 105
SWIDTH 229 0
DWIDTH 5 0
BBX 2 15 2 0
BITMAP
80
C0
00
00
80
80
80
80
80
80
80
80
80
80
80
ENDCHAR
STARTCHAR j
ENCODING 106
SWIDTH 223 0
DWIDTH 4 0
BBX 3 19 0 -4
BITMAP
60
60
00
00
60
60
60
60
60
60
60
60
60
60
60
60
60
E0
C0
ENDCHAR
STARTCHAR k
ENCODING 107
SWIDTH 450 0
DWIDTH 9 0
BBX 8 15 1 0
BITMAP
C0
C0
C0
C0
C6
CC
CC
D8
F0
F8
F8
CC
CC
C6
C3
ENDCHAR
STARTCHAR l
ENCODING 108
SWIDTH 229 0
DWIDTH 5 0
BBX 2 15 1 0
BITMAP
C0
C0
C0
C0
C0
C0
C0
C0
C0
C0
C0
C0
C0
C0
C0
ENDCHAR
STARTCHAR m
ENCODING 109
SWIDTH 752 0
DWIDTH 15 0
BBX 13 11 1 0
BITMAP
DCE0
FFF0
E718
C218
C218
C218
C218
C218
C218
C218
C218
ENDCHAR
STARTCHAR n
ENCODING 110
SWIDTH 483 0
DWIDTH 10 0
BBX 8 11 1 0
BITMAP
DC
FE
E6
C3
C3
C3
C3
C3
C3
C3
C3
ENDCHAR
STARTCHAR o
ENCODING 111
SWIDTH 501 0
DWIDTH 10 0
BBX 8 11 1 0
BITMAP
3C
7E
E7
C3
C3
C3
C3
C3
E3
7E
3C
ENDCHAR
STARTCHAR p
ENCODING 112
SWIDTH 493 0
DWIDTH 10 0
BBX 8 15 1 -4
BITMAP
DC
FE
E3
C3
C3
C3
C3
C3
E7
FE
DC
C0
C0
C0
C0
ENDCHAR
STARTCHAR q
ENCODING 113
SWIDTH 500 0
DWIDTH 10 0
BBX 8 15 1 -4
BITMAP
3B
7F
C7
C3
C3
C3
C3
C3
C7
7F
3B
03
03
03
03
ENDCHAR
STARTCHAR r
ENCODING 114
SWIDTH 304 0
DWIDTH 6 0
BBX 5 11 1 0
BITMAP
D8
F8
E0
C0
C0
C0
C0
C0
C0
C0
C0
ENDCHAR
STARTCHAR s
ENCODING 115
SWIDTH 455 0
DWIDTH 9 0
BBX 7 11 1 0
BITMAP
3C
7E
C6
C0
70
3C
0E
06
C6
FE
3C
ENDCHAR
STARTCHAR t
ENCODING 116
SWIDTH 295 0
DWIDTH 6 0
BBX 5 14 0 0
BITMAP
30
30
30
F8
F8
30
30
30
30
30
30
30
38
18
ENDCHAR
STARTCHAR u
ENCODING 117
SWIDTH 483 0
DWIDTH 10 0
BBX 8 11 1 0
BITMAP
C3
C3
C3
C3
C3
C3
C3
C3
67
7F
3B
ENDCHAR
STARTCHAR v
ENCODING 118
SWIDTH 427 0
DWIDTH 9 0
BBX 7 11 1 0
BITMAP
C6
C6
C6
44
6C
6C
28
28
38
38
10
ENDCHAR
STARTCHAR w
ENCODING 119
SWIDTH 649 0
DWIDTH 13 0
BBX 12 11 0 0
BITMAP
C210
6730
6730
6530
2520
2DA0
3DE0
38E0
38C0
18C0
18C0
ENDCHAR
STARTCHAR x
ENCODING 120
SWIDTH 438 0
DWIDTH 9 0
BBX 7 11 1 0
BITMAP
C6
CC
6C
68
38
30
38
68
6C
C4
C6
ENDCHAR
STARTCHAR y
ENCODING 121
SWIDTH 416 0
DWIDTH 8 0
BBX 8 15 0 -4
BITMAP
C3
42
66
66
24
24
3C
3C
18
18
18
18
30
70
60
ENDCHAR
STARTCHAR z
ENCODING 122
SWIDTH 438 0
DWIDTH 9 0
BBX 7 11 1 0
BITMAP
FE
FE
0C
0C
18
30
30
60
C0
FE
FE
ENDCHAR
STARTCHAR braceleft
ENCODING 123
SWIDTH 306 0
DWIDTH 6 0
BBX 5 20 1 -4
BITMAP
10
38
20
60
60
60
60
60
60
C0
60
60
60
60
60
60
60
20
30
18
ENDCHAR
STARTCHAR bar
ENCODING 124
SWIDTH 243 0
DWIDTH 5 0
BBX 1 17 2 -3
BITMAP
80
80
80
80
80
80
80
80
80
80
80
80
80
80
80
80
80
ENDCHAR
STARTCHAR braceright
ENCODING 125
SWIDTH 306 0
DWIDTH 6 0
BBX 5 20 0 -4
BITMAP
C0
60
20
30
30
30
30
30
30
18
30
30
30
30
30
30
20
20
60
C0
ENDCHAR
STARTCHAR asciitilde
ENCODING 126
SWIDTH 589 0
DWIDTH 12 0
BBX 10 4 1 4
BITMAP
38C0
7C80
CF80
C700
ENDCHAR
STARTCHAR uni00A0
ENCODING 160
SWIDTH 229 0
DWIDTH 5 0
BBX 1 1 0 0
BITMAP
00
ENDCHAR
STARTCHAR exclamdown
ENCODING 161
SWIDTH 231 0
DWIDTH 5 0
BBX 1 15 2 -4
BITMAP
80
80
00
00
80
80
80
80
80
80
80
80
80
80
80
ENDCHAR
STARTCHAR cent
ENCODING 162
SWIDTH 479 0
DWIDTH 10 0
BBX 8 15 1 -2
BITMAP
18
18
3C
7E
63
C3
C0
C0
C0
C0
63
7E
3C
18
18
ENDCHAR
STARTCHAR sterling
ENCODING 163
SWIDTH 510 0
DWIDTH 10 0
BBX 8 14 1 0
BITMAP
1E
3F
63
63
60
60
60
F8
F8
60
60
60
FF
FF
ENDCHAR
STARTCHAR currency
ENCODING 164
SWIDTH 712 0
DWIDTH 14 0
BBX 12 12 1 0
BITMAP
CF30
FFF0
70E0
6060
C030
C030
C030
C030
6060
70E0
FFF0
4F30
ENDCHAR
STARTCHAR yen
ENCODING 165
SWIDTH 463 0
DWIDTH 9 0
BBX 9 14 0 0
BITMAP
C180
6300
6300
3600
3600
3400
1C00
7F00
7F00
0800
7F00
7F00
0800
0800
ENDCHAR
STARTCHAR brokenbar
ENCODING 166
SWIDTH 239 0
DWIDTH 5 0
BBX 2 17 1 -3
BITMAP
C0
C0
C0
C0
C0
C0
C0
00
00
C0
C0
C0
C0
C0
C0
C0
C0
ENDCHAR
STARTCHAR section
ENCODING 167
SWIDTH 537 0
DWIDTH 11 0
BBX 9 19 1 -5
BITMAP
3E00
7F00
6300
C180
4000
7000
3C00
FF00
C380
C180
E180
7F00
3E00
0700
0100
C100
E300
7F00
3E00
ENDCHAR
STARTCHAR dieresis
ENCODING 168
SWIDTH 417 0
DWIDTH 8 0
BBX 6 2 1 12
BITMAP
CC
CC
ENDCHAR
STARTCHAR copyright
ENCODING 169
SWIDTH 785 0
DWIDTH 16 0
BBX 14 14 1 0
BITMAP
0FC0
1860
2010
4788
CFC8
8844
9804
9804
8844
CFC8
4788
2010
1860
0FC0
ENDCHAR
STARTCHAR ordfeminine
ENCODING 170
SWIDTH 395 0
DWIDTH 8 0
BBX 6 7 1 7
BITMAP
78
48
0C
7C
CC
CC
7C
ENDCHAR
STARTCHAR guillemotleft
ENCODING 171
SWIDTH 417 0
DWIDTH 8 0
BBX 6 8 1 1
BITMAP
34
6C
48
D8
D8
48
6C
34
ENDCHAR
STARTCHAR logicalnot
ENCODING 172
SWIDTH 487 0
DWIDTH 10 0
BBX 7 4 1 4
BITMAP
FE
FE
06
06
ENDCHAR
STARTCHAR uni00AD
ENCODING 173
SWIDTH 248 0
DWIDTH 5 0
BBX 5 2 0 5
BITMAP
F8
F8
ENDCHAR
STARTCHAR registered
ENCODING 174
SWIDTH 786 0
DWIDTH 16 0
BBX 14 14 1 0
BITMAP
0FC0
1860
2010
4F88
CFC8
8C44
8F84
8F84
8CC4
CC48
4C48
2010
1860
0FC0
ENDCHAR
STARTCHAR macron
ENCODING 175
SWIDTH 414 0
DWIDTH 8 0
BBX 6 2 1 12
BITMAP
FC
FC
ENDCHAR
STARTCHAR degree
ENCODING 176
SWIDTH 373 0
DWIDTH 7 0
BBX 5 6 1 8
BITMAP
70
78
C8
C8
78
70
ENDCHAR
STARTCHAR plusminus
ENCODING 177
SWIDTH 469 0
DWIDTH 9 0
BBX 8 12 1 0
BITMAP
18
18
18
18
FF
FF
18
18
18
00
FE
FE
ENDCHAR
STARTCHAR uni00B2
ENCODING 178
SWIDTH 329 0
DWIDTH 7 0
BBX 5 8 1 6
BITMAP
70
F8
98
18
30
40
F8
F8
ENDCHAR
STARTCHAR uni00B3
ENCODING 179
SWIDTH 329 0
DWIDTH 7 0
BBX 5 8 1 6
BITMAP
70
F8
18
30
38
18
F8
70
ENDCHAR
STARTCHAR acute
ENCODING 180
SWIDTH 313 0
DWIDTH 6 0
BBX 4 3 1 12
BITMAP
30
60
C0
ENDCHAR
STARTCHAR mu
ENCODING 181
SWIDTH 498 0
DWIDTH 10 0
BBX 8 15 1 -4
BITMAP
C3
C3
C3
C3
C3
C3
C3
C3
E7
FF
FB
C0
C0
C0
C0
ENDCHAR
STARTCHAR paragraph
ENCODING 182
SWIDTH 434 0
DWIDTH 9 0
BBX 6 14 1 0
BITMAP
3C
7C
FC
FC
FC
FC
FC
7C
3C
04
04
04
04
04
ENDCHAR
STARTCHAR periodcentered
ENCODING 183
SWIDTH 243 0
DWIDTH 5 0
BBX 3 2 1 6
BITMAP
40
E0
ENDCHAR
STARTCHAR cedilla
ENCODING 184
SWIDTH 229 0
DWIDTH 5 0
BBX 3 4 1 -4
BITMAP
40
E0
20
C0
ENDCHAR
STARTCHAR uni00B9
ENCODING 185
SWIDTH 329 0
DWIDTH 7 0
BBX 4 8 1 6
BITMAP
30
F0
F0
30
30
30
30
30
ENDCHAR
STARTCHAR ordmasculine
ENCODING 186
SWIDTH 402 0
DWIDTH 8 0
BBX 6 7 1 7
BITMAP
78
4C
CC
CC
CC
4C
78
ENDCHAR
STARTCHAR guillemotright
ENCODING 187
SWIDTH 417 0
DWIDTH 8 0
BBX 7 8 1 1
BITMAP
D8
48
6C
24
36
6C
48
D8
ENDCHAR
STARTCHAR onequarter
ENCODING 188
SWIDTH 637 0
DWIDTH 13 0
BBX 11 14 1 0
BITMAP
6000
E080
A100
2100
2200
2200
24C0
2CC0
09C0
1940
1240
33E0
23E0
0040
ENDCHAR
STARTCHAR onehalf
ENCODING 189
SWIDTH 677 0
DWIDTH 14 0
BBX 12 14 1 0
BITMAP
6000
E100
A100
2200
2200
2400
25E0
29E0
0920
1060
10C0
2180
21F0
01F0
ENDCHAR
STARTCHAR threequarters
ENCODING 190
SWIDTH 673 0
DWIDTH 13 0
BBX 12 14 1 0
BITMAP
7000
F840
0880
3880
3900
0B00
FA60
7660
04E0
0DE0
0960
1BF0
13F0
0060
ENDCHAR
STARTCHAR questiondown
ENCODING 191
SWIDTH 421 0
DWIDTH 8 0
BBX 7 15 0 -4
BITMAP
18
18
00
00
18
18
10
30
60
40
40
C2
66
7E
3C
ENDCHAR
STARTCHAR Agrave
ENCODING 192
SWIDTH 576 0
DWIDTH 12 0
BBX 10 18 1 0
BITMAP
3000
1800
0C00
0000
0C00
0C00
1E00
1E00
1200
3300
3300
3300
6180
7F80
7F80
C0C0
C0C0
C0C0
ENDCHAR
STARTCHAR Aacute
ENCODING 193
SWIDTH 576 0
DWIDTH 12 0
BBX 10 18 1 0
BITMAP
0700
0600
0C00
0000
0C00
0C00
1E00
1E00
1200
3300
3300
3300
6180
7F80
7F80
C0C0
C0C0
C0C0
ENDCHAR
STARTCHAR Acircumflex
ENCODING 194
SWIDTH 576 0
DWIDTH 12 0
BBX 10 18 1 0
BITMAP
0C00
1E00
3200
0000
0C00
0C00
1E00
1E00
1200
3300
3300
3300
6180
7F80
7F80
C0C0
C0C0
C0C0
ENDCHAR
STARTCHAR Atilde
ENCODING 195
SWIDTH 576 0
DWIDTH 12 0
BBX 10 17 1 0
BITMAP
3B00
2600
0000
0C00
0C00
1E00
1E00
1200
3300
3300
3300
6180
7F80
7F80
C0C0
C0C0
C0C0
ENDCHAR
STARTCHAR Adieresis
ENCODING 196
SWIDTH 576 0
DWIDTH 12 0
BBX 10 17 1 0
BITMAP
3300
3300
0000
0C00
0C00
1E00
1E00
1200
3300
3300
3300
6180
7F80
7F80
C0C0
C0C0
C0C0
ENDCHAR
STARTCHAR Aring
ENCODING 197
SWIDTH 576 0
DWIDTH 12 0
BBX 10 19 1 0
BITMAP
0C00
1200
1200
0C00
0000
0C00
0C00
1E00
1E00
1200
3300
3300
3300
6180
7F80
7F80
C0C0
C0C0
C0C0
ENDCHAR
STARTCHAR AE
ENCODING 198
SWIDTH 812 0
DWIDTH 16 0
BBX 16 14 0 0
BITMAP
01FE
03FE
03C0
06C0
06C0
0CC0
0CFE
18FE
18C0
3FC0
3FC0
60C0
60FF
C0FF
ENDCHAR
STARTCHAR Ccedilla
ENCODING 199
SWIDTH 566 0
DWIDTH 11 0
BBX 9 18 1 -4
BITMAP
1E00
7F00
6380
C180
C180
C000
C000
C000
C000
C180
C180
6380
7F00
1E00
0C00
0400
0600
0C00
ENDCHAR
STARTCHAR Egrave
ENCODING 200
SWIDTH 496 0
DWIDTH 10 0
BBX 7 18 2 0
BITMAP
E0
30
30
00
FE
FE
80
80
80
80
FC
FC
80
80
80
80
FE
FE
ENDCHAR
STARTCHAR Eacute
ENCODING 201
SWIDTH 496 0
DWIDTH 10 0
BBX 7 18 2 0
BITMAP
0C
18
30
00
FE
FE
80
80
80
80
FC
FC
80
80
80
80
FE
FE
ENDCHAR
STARTCHAR Ecircumflex
ENCODING 202
SWIDTH 496 0
DWIDTH 10 0
BBX 7 18 2 0
BITMAP
30
78
4C
00
FE
FE
80
80
80
80
FC
FC
80
80
80
80
FE
FE
ENDCHAR
STARTCHAR Edieresis
ENCODING 203
SWIDTH 496 0
DWIDTH 10 0
BBX 7 17 2 0
BITMAP
CC
CC
00
FE
FE
80
80
80
80
FC
FC
80
80
80
80
FE
FE
ENDCHAR
STARTCHAR Igrave
ENCODING 204
SWIDTH 250 0
DWIDTH 5 0
BBX 5 18 -1 0
BITMAP
E0
30
18
00
10
10
10
10
10
10
10
10
10
10
10
10
10
10
ENDCHAR
STARTCHAR Iacute
ENCODING 205
SWIDTH 250 0
DWIDTH 5 0
BBX 5 18 1 0
BITMAP
38
60
C0
00
40
40
40
40
40
40
40
40
40
40
40
40
40
40
ENDCHAR
STARTCHAR Icircumflex
ENCODING 206
SWIDTH 250 0
DWIDTH 5 0
BBX 5 18 0 0
BITMAP
20
50
D8
00
20
20
20
20
20
20
20
20
20
20
20
20
20
20
ENDCHAR
STARTCHAR Idieresis
ENCODING 207
SWIDTH 250 0
DWIDTH 5 0
BBX 7 17 -1 0
BITMAP
C6
E6
00
10
10
10
10
10
10
10
10
10
10
10
10
10
10
ENDCHAR
STARTCHAR Eth
ENCODING 208
SWIDTH 585 0
DWIDTH 12 0
BBX 11 14 0 0
BITMAP
3F00
3F80
31C0
30C0
3060
3060
FC60
FC60
3060
3060
30C0
31C0
3F80
3F00
ENDCHAR
STARTCHAR Ntilde
ENCODING 209
SWIDTH 619 0
DWIDTH 12 0
BBX 10 17 1 0
BITMAP
1900
2700
0000
C0C0
E0C0
E0C0
F0C0
D0C0
D8C0
C8C0
CCC0
C6C0
C6C0
C3C0
C3C0
C1C0
C1C0
ENDCHAR
STARTCHAR Ograve
ENCODING 210
SWIDTH 600 0
DWIDTH 12 0
BBX 10 18 1 0
BITMAP
3800
1800
0C00
0000
1E00
3F80
6180
40C0
C0C0
C0C0
C0C0
C0C0
C0C0
C0C0
C0C0
6180
3F80
1E00
ENDCHAR
STARTCHAR Oacute
ENCODING 211
SWIDTH 600 0
DWIDTH 12 0
BBX 10 18 1 0
BITMAP
0300
0600
0C00
0000
1E00
3F80
6180
40C0
C0C0
C0C0
C0C0
C0C0
C0C0
C0C0
C0C0
6180
3F80
1E00
ENDCHAR
STARTCHAR Ocircumflex
ENCODING 212
SWIDTH 600 0
DWIDTH 12 0
BBX 10 18 1 0
BITMAP
0C00
1E00
3300
0000
1E00
3F80
6180
40C0
C0C0
C0C0
C0C0
C0C0
C0C0
C0C0
C0C0
6180
3F80
1E00
ENDCHAR
STARTCHAR Otilde
ENCODING 213
SWIDTH 600 0
DWIDTH 12 0
BBX 10 17 1 0
BITMAP
1900
2600
0000
1E00
3F80
6180
40C0
C0C0
C0C0
C0C0
C0C0
C0C0
C0C0
C0C0
6180
3F80
1E00
ENDCHAR
STARTCHAR Odieresis
ENCODING 214
SWIDTH 600 0
DWIDTH 12 0
BBX 10 17 1 0
BITMAP
3300
3300
0000
1E00
3F80
6180
40C0
C0C0
C0C0
C0C0
C0C0
C0C0
C0C0
C0C0
6180
3F80
1E00
ENDCHAR
STARTCHAR multiply
ENCODING 215
SWIDTH 470 0
DWIDTH 9 0
BBX 7 9 1 2
BITMAP
82
C6
6C
3C
18
38
6C
C6
82
ENDCHAR
STARTCHAR Oslash
ENCODING 216
SWIDTH 600 0
DWIDTH 12 0
BBX 10 15 1 -1
BITMAP
1EC0
3F80
6180
6180
C2C0
C2C0
C4C0
CCC0
C8C0
D8C0
5180
7180
3F00
5E00
4000
ENDCHAR
STARTCHAR Ugrave
ENCODING 217
SWIDTH 561 0
DWIDTH 11 0
BBX 9 18 1 0
BITMAP
3000
1800
0C00
0000
C180
C180
C180
C180
C180
C180
C180
C180
C180
C180
C180
E380
7F00
3E00
ENDCHAR
STARTCHAR Uacute
ENCODING 218
SWIDTH 561 0
DWIDTH 11 0
BBX 9 18 1 0
BITMAP
0700
0C00
0C00
0000
C180
C180
C180
C180
C180
C180
C180
C180
C180
C180
C180
E380
7F00
3E00
ENDCHAR
STARTCHAR Ucircumflex
ENCODING 219
SWIDTH 561 0
DWIDTH 11 0
BBX 9 18 1 0
BITMAP
0C00
1400
3600
0000
C180
C180
C180
C180
C180
C180
C180
C180
C180
C180
C180
E380
7F00
3E00
ENDCHAR
STARTCHAR Udieresis
ENCODING 220
SWIDTH 561 0
DWIDTH 11 0
BBX 9 17 1 0
BITMAP
2300
7300
0000
C180
C180
C180
C180
C180
C180
C180
C180
C180
C180
C180
E380
7F00
3E00
ENDCHAR
STARTCHAR Yacute
ENCODING 221
SWIDTH 524 0
DWIDTH 10 0
BBX 10 18 0 0
BITMAP
0300
0600
0C00
0000
E0C0
6080
6180
3180
3300
1B00
1E00
0E00
0C00
0C00
0C00
0C00
0C00
0C00
ENDCHAR
STARTCHAR Thorn
ENCODING 222
SWIDTH 515 0
DWIDTH 10 0
BBX 8 14 1 0
BITMAP
C0
C0
C0
FC
FE
C3
C3
C1
C3
C3
FE
FC
C0
C0
ENDCHAR
STARTCHAR germandbls
ENCODING 223
SWIDTH 521 0
DWIDTH 10 0
BBX 8 15 1 0
BITMAP
38
7C
C6
C6
C4
CC
CC
CC
CC
C6
C3
C1
E3
DF
DE
ENDCHAR
STARTCHAR agrave
ENCODING 224
SWIDTH 479 0
DWIDTH 10 0
BBX 8 15 1 0
BITMAP
60
30
18
00
3C
7E
46
82
3E
7E
E2
C2
C6
7E
3B
ENDCHAR
STARTCHAR aacute
ENCODING 225
SWIDTH 479 0
DWIDTH 10 0
BBX 8 15 1 0
BITMAP
0E
0C
18
00
3C
7E
46
82
3E
7E
E2
C2
C6
7E
3B
ENDCHAR
STARTCHAR acircumflex
ENCODING 226
SWIDTH 479 0
DWIDTH 10 0
BBX 8 16 1 0
BITMAP
18
3C
66
00
00
3C
7E
46
82
3E
7E
E2
C2
C6
7E
3B
ENDCHAR
STARTCHAR atilde
ENCODING 227
SWIDTH 479 0
DWIDTH 10 0
BBX 8 15 1 0
BITMAP
32
4C
00
00
3C
7E
46
82
3E
7E
E2
C2
C6
7E
3B
ENDCHAR
STARTCHAR adieresis
ENCODING 228
SWIDTH 479 0
DWIDTH 10 0
BBX 8 15 1 0
BITMAP
66
66
00
00
3C
7E
46
82
3E
7E
E2
C2
C6
7E
3B
ENDCHAR
STARTCHAR aring
ENCODING 229
SWIDTH 479 0
DWIDTH 10 0
BBX 8 16 1 0
BITMAP
1C
24
24
1C
00
3C
7E
46
82
3E
7E
E2
C2
C6
7E
3B
ENDCHAR
STARTCHAR ae
ENCODING 230
SWIDTH 728 0
DWIDTH 15 0
BBX 13 11 1 0
BITMAP
3CE0
7FF0
C718
0618
3FF8
7FF8
C600
C600
C710
FDF8
78F0
ENDCHAR
STARTCHAR ccedilla
ENCODING 231
SWIDTH 461 0
DWIDTH 9 0
BBX 7 15 1 -4
BITMAP
3C
7E
C6
C2
C0
C0
C0
C2
C6
7E
3C
10
08
0C
18
ENDCHAR
STARTCHAR egrave
ENCODING 232
SWIDTH 468 0
DWIDTH 9 0
BBX 7 15 1 0
BITMAP
60
30
18
00
3C
7E
C6
C2
FE
FE
C0
C0
C2
7E
3C
ENDCHAR
STARTCHAR eacute
ENCODING 233
SWIDTH 468 0
DWIDTH 9 0
BBX 7 15 1 0
BITMAP
0E
0C
18
00
3C
7E
C6
C2
FE
FE
C0
C0
C2
7E
3C
ENDCHAR
STARTCHAR ecircumflex
ENCODING 234
SWIDTH 468 0
DWIDTH 9 0
BBX 7 16 1 0
BITMAP
18
3C
64
00
00
3C
7E
C6
C2
FE
FE
C0
C0
C2
7E
3C
ENDCHAR
STARTCHAR edieresis
ENCODING 235
SWIDTH 468 0
DWIDTH 9 0
BBX 7 15 1 0
BITMAP
66
66
00
00
3C
7E
C6
C2
FE
FE
C0
C0
C2
7E
3C
ENDCHAR
STARTCHAR igrave
ENCODING 236
SWIDTH 234 0
DWIDTH 5 0
BBX 4 15 -1 0
BITMAP
E0
30
30
00
30
30
30
30
30
30
30
30
30
30
30
ENDCHAR
STARTCHAR iacute
ENCODING 237
SWIDTH 234 0
DWIDTH 5 0
BBX 4 15 1 0
BITMAP
30
60
C0
00
C0
C0
C0
C0
C0
C0
C0
C0
C0
C0
C0
ENDCHAR
STARTCHAR icircumflex
ENCODING 238
SWIDTH 234 0
DWIDTH 5 0
BBX 5 16 0 0
BITMAP
60
50
98
00
00
60
60
60
60
60
60
60
60
60
60
60
ENDCHAR
STARTCHAR idieresis
ENCODING 239
SWIDTH 234 0
DWIDTH 5 0
BBX 7 15 -1 0
BITMAP
C4
CE
00
00
30
30
30
30
30
30
30
30
30
30
30
ENDCHAR
STARTCHAR eth
ENCODING 240
SWIDTH 513 0
DWIDTH 10 0
BBX 8 15 1 0
BITMAP
60
7E
1C
1C
26
02
3F
7F
E3
C3
C3
C3
E6
7E
3C
ENDCHAR
STARTCHAR ntilde
ENCODING 241
SWIDTH 483 0
DWIDTH 10 0
BBX 8 15 1 0
BITMAP
72
4C
00
00
DC
FE
E6
C3
C3
C3
C3
C3
C3
C3
C3
ENDCHAR
STARTCHAR ograve
ENCODING 242
SWIDTH 501 0
DWIDTH 10 0
BBX 8 15 1 0
BITMAP
60
30
18
00
3C
7E
E7
C3
C3
C3
C3
C3
E3
7E
3C
ENDCHAR
STARTCHAR oacute
ENCODING 243
SWIDTH 501 0
DWIDTH 10 0
BBX 8 15 1 0
BITMAP
0E
0C
18
00
3C
7E
E7
C3
C3
C3
C3
C3
E3
7E
3C
ENDCHAR
STARTCHAR ocircumflex
ENCODING 244
SWIDTH 501 0
DWIDTH 10 0
BBX 8 16 1 0
BITMAP
18
3C
64
00
00
3C
7E
E7
C3
C3
C3
C3
C3
E3
7E
3C
ENDCHAR
STARTCHAR otilde
ENCODING 245
SWIDTH 501 0
DWIDTH 10 0
BBX 8 15 1 0
BITMAP
32
4C
00
00
3C
7E
E7
C3
C3
C3
C3
C3
E3
7E
3C
ENDCHAR
STARTCHAR odieresis
ENCODING 246
SWIDTH 501 0
DWIDTH 10 0
BBX 8 15 1 0
BITMAP
66
66
00
00
3C
7E
E7
C3
C3
C3
C3
C3
E3
7E
3C
ENDCHAR
STARTCHAR divide
ENCODING 247
SWIDTH 500 0
DWIDTH 10 0
BBX 8 10 1 2
BITMAP
18
18
00
00
FF
FF
00
00
18
18
ENDCHAR
STARTCHAR oslash
ENCODING 248
SWIDTH 498 0
DWIDTH 10 0
BBX 8 13 1 -1
BITMAP
02
3E
7E
67
CB
CB
CB
D3
D3
E7
7E
7C
40
ENDCHAR
STARTCHAR ugrave
ENCODING 249
SWIDTH 483 0
DWIDTH 10 0
BBX 8 15 1 0
BITMAP
60
30
18
00
C3
C3
C3
C3
C3
C3
C3
C3
67
7F
3B
ENDCHAR
STARTCHAR uacute
ENCODING 250
SWIDTH 483 0
DWIDTH 10 0
BBX 8 15 1 0
BITMAP
0E
0C
18
00
C3
C3
C3
C3
C3
C3
C3
C3
67
7F
3B
ENDCHAR
STARTCHAR ucircumflex
ENCODING 251
SWIDTH 483 0
DWIDTH 10 0
BBX 8 16 1 0
BITMAP
18
3C
64
00
00
C3
C3
C3
C3
C3
C3
C3
C3
67
7F
3B
ENDCHAR
STARTCHAR udieresis
ENCODING 252
SWIDTH 483 0
DWIDTH 10 0
BBX 8 15 1 0
BITMAP
66
66
00
00
C3
C3
C3
C3
C3
C3
C3
C3
67
7F
3B
ENDCHAR
STARTCHAR yacute
ENCODING 253
SWIDTH 416 0
DWIDTH 8 0
BBX 8 19 0 -4
BITMAP
06
0C
18
00
C3
42
66
66
24
24
3C
3C
18
18
18
18
30
70
60
ENDCHAR
STARTCHAR thorn
ENCODING 254
SWIDTH 508 0
DWIDTH 10 0
BBX 8 19 1 -4
BITMAP
C0
C0
C0
C0
DC
FE
E6
C3
C3
C3
C3
C3
E6
FE
DC
C0
C0
C0
C0
ENDCHAR
STARTCHAR ydieresis
ENCODING 255
SWIDTH 416 0
DWIDTH 8 0
BBX 8 19 0 -4
BITMAP
62
67
00
00
C3
42
66
66
24
24
3C
3C
18
18
18
18
30
70
60
ENDCHAR
STARTCHAR Amacron
ENCODING 256
SWIDTH 576 0
DWIDTH 12 0
BBX 10 17 1 0
BITMAP
3F00
3F00
0000
0C00
0C00
1E00
1E00
1200
3300
3300
3300
6180
7F80
7F80
C0C0
C0C0
C0C0
ENDCHAR
STARTCHAR amacron
ENCODING 257
SWIDTH 479 0
DWIDTH 10 0
BBX 8 14 1 0
BITMAP
7E
7E
00
3C
7E
46
82
3E
7E
E2
C2
C6
7E
3B
ENDCHAR
STARTCHAR Abreve
ENCODING 258
SWIDTH 576 0
DWIDTH 12 0
BBX 10 18 1 0
BITMAP
3300
1E00
0000
0000
0C00
0C00
1E00
1E00
1200
3300
3300
3300
6180
7F80
7F80
C0C0
C0C0
C0C0
ENDCHAR
STARTCHAR abreve
ENCODING 259
SWIDTH 479 0
DWIDTH 10 0
BBX 8 15 1 0
BITMAP
62
3C
00
00
3C
7E
46
82
3E
7E
E2
C2
C6
7E
3B
ENDCHAR
STARTCHAR Aogonek
ENCODING 260
SWIDTH 576 0
DWIDTH 12 0
BBX 10 18 1 -4
BITMAP
0C00
0C00
1E00
1E00
1200
3300
3300
3300
6180
7F80
7F80
C0C0
C0C0
C0C0
0080
0180
0180
00C0
ENDCHAR
STARTCHAR aogonek
ENCODING 261
SWIDTH 479 0
DWIDTH 10 0
BBX 8 15 1 -4
BITMAP
3C
7E
46
82
3E
7E
E2
C2
C6
7E
3B
06
04
04
07
ENDCHAR
STARTCHAR Cacute
ENCODING 262
SWIDTH 566 0
DWIDTH 11 0
BBX 9 18 1 0
BITMAP
0700
0600
0C00
0000
1E00
7F00
6380
C180
C180
C000
C000
C000
C000
C180
C180
6380
7F00
1E00
ENDCHAR
STARTCHAR cacute
ENCODING 263
SWIDTH 461 0
DWIDTH 9 0
BBX 7 15 1 0
BITMAP
0E
18
10
00
3C
7E
C6
C2
C0
C0
C0
C2
C6
7E
3C
ENDCHAR
STARTCHAR Ccircumflex
ENCODING 264
SWIDTH 566 0
DWIDTH 11 0
BBX 9 18 1 0
BITMAP
0C00
1E00
3200
0000
1E00
7F00
6380
C180
C180
C000
C000
C000
C000
C180
C180
6380
7F00
1E00
ENDCHAR
STARTCHAR ccircumflex
ENCODING 265
SWIDTH 461 0
DWIDTH 9 0
BBX 7 16 1 0
BITMAP
10
28
6C
00
00
3C
7E
C6
C2
C0
C0
C0
C2
C6
7E
3C
ENDCHAR
STARTCHAR Cdotaccent
ENCODING 266
SWIDTH 566 0
DWIDTH 11 0
BBX 9 17 1 0
BITMAP
0C00
0C00
0000
1E00
7F00
6380
C180
C180
C000
C000
C000
C000
C180
C180
6380
7F00
1E00
ENDCHAR
STARTCHAR cdotaccent
ENCODING 267
SWIDTH 461 0
DWIDTH 9 0
BBX 7 15 1 0
BITMAP
18
18
00
00
3C
7E
C6
C2
C0
C0
C0
C2
C6
7E
3C
ENDCHAR
STARTCHAR Ccaron
ENCODING 268
SWIDTH 566 0
DWIDTH 11 0
BBX 9 18 1 0
BITMAP
3200
1C00
0C00
0000
1E00
7F00
6380
C180
C180
C000
C000
C000
C000
C180
C180
6380
7F00
1E00
ENDCHAR
STARTCHAR ccaron
ENCODING 269
SWIDTH 461 0
DWIDTH 9 0
BBX 7 16 1 0
BITMAP
6C
28
10
00
00
3C
7E
C6
C2
C0
C0
C0
C2
C6
7E
3C
ENDCHAR
STARTCHAR Dcaron
ENCODING 270
SWIDTH 570 0
DWIDTH 11 0
BBX 9 18 1 0
BITMAP
2600
1C00
1800
0000
FC00
FF00
C300
C180
C180
C180
C180
C180
C180
C180
C180
C300
FF00
FC00
ENDCHAR
STARTCHAR dcaron
ENCODING 271
SWIDTH 569 0
DWIDTH 11 0
BBX 10 15 1 0
BITMAP
0340
0340
03C0
03C0
3B00
7F00
C700
C300
C300
C300
C300
C300
C700
7F00
3B00
ENDCHAR
STARTCHAR Dcroat
ENCODING 272
SWIDTH 585 0
DWIDTH 12 0
BBX 11 14 0 0
BITMAP
3F00
3F80
31C0
30C0
3060
3060
FC60
FC60
3060
3060
30C0
31C0
3F80
3F00
ENDCHAR
STARTCHAR dcroat
ENCODING 273
SWIDTH 529 0
DWIDTH 11 0
BBX 9 15 1 0
BITMAP
0300
0F80
0F80
0300
3B00
7F00
6700
C300
C300
C300
C300
C300
6700
7F00
3F00
ENDCHAR
STARTCHAR Emacron
ENCODING 274
SWIDTH 496 0
DWIDTH 10 0
BBX 7 17 2 0
BITMAP
FC
FC
00
FE
FE
80
80
80
80
FC
FC
80
80
80
80
FE
FE
ENDCHAR
STARTCHAR emacron
ENCODING 275
SWIDTH 468 0
DWIDTH 9 0
BBX 7 14 1 0
BITMAP
7E
7E
00
3C
7E
C6
C2
FE
FE
C0
C0
C2
7E
3C
ENDCHAR
STARTCHAR Ebreve
ENCODING 276
SWIDTH 496 0
DWIDTH 10 0
BBX 7 18 2 0
BITMAP
44
7C
00
00
FE
FE
80
80
80
80
FC
FC
80
80
80
80
FE
FE
ENDCHAR
STARTCHAR ebreve
ENCODING 277
SWIDTH 468 0
DWIDTH 9 0
BBX 7 15 1 0
BITMAP
66
3C
00
00
3C
7E
C6
C2
FE
FE
C0
C0
C2
7E
3C
ENDCHAR
STARTCHAR Edotaccent
ENCODING 278
SWIDTH 496 0
DWIDTH 10 0
BBX 7 17 2 0
BITMAP
30
30
00
FE
FE
80
80
80
80
FC
FC
80
80
80
80
FE
FE
ENDCHAR
STARTCHAR edotaccent
ENCODING 279
SWIDTH 468 0
DWIDTH 9 0
BBX 7 15 1 0
BITMAP
18
18
00
00
3C
7E
C6
C2
FE
FE
C0
C0
C2
7E
3C
ENDCHAR
STARTCHAR Eogonek
ENCODING 280
SWIDTH 496 0
DWIDTH 10 0
BBX 7 18 2 -4
BITMAP
FE
FE
80
80
80
80
FC
FC
80
80
80
80
FE
FE
0C
08
08
0E
ENDCHAR
STARTCHAR eogonek
ENCODING 281
SWIDTH 468 0
DWIDTH 9 0
BBX 7 15 1 -4
BITMAP
3C
7E
C6
C2
FE
FE
C0
C0
C2
7E
3C
18
10
10
1C
ENDCHAR
STARTCHAR Ecaron
ENCODING 282
SWIDTH 496 0
DWIDTH 10 0
BBX 7 18 2 0
BITMAP
4C
38
30
00
FE
FE
80
80
80
80
FC
FC
80
80
80
80
FE
FE
ENDCHAR
STARTCHAR ecaron
ENCODING 283
SWIDTH 468 0
DWIDTH 9 0
BBX 7 16 1 0
BITMAP
64
38
18
00
00
3C
7E
C6
C2
FE
FE
C0
C0
C2
7E
3C
ENDCHAR
STARTCHAR Gcircumflex
ENCODING 284
SWIDTH 590 0
DWIDTH 12 0
BBX 10 18 1 0
BITMAP
0C00
1400
3200
0000
1E00
7F00
6180
4180
C0C0
C000
C000
C7C0
C7C0
C0C0
60C0
61C0
3F80
1F00
ENDCHAR
STARTCHAR gcircumflex
ENCODING 285
SWIDTH 492 0
DWIDTH 10 0
BBX 8 20 1 -4
BITMAP
18
3C
64
00
00
3B
7F
C7
C3
C3
C3
C3
C3
C7
7F
3B
03
86
7E
3C
ENDCHAR
STARTCHAR Gbreve
ENCODING 286
SWIDTH 590 0
DWIDTH 12 0
BBX 10 18 1 0
BITMAP
3300
1E00
0000
0000
1E00
7F00
6180
4180
C0C0
C000
C000
C7C0
C7C0
C0C0
60C0
61C0
3F80
1F00
ENDCHAR
STARTCHAR gbreve
ENCODING 287
SWIDTH 492 0
DWIDTH 10 0
BBX 8 19 1 -4
BITMAP
66
3C
00
00
3B
7F
C7
C3
C3
C3
C3
C3
C7
7F
3B
03
86
7E
3C
ENDCHAR
STARTCHAR Gdotaccent
ENCODING 288
SWIDTH 590 0
DWIDTH 12 0
BBX 10 17 1 0
BITMAP
0C00
0C00
0000
1E00
7F00
6180
4180
C0C0
C000
C000
C7C0
C7C0
C0C0
60C0
61C0
3F80
1F00
ENDCHAR
STARTCHAR gdotaccent
ENCODING 289
SWIDTH 492 0
DWIDTH 10 0
BBX 8 19 1 -4
BITMAP
18
18
00
00
3B
7F
C7
C3
C3
C3
C3
C3
C7
7F
3B
03
86
7E
3C
ENDCHAR
STARTCHAR uni0122
ENCODING 290
SWIDTH 590 0
DWIDTH 12 0
BBX 10 20 1 -6
BITMAP
1E00
7F00
6180
4180
C0C0
C000
C000
C7C0
C7C0
C0C0
60C0
61C0
3F80
1F00
0000
0000
0C00
0C00
0C00
0800
ENDCHAR
STARTCHAR uni0123
ENCODING 291
SWIDTH 492 0
DWIDTH 10 0
BBX 8 21 1 -4
BITMAP
08
18
18
18
00
00
3B
7F
C7
C3
C3
C3
C3
C3
C7
7F
3B
03
86
7E
3C
ENDCHAR
STARTCHAR Hcircumflex
ENCODING 292
SWIDTH 620 0
DWIDTH 12 0
BBX 10 18 1 0
BITMAP
0C00
1E00
3300
0000
C0C0
C0C0
C0C0
C0C0
C0C0
C0C0
FFC0
FFC0
C0C0
C0C0
C0C0
C0C0
C0C0
C0C0
ENDCHAR
STARTCHAR hcircumflex
ENCODING 293
SWIDTH 482 0
DWIDTH 10 0
BBX 8 19 1 0
BITMAP
30
28
4C
00
C0
C0
C0
C0
DC
FE
E6
C3
C3
C3
C3
C3
C3
C3
C3
ENDCHAR
STARTCHAR Hbar
ENCODING 294
SWIDTH 611 0
DWIDTH 12 0
BBX 12 14 0 0
BITMAP
2060
2060
2060
FFF0
FFF0
2060
3FE0
3FE0
2060
2060
2060
2060
2060
2060
ENDCHAR
STARTCHAR hbar
ENCODING 295
SWIDTH 497 0
DWIDTH 10 0
BBX 9 15 0 0
BITMAP
2000
F800
F800
2000
2E00
3F00
3180
2180
2180
2180
2180
2180
2180
2180
2180
ENDCHAR
STARTCHAR Itilde
ENCODING 296
SWIDTH 250 0
DWIDTH 5 0
BBX 5 17 0 0
BITMAP
C8
B8
00
20
20
20
20
20
20
20
20
20
20
20
20
20
20
ENDCHAR
STARTCHAR itilde
ENCODING 297
SWIDTH 234 0
DWIDTH 5 0
BBX 6 15 -1 0
BITMAP
64
DC
00
00
30
30
30
30
30
30
30
30
30
30
30
ENDCHAR
STARTCHAR Imacron
ENCODING 298
SWIDTH 250 0
DWIDTH 5 0
BBX 5 17 0 0
BITMAP
F8
F8
00
20
20
20
20
20
20
20
20
20
20
20
20
20
20
ENDCHAR
STARTCHAR imacron
ENCODING 299
SWIDTH 234 0
DWIDTH 5 0
BBX 6 14 -1 0
BITMAP
FC
FC
00
30
30
30
30
30
30
30
30
30
30
30
ENDCHAR
STARTCHAR Ibreve
ENCODING 300
SWIDTH 250 0
DWIDTH 5 0
BBX 6 18 0 0
BITMAP
8C
78
00
00
20
20
20
20
20
20
20
20
20
20
20
20
20
20
ENDCHAR
STARTCHAR ibreve
ENCODING 301
SWIDTH 234 0
DWIDTH 5 0
BBX 6 15 0 0
BITMAP
8C
78
00
00
60
60
60
60
60
60
60
60
60
60
60
ENDCHAR
STARTCHAR Iogonek
ENCODING 302
SWIDTH 250 0
DWIDTH 5 0
BBX 3 18 0 -4
BITMAP
20
20
20
20
20
20
20
20
20
20
20
20
20
20
60
C0
C0
60
ENDCHAR
STARTCHAR iogonek
ENCODING 303
SWIDTH 229 0
DWIDTH 5 0
BBX 4 19 0 -4
BITMAP
20
30
00
00
20
20
20
20
20
20
20
20
20
20
20
40
C0
C0
60
ENDCHAR
STARTCHAR Idotaccent
ENCODING 304
SWIDTH 250 0
DWIDTH 5 0
BBX 3 17 1 0
BITMAP
40
E0
00
40
40
40
40
40
40
40
40
40
40
40
40
40
40
ENDCHAR
STARTCHAR dotlessi
ENCODING 305
SWIDTH 234 0
DWIDTH 5 0
BBX 2 11 1 0
BITMAP
C0
C0
C0
C0
C0
C0
C0
C0
C0
C0
C0
ENDCHAR
STARTCHAR IJ
ENCODING 306
SWIDTH 733 0
DWIDTH 15 0
BBX 11 14 2 0
BITMAP
8060
8060
8060
8060
8060
8060
8060
8060
8060
8060
8860
8C60
8FE0
8780
ENDCHAR
STARTCHAR ij
ENCODING 307
SWIDTH 452 0
DWIDTH 9 0
BBX 5 19 2 -4
BITMAP
88
C8
00
00
88
88
88
88
88
88
88
88
88
88
88
08
08
38
38
ENDCHAR
STARTCHAR Jcircumflex
ENCODING 308
SWIDTH 483 0
DWIDTH 10 0
BBX 9 18 1 0
BITMAP
0600
0F00
0980
0000
0600
0600
0600
0600
0600
0600
0600
0600
0600
0600
8600
C600
FE00
7800
ENDCHAR
STARTCHAR jcircumflex
ENCODING 309
SWIDTH 237 0
DWIDTH 5 0
BBX 5 20 0 -4
BITMAP
20
50
D8
00
00
20
20
20
20
20
20
20
20
20
20
20
20
60
E0
C0
ENDCHAR
STARTCHAR uni0136
ENCODING 310
SWIDTH 544 0
DWIDTH 11 0
BBX 9 19 2 -5
BITMAP
8380
8600
8600
8C00
9800
B000
B000
F800
D800
8C00
8600
8600
8300
8380
0000
1800
1800
1000
3000
ENDCHAR
STARTCHAR uni0137
ENCODING 311
SWIDTH 450 0
DWIDTH 9 0
BBX 8 20 1 -5
BITMAP
C0
C0
C0
C0
C6
CC
CC
D8
F0
F8
F8
CC
CC
C6
C3
00
10
10
10
30
ENDCHAR
STARTCHAR kgreenlandic
ENCODING 312
SWIDTH 491 0
DWIDTH 10 0
BBX 8 11 1 0
BITMAP
C7
C6
CC
D8
F0
F8
D8
CC
CE
C6
C3
ENDCHAR
STARTCHAR Lacute
ENCODING 313
SWIDTH 475 0
DWIDTH 10 0
BBX 8 18 1 0
BITMAP
30
60
C0
00
40
40
40
40
40
40
40
40
40
40
40
40
7F
7F
ENDCHAR
STARTCHAR lacute
ENCODING 314
SWIDTH 229 0
DWIDTH 5 0
BBX 4 19 1 0
BITMAP
30
60
C0
00
C0
C0
C0
C0
C0
C0
C0
C0
C0
C0
C0
C0
C0
C0
C0
ENDCHAR
STARTCHAR uni013B
ENCODING 315
SWIDTH 475 0
DWIDTH 10 0
BBX 7 19 2 -5
BITMAP
80
80
80
80
80
80
80
80
80
80
80
80
FE
FE
00
10
10
30
20
ENDCHAR
STARTCHAR uni013C
ENCODING 316
SWIDTH 229 0
DWIDTH 5 0
BBX 2 20 1 -5
BITMAP
C0
C0
C0
C0
C0
C0
C0
C0
C0
C0
C0
C0
C0
C0
C0
00
40
40
C0
80
ENDCHAR
STARTCHAR Lcaron
ENCODING 317
SWIDTH 475 0
DWIDTH 10 0
BBX 7 14 2 0
BITMAP
88
88
98
90
80
80
80
80
80
80
80
80
FE
FE
ENDCHAR
STARTCHAR lcaron
ENCODING 318
SWIDTH 302 0
DWIDTH 6 0
BBX 5 15 1 0
BITMAP
C8
C8
D8
D0
C0
C0
C0
C0
C0
C0
C0
C0
C0
C0
C0
ENDCHAR
STARTCHAR Ldot
ENCODING 319
SWIDTH 475 0
DWIDTH 10 0
BBX 7 14 2 0
BITMAP
80
80
80
80
80
80
98
98
80
80
80
80
FE
FE
ENDCHAR
STARTCHAR ldot
ENCODING 320
SWIDTH 336 0
DWIDTH 7 0
BBX 5 15 1 0
BITMAP
C0
C0
C0
C0
C0
C0
C0
D8
D8
C0
C0
C0
C0
C0
C0
ENDCHAR
STARTCHAR Lslash
ENCODING 321
SWIDTH 475 0
DWIDTH 10 0
BBX 8 14 1 0
BITMAP
40
40
40
40
40
50
F0
E0
C0
40
40
40
7F
7F
ENDCHAR
STARTCHAR lslash
ENCODING 322
SWIDTH 250 0
DWIDTH 5 0
BBX 5 15 0 0
BITMAP
20
20
20
20
20
20
38
78
E0
A0
20
20
20
20
20
ENDCHAR
STARTCHAR Nacute
ENCODING 323
SWIDTH 619 0
DWIDTH 12 0
BBX 10 18 1 0
BITMAP
0300
0600
0C00
0000
C0C0
E0C0
E0C0
F0C0
D0C0
D8C0
C8C0
CCC0
C6C0
C6C0
C3C0
C3C0
C1C0
C1C0
ENDCHAR
STARTCHAR nacute
ENCODING 324
SWIDTH 483 0
DWIDTH 10 0
BBX 8 15 1 0
BITMAP
0E
0C
18
00
DC
FE
E6
C3
C3
C3
C3
C3
C3
C3
C3
ENDCHAR
STARTCHAR uni0145
ENCODING 325
SWIDTH 619 0
DWIDTH 12 0
BBX 10 19 1 -5
BITMAP
C0C0
E0C0
E0C0
F0C0
D0C0
D8C0
C8C0
CCC0
C6C0
C6C0
C3C0
C3C0
C1C0
C1C0
0000
0C00
0C00
0C00
0800
ENDCHAR
STARTCHAR uni0146
ENCODING 326
SWIDTH 483 0
DWIDTH 10 0
BBX 8 16 1 -5
BITMAP
DC
FE
E6
C3
C3
C3
C3
C3
C3
C3
C3
00
18
18
10
30
ENDCHAR
STARTCHAR Ncaron
ENCODING 327
SWIDTH 619 0
DWIDTH 12 0
BBX 10 18 1 0
BITMAP
1300
0E00
0C00
0000
C0C0
E0C0
E0C0
F0C0
D0C0
D8C0
C8C0
CCC0
C6C0
C6C0
C3C0
C3C0
C1C0
C1C0
ENDCHAR
STARTCHAR ncaron
ENCODING 328
SWIDTH 483 0
DWIDTH 10 0
BBX 8 16 1 0
BITMAP
66
3C
18
00
00
DC
FE
E6
C3
C3
C3
C3
C3
C3
C3
C3
ENDCHAR
STARTCHAR napostrophe
ENCODING 329
SWIDTH 483 0
DWIDTH 10 0
BBX 9 15 0 0
BITMAP
C000
C000
C000
8000
6E00
7F00
7300
6180
6180
6180
6180
6180
6180
6180
6180
ENDCHAR
STARTCHAR Eng
ENCODING 330
SWIDTH 599 0
DWIDTH 12 0
BBX 10 18 1 -4
BITMAP
E0C0
E0C0
F0C0
F0C0
D8C0
D8C0
CCC0
C4C0
C6C0
C2C0
C3C0
C1C0
C1C0
C0C0
00C0
00C0
0380
0380
ENDCHAR
STARTCHAR eng
ENCODING 331
SWIDTH 498 0
DWIDTH 10 0
BBX 8 15 1 -4
BITMAP
DC
FE
E6
C3
C3
C3
C3
C3
C3
C3
C3
03
03
0E
0C
ENDCHAR
STARTCHAR Omacron
ENCODING 332
SWIDTH 600 0
DWIDTH 12 0
BBX 10 17 1 0
BITMAP
3F00
3F00
0000
1E00
3F80
6180
40C0
C0C0
C0C0
C0C0
C0C0
C0C0
C0C0
C0C0
6180
3F80
1E00
ENDCHAR
STARTCHAR omacron
ENCODING 333
SWIDTH 501 0
DWIDTH 10 0
BBX 8 14 1 0
BITMAP
7E
7E
00
3C
7E
E7
C3
C3
C3
C3
C3
E3
7E
3C
ENDCHAR
STARTCHAR Obreve
ENCODING 334
SWIDTH 600 0
DWIDTH 12 0
BBX 10 18 1 0
BITMAP
3100
1E00
0000
0000
1E00
3F80
6180
40C0
C0C0
C0C0
C0C0
C0C0
C0C0
C0C0
C0C0
6180
3F80
1E00
ENDCHAR
STARTCHAR obreve
ENCODING 335
SWIDTH 501 0
DWIDTH 10 0
BBX 8 15 1 0
BITMAP
66
3C
00
00
3C
7E
E7
C3
C3
C3
C3
C3
E3
7E
3C
ENDCHAR
STARTCHAR Ohungarumlaut
ENCODING 336
SWIDTH 600 0
DWIDTH 12 0
BBX 10 18 1 0
BITMAP
0D80
1B00
1E00
0000
1E00
3F80
6180
40C0
C0C0
C0C0
C0C0
C0C0
C0C0
C0C0
C0C0
6180
3F80
1E00
ENDCHAR
STARTCHAR ohungarumlaut
ENCODING 337
SWIDTH 501 0
DWIDTH 10 0
BBX 8 15 1 0
BITMAP
1B
36
2C
00
3C
7E
E7
C3
C3
C3
C3
C3
E3
7E
3C
ENDCHAR
STARTCHAR OE
ENCODING 338
SWIDTH 826 0
DWIDTH 17 0
BBX 14 14 1 0
BITMAP
1FFC
3FFC
6100
4100
C100
C100
C1F8
C1F8
C100
C100
4100
6100
3FFC
1FFC
ENDCHAR
STARTCHAR oe
ENCODING 339
SWIDTH 777 0
DWIDTH 16 0
BBX 14 11 1 0
BITMAP
3C70
7EF8
678C
C30C
C3FC
C3FC
C300
C380
6388
7EFC
3C78
ENDCHAR
STARTCHAR Racute
ENCODING 340
SWIDTH 530 0
DWIDTH 11 0
BBX 8 18 2 0
BITMAP
0C
18
30
00
FC
FE
C7
C3
C3
C3
C7
FE
FC
CC
C6
C6
C3
C3
ENDCHAR
STARTCHAR racute
ENCODING 341
SWIDTH 304 0
DWIDTH 6 0
BBX 6 15 1 0
BITMAP
1C
30
20
00
D8
F8
E0
C0
C0
C0
C0
C0
C0
C0
C0
ENDCHAR
STARTCHAR uni0156
ENCODING 342
SWIDTH 530 0
DWIDTH 11 0
BBX 8 19 2 -5
BITMAP
FC
FE
C7
C3
C3
C3
C7
FE
FC
CC
C6
C6
C3
C3
00
10
30
30
20
ENDCHAR
STARTCHAR uni0157
ENCODING 343
SWIDTH 304 0
DWIDTH 6 0
BBX 5 16 1 -5
BITMAP
D8
F8
E0
C0
C0
C0
C0
C0
C0
C0
C0
00
40
40
C0
80
ENDCHAR
STARTCHAR Rcaron
ENCODING 344
SWIDTH 530 0
DWIDTH 11 0
BBX 8 18 2 0
BITMAP
4C
38
30
00
FC
FE
C7
C3
C3
C3
C7
FE
FC
CC
C6
C6
C3
C3
ENDCHAR
STARTCHAR rcaron
ENCODING 345
SWIDTH 304 0
DWIDTH 6 0
BBX 5 16 1 0
BITMAP
D8
50
20
00
00
D8
F8
E0
C0
C0
C0
C0
C0
C0
C0
C0
ENDCHAR
STARTCHAR Sacute
ENCODING 346
SWIDTH 518 0
DWIDTH 10 0
BBX 8 18 1 0
BITMAP
06
0C
18
00
3C
7E
C3
C3
C1
E0
78
1E
03
83
C1
C3
7F
3E
ENDCHAR
STARTCHAR sacute
ENCODING 347
SWIDTH 455 0
DWIDTH 9 0
BBX 7 15 1 0
BITMAP
0E
0C
18
00
3C
7E
C6
C0
70
3C
0E
06
C6
FE
3C
ENDCHAR
STARTCHAR Scircumflex
ENCODING 348
SWIDTH 518 0
DWIDTH 10 0
BBX 8 18 1 0
BITMAP
18
3C
26
00
3C
7E
C3
C3
C1
E0
78
1E
03
83
C1
C3
7F
3E
ENDCHAR
STARTCHAR scircumflex
ENCODING 349
SWIDTH 455 0
DWIDTH 9 0
BBX 7 16 1 0
BITMAP
18
3C
64
00
00
3C
7E
C6
C0
70
3C
0E
06
C6
FE
3C
ENDCHAR
STARTCHAR Scedilla
ENCODING 350
SWIDTH 518 0
DWIDTH 10 0
BBX 8 18 1 -4
BITMAP
3C
7E
C3
C3
C1
E0
78
1E
03
83
C1
C3
7F
3E
08
04
04
0C
ENDCHAR
STARTCHAR scedilla
ENCODING 351
SWIDTH 455 0
DWIDTH 9 0
BBX 7 15 1 -4
BITMAP
3C
7E
C6
C0
70
3C
0E
06
C6
FE
3C
18
0C
0C
18
ENDCHAR
STARTCHAR Scaron
ENCODING 352
SWIDTH 518 0
DWIDTH 10 0
BBX 8 18 1 0
BITMAP
26
1C
18
00
3C
7E
C3
C3
C1
E0
78
1E
03
83
C1
C3
7F
3E
ENDCHAR
STARTCHAR scaron
ENCODING 353
SWIDTH 455 0
DWIDTH 9 0
BBX 7 16 1 0
BITMAP
66
3C
18
00
00
3C
7E
C6
C0
70
3C
0E
06
C6
FE
3C
ENDCHAR
STARTCHAR uni0162
ENCODING 354
SWIDTH 520 0
DWIDTH 10 0
BBX 9 18 1 -4
BITMAP
FF80
FF80
1800
1800
1800
1800
1800
1800
1800
1800
1800
1800
1800
1800
0800
0400
0400
0C00
ENDCHAR
STARTCHAR uni0163
ENCODING 355
SWIDTH 295 0
DWIDTH 6 0
BBX 6 18 0 -4
BITMAP
30
30
30
F8
F8
30
30
30
30
30
30
30
38
18
08
1C
04
18
ENDCHAR
STARTCHAR Tcaron
ENCODING 356
SWIDTH 520 0
DWIDTH 10 0
BBX 9 18 1 0
BITMAP
2600
1C00
1800
0000
FF80
FF80
1800
1800
1800
1800
1800
1800
1800
1800
1800
1800
1800
1800
ENDCHAR
STARTCHAR tcaron
ENCODING 357
SWIDTH 314 0
DWIDTH 6 0
BBX 7 16 0 0
BITMAP
06
06
34
3C
30
F8
F8
30
30
30
30
30
30
30
38
18
ENDCHAR
STARTCHAR Tbar
ENCODING 358
SWIDTH 520 0
DWIDTH 10 0
BBX 9 14 1 0
BITMAP
FF80
FF80
1800
1800
1800
3E00
3E00
1800
1800
1800
1800
1800
1800
1800
ENDCHAR
STARTCHAR tbar
ENCODING 359
SWIDTH 295 0
DWIDTH 6 0
BBX 5 14 0 0
BITMAP
30
30
30
F8
F8
30
F8
F8
30
30
30
30
38
18
ENDCHAR
STARTCHAR Utilde
ENCODING 360
SWIDTH 561 0
DWIDTH 11 0
BBX 9 17 1 0
BITMAP
3B00
2600
0000
C180
C180
C180
C180
C180
C180
C180
C180
C180
C180
C180
E380
7F00
3E00
ENDCHAR
STARTCHAR utilde
ENCODING 361
SWIDTH 483 0
DWIDTH 10 0
BBX 8 15 1 0
BITMAP
72
4C
00
00
C3
C3
C3
C3
C3
C3
C3
C3
67
7F
3B
ENDCHAR
STARTCHAR Umacron
ENCODING 362
SWIDTH 561 0
DWIDTH 11 0
BBX 9 17 1 0
BITMAP
3E00
3E00
0000
C180
C180
C180
C180
C180
C180
C180
C180
C180
C180
C180
E380
7F00
3E00
ENDCHAR
STARTCHAR umacron
ENCODING 363
SWIDTH 483 0
DWIDTH 10 0
BBX 8 14 1 0
BITMAP
7E
7E
00
C3
C3
C3
C3
C3
C3
C3
C3
67
7F
3B
ENDCHAR
STARTCHAR Ubreve
ENCODING 364
SWIDTH 561 0
DWIDTH 11 0
BBX 9 18 1 0
BITMAP
3300
1E00
0000
0000
C180
C180
C180
C180
C180
C180
C180
C180
C180
C180
C180
E380
7F00
3E00
ENDCHAR
STARTCHAR ubreve
ENCODING 365
SWIDTH 483 0
DWIDTH 10 0
BBX 8 15 1 0
BITMAP
66
3C
00
00
C3
C3
C3
C3
C3
C3
C3
C3
67
7F
3B
ENDCHAR
STARTCHAR Uring
ENCODING 366
SWIDTH 561 0
DWIDTH 11 0
BBX 9 19 1 0
BITMAP
1C00
1200
1200
1C00
0000
C180
C180
C180
C180
C180
C180
C180
C180
C180
C180
C180
E380
7F00
3E00
ENDCHAR
STARTCHAR uring
ENCODING 367
SWIDTH 483 0
DWIDTH 10 0
BBX 8 16 1 0
BITMAP
18
24
24
18
00
C3
C3
C3
C3
C3
C3
C3
C3
67
7F
3B
ENDCHAR
STARTCHAR Uhungarumlaut
ENCODING 368
SWIDTH 561 0
DWIDTH 11 0
BBX 9 18 1 0
BITMAP
0F80
1A00
3600
0000
C180
C180
C180
C180
C180
C180
C180
C180
C180
C180
C180
E380
7F00
3E00
ENDCHAR
STARTCHAR uhungarumlaut
ENCODING 369
SWIDTH 483 0
DWIDTH 10 0
BBX 8 15 1 0
BITMAP
1F
36
2C
00
C3
C3
C3
C3
C3
C3
C3
C3
67
7F
3B
ENDCHAR
STARTCHAR Uogonek
ENCODING 370
SWIDTH 561 0
DWIDTH 11 0
BBX 9 18 1 -4
BITMAP
C180
C180
C180
C180
C180
C180
C180
C180
C180
C180
C180
E380
7F00
3E00
0C00
0800
0800
0E00
ENDCHAR
STARTCHAR uogonek
ENCODING 371
SWIDTH 483 0
DWIDTH 10 0
BBX 8 15 1 -4
BITMAP
C3
C3
C3
C3
C3
C3
C3
C3
67
7F
3B
06
04
04
07
ENDCHAR
STARTCHAR Wcircumflex
ENCODING 372
SWIDTH 761 0
DWIDTH 15 0
BBX 14 18 1 0
BITMAP
0300
0780
0C80
0000
C30C
C308
C718
C718
4518
4598
6C90
6C90
68B0
28F0
28F0
3860
3860
3060
ENDCHAR
STARTCHAR wcircumflex
ENCODING 373
SWIDTH 649 0
DWIDTH 13 0
BBX 12 16 0 0
BITMAP
0200
0500
0D80
0000
0000
C210
6730
6730
6530
2520
2DA0
3DE0
38E0
38C0
18C0
18C0
ENDCHAR
STARTCHAR Ycircumflex
ENCODING 374
SWIDTH 524 0
DWIDTH 10 0
BBX 10 18 0 0
BITMAP
0C00
1E00
1300
0000
E0C0
6080
6180
3180
3300
1B00
1E00
0E00
0C00
0C00
0C00
0C00
0C00
0C00
ENDCHAR
STARTCHAR ycircumflex
ENCODING 375
SWIDTH 416 0
DWIDTH 8 0
BBX 8 20 0 -4
BITMAP
18
14
26
00
00
C3
42
66
66
24
24
3C
3C
18
18
18
18
30
70
60
ENDCHAR
STARTCHAR Ydieresis
ENCODING 376
SWIDTH 524 0
DWIDTH 10 0
BBX 10 17 0 0
BITMAP
3300
3300
0000
E0C0
6080
6180
3180
3300
1B00
1E00
0E00
0C00
0C00
0C00
0C00
0C00
0C00
ENDCHAR
STARTCHAR Zacute
ENCODING 377
SWIDTH 522 0
DWIDTH 10 0
BBX 9 18 1 0
BITMAP
0600
0C00
1800
0000
FF00
FF00
0300
0600
0600
0C00
1800
1800
3000
2000
6000
C000
FF80
FF80
ENDCHAR
STARTCHAR zacute
ENCODING 378
SWIDTH 438 0
DWIDTH 9 0
BBX 7 15 1 0
BITMAP
0E
18
30
00
FE
FE
0C
0C
18
30
30
60
C0
FE
FE
ENDCHAR
STARTCHAR Zdotaccent
ENCODING 379
SWIDTH 522 0
DWIDTH 10 0
BBX 9 17 1 0
BITMAP
1800
1800
0000
FF00
FF00
0300
0600
0600
0C00
1800
1800
3000
2000
6000
C000
FF80
FF80
ENDCHAR
STARTCHAR zdotaccent
ENCODING 380
SWIDTH 438 0
DWIDTH 9 0
BBX 7 15 1 0
BITMAP
10
38
00
00
FE
FE
0C
0C
18
30
30
60
C0
FE
FE
ENDCHAR
STARTCHAR Zcaron
ENCODING 381
SWIDTH 522 0
DWIDTH 10 0
BBX 9 18 1 0
BITMAP
2600
1C00
1800
0000
FF00
FF00
0300
0600
0600
0C00
1800
1800
3000
2000
6000
C000
FF80
FF80
ENDCHAR
STARTCHAR zcaron
ENCODING 382
SWIDTH 438 0
DWIDTH 9 0
BBX 7 16 1 0
BITMAP
6C
28
10
00
00
FE
FE
0C
0C
18
30
30
60
C0
FE
FE
ENDCHAR
STARTCHAR longs
ENCODING 383
SWIDTH 234 0
DWIDTH 5 0
BBX 4 15 2 0
BITMAP
70
F0
C0
80
80
80
80
80
80
80
80
80
80
80
80
ENDCHAR
STARTCHAR uni018F
ENCODING 399
SWIDTH 597 0
DWIDTH 12 0
BBX 10 14 1 0
BITMAP
3E00
7F00
4380
0180
00C0
00C0
00C0
FFC0
FFC0
C0C0
C080
6180
7F00
3E00
ENDCHAR
STARTCHAR florin
ENCODING 402
SWIDTH 309 0
DWIDTH 6 0
BBX 6 19 0 -4
BITMAP
1C
3C
30
30
F8
30
30
30
30
30
30
30
30
30
30
30
20
E0
C0
ENDCHAR
STARTCHAR Ohorn
ENCODING 416
SWIDTH 592 0
DWIDTH 12 0
BBX 11 16 1 0
BITMAP
0060
0060
1E60
3FC0
6380
C180
C0C0
C0C0
C0C0
C0C0
C0C0
C080
C180
6180
3F00
1E00
ENDCHAR
STARTCHAR ohorn
ENCODING 417
SWIDTH 502 0
DWIDTH 10 0
BBX 9 12 1 0
BITMAP
0080
3C80
7F00
E700
C300
C300
C300
C300
C300
E600
7E00
3C00
ENDCHAR
STARTCHAR Uhorn
ENCODING 431
SWIDTH 608 0
DWIDTH 12 0
BBX 12 15 1 0
BITMAP
0010
C190
C1B0
C1E0
C180
C180
C180
C180
C180
C180
C180
C180
6380
7F00
3E00
ENDCHAR
STARTCHAR uhorn
ENCODING 432
SWIDTH 549 0
DWIDTH 11 0
BBX 10 12 1 0
BITMAP
0040
C2C0
C380
C200
C200
C200
C200
C200
C200
C600
7E00
3A00
ENDCHAR
STARTCHAR uni01F0
ENCODING 496
SWIDTH 237 0
DWIDTH 5 0
BBX 5 20 0 -4
BITMAP
D8
50
20
00
00
20
20
20
20
20
20
20
20
20
20
20
20
60
E0
C0
ENDCHAR
STARTCHAR Aringacute
ENCODING 506
SWIDTH 576 0
DWIDTH 12 0
BBX 10 19 1 0
BITMAP
0600
0C00
0C00
1400
0C00
0C00
0C00
1E00
1E00
1200
3300
3300
3300
6180
7F80
7F80
C0C0
C0C0
C0C0
ENDCHAR
STARTCHAR aringacute
ENCODING 507
SWIDTH 479 0
DWIDTH 10 0
BBX 8 16 1 0
BITMAP
0E
08
18
28
18
3C
7E
46
82
3E
7E
E2
C2
C6
7E
3B
ENDCHAR
STARTCHAR AEacute
ENCODING 508
SWIDTH 812 0
DWIDTH 16 0
BBX 16 18 0 0
BITMAP
00E0
00C0
0180
0000
01FE
03FE
03C0
06C0
06C0
0CC0
0CFE
18FE
18C0
3FC0
3FC0
60C0
60FF
C0FF
ENDCHAR
STARTCHAR aeacute
ENCODING 509
SWIDTH 728 0
DWIDTH 15 0
BBX 13 15 1 0
BITMAP
0180
0300
0600
0000
3CE0
7FF0
C718
0618
3FF8
7FF8
C600
C600
C710
FDF8
78F0
ENDCHAR
STARTCHAR Oslashacute
ENCODING 510
SWIDTH 600 0
DWIDTH 12 0
BBX 10 19 1 -1
BITMAP
0300
0600
0C00
0000
1EC0
3F80
6180
6180
C2C0
C2C0
C4C0
CCC0
C8C0
D8C0
5180
7180
3F00
5E00
4000
ENDCHAR
STARTCHAR oslashacute
ENCODING 511
SWIDTH 498 0
DWIDTH 10 0
BBX 8 16 1 -1
BITMAP
0E
18
18
02
3E
7E
67
CB
CB
CB
D3
D3
E7
7E
7C
40
ENDCHAR
STARTCHAR uni0218
ENCODING 536
SWIDTH 518 0
DWIDTH 10 0
BBX 8 19 1 -5
BITMAP
3C
7E
C3
C3
C1
E0
78
1E
03
83
C1
C3
7F
3E
00
08
08
18
10
ENDCHAR
STARTCHAR uni0219
ENCODING 537
SWIDTH 455 0
DWIDTH 9 0
BBX 7 17 1 -6
BITMAP
3C
7E
C6
C0
70
3C
0E
06
C6
FE
3C
00
00
18
18
18
10
ENDCHAR
STARTCHAR uni021A
ENCODING 538
SWIDTH 520 0
DWIDTH 10 0
BBX 9 19 1 -5
BITMAP
FF80
FF80
1800
1800
1800
1800
1800
1800
1800
1800
1800
1800
1800
1800
0000
0800
1800
1800
1000
ENDCHAR
STARTCHAR uni021B
ENCODING 539
SWIDTH 295 0
DWIDTH 6 0
BBX 5 19 0 -5
BITMAP
30
30
30
F8
F8
30
30
30
30
30
30
30
38
18
00
18
18
18
10
ENDCHAR
STARTCHAR uni0237
ENCODING 567
SWIDTH 237 0
DWIDTH 5 0
BBX 3 15 0 -4
BITMAP
20
20
20
20
20
20
20
20
20
20
20
20
60
E0
C0
ENDCHAR
STARTCHAR uni0259
ENCODING 601
SWIDTH 465 0
DWIDTH 9 0
BBX 7 11 1 0
BITMAP
78
FC
86
06
02
FE
FE
C6
C6
7C
38
ENDCHAR
STARTCHAR uni02BC
ENCODING 700
SWIDTH 194 0
DWIDTH 4 0
BBX 2 5 1 10
BITMAP
C0
C0
C0
C0
80
ENDCHAR
STARTCHAR circumflex
ENCODING 710
SWIDTH 428 0
DWIDTH 9 0
BBX 5 3 2 12
BITMAP
60
F0
98
ENDCHAR
STARTCHAR caron
ENCODING 711
SWIDTH 403 0
DWIDTH 8 0
BBX 6 3 1 12
BITMAP
CC
78
30
ENDCHAR
STARTCHAR uni02C9
ENCODING 713
SWIDTH 414 0
DWIDTH 8 0
BBX 6 1 1 12
BITMAP
FC
ENDCHAR
STARTCHAR breve
ENCODING 728
SWIDTH 426 0
DWIDTH 9 0
BBX 6 2 1 13
BITMAP
C4
78
ENDCHAR
STARTCHAR dotaccent
ENCODING 729
SWIDTH 242 0
DWIDTH 5 0
BBX 3 2 1 12
BITMAP
40
E0
ENDCHAR
STARTCHAR ring
ENCODING 730
SWIDTH 334 0
DWIDTH 7 0
BBX 5 4 1 12
BITMAP
70
90
98
70
ENDCHAR
STARTCHAR ogonek
ENCODING 731
SWIDTH 253 0
DWIDTH 5 0
BBX 3 5 1 -4
BITMAP
40
C0
80
80
E0
ENDCHAR
STARTCHAR tilde
ENCODING 732
SWIDTH 427 0
DWIDTH 9 0
BBX 6 2 1 12
BITMAP
64
9C
ENDCHAR
STARTCHAR hungarumlaut
ENCODING 733
SWIDTH 331 0
DWIDTH 7 0
BBX 6 3 1 12
BITMAP
6C
D8
F0
ENDCHAR
STARTCHAR uni02F3
ENCODING 755
SWIDTH 263 0
DWIDTH 5 0
BBX 3 3 1 -4
BITMAP
60
A0
E0
ENDCHAR
STARTCHAR gravecomb
ENCODING 768
SWIDTH 0 0
DWIDTH 0 0
BBX 4 3 -7 12
BITMAP
C0
60
30
ENDCHAR
STARTCHAR acutecomb
ENCODING 769
SWIDTH 0 0
DWIDTH 0 0
BBX 3 3 -5 12
BITMAP
60
C0
80
ENDCHAR
STARTCHAR tildecomb
ENCODING 771
SWIDTH 0 0
DWIDTH 0 0
BBX 6 2 -7 12
BITMAP
EC
98
ENDCHAR
STARTCHAR hookabovecomb
ENCODING 777
SWIDTH 0 0
DWIDTH 0 0
BBX 2 4 -5 12
BITMAP
C0
40
C0
80
ENDCHAR
STARTCHAR uni030F
ENCODING 783
SWIDTH 0 0
DWIDTH 0 0
BBX 6 3 -8 12
BITMAP
F8
6C
34
ENDCHAR
STARTCHAR dotbelowcomb
ENCODING 803
SWIDTH 0 0
DWIDTH 0 0
BBX 2 2 -7 -3
BITMAP
C0
C0
ENDCHAR
STARTCHAR tonos
ENCODING 900
SWIDTH 256 0
DWIDTH 5 0
BBX 2 3 2 12
BITMAP
C0
80
80
ENDCHAR
STARTCHAR dieresistonos
ENCODING 901
SWIDTH 452 0
DWIDTH 9 0
BBX 7 4 1 12
BITMAP
18
10
D6
C6
ENDCHAR
STARTCHAR Alphatonos
ENCODING 902
SWIDTH 576 0
DWIDTH 12 0
BBX 10 15 1 0
BITMAP
6000
4C00
4C00
1E00
1E00
1200
3300
3300
3300
6180
7F80
7F80
C0C0
C0C0
C0C0
ENDCHAR
STARTCHAR anoteleia
ENCODING 903
SWIDTH 243 0
DWIDTH 5 0
BBX 3 2 1 6
BITMAP
40
E0
ENDCHAR
STARTCHAR Epsilontonos
ENCODING 904
SWIDTH 496 0
DWIDTH 10 0
BBX 11 15 -2 0
BITMAP
4000
CFE0
8FE0
0800
0800
0800
0800
0FC0
0FC0
0800
0800
0800
0800
0FE0
0FE0
ENDCHAR
STARTCHAR Etatonos
ENCODING 905
SWIDTH 620 0
DWIDTH 12 0
BBX 13 15 -2 0
BITMAP
6000
5818
D818
1818
1818
1818
1818
1FF8
1FF8
1818
1818
1818
1818
1818
1818
ENDCHAR
STARTCHAR Iotatonos
ENCODING 906
SWIDTH 250 0
DWIDTH 5 0
BBX 5 15 -2 0
BITMAP
60
48
C8
08
08
08
08
08
08
08
08
08
08
08
08
ENDCHAR
STARTCHAR Omicrontonos
ENCODING 908
SWIDTH 610 0
DWIDTH 12 0
BBX 11 15 0 0
BITMAP
C000
8F00
9FC0
30C0
3060
2060
6060
6060
6060
6060
6060
3060
30C0
1FC0
0F80
ENDCHAR
STARTCHAR Upsilontonos
ENCODING 910
SWIDTH 573 0
DWIDTH 11 0
BBX 13 15 -2 0
BITMAP
C000
DC18
8C10
0C30
0630
0660
0360
03C0
01C0
0180
0180
0180
0180
0180
0180
ENDCHAR
STARTCHAR Omegatonos
ENCODING 911
SWIDTH 591 0
DWIDTH 12 0
BBX 11 15 0 0
BITMAP
C000
8F00
9F80
38C0
30C0
2060
6060
6060
6060
2060
2040
3040
1080
3DE0
3DE0
ENDCHAR
STARTCHAR iotadieresistonos
ENCODING 912
SWIDTH 299 0
DWIDTH 6 0
BBX 7 17 -1 0
BITMAP
18
18
D6
C6
00
00
18
18
18
18
18
18
18
18
18
1C
0C
ENDCHAR
STARTCHAR Alpha
ENCODING 913
SWIDTH 576 0
DWIDTH 12 0
BBX 10 14 1 0
BITMAP
0C00
0C00
1E00
1E00
1200
3300
3300
3300
6180
7F80
7F80
C0C0
C0C0
C0C0
ENDCHAR
STARTCHAR Beta
ENCODING 914
SWIDTH 545 0
DWIDTH 11 0
BBX 8 14 2 0
BITMAP
FC
FE
86
82
83
86
FC
FE
86
83
83
87
FE
FC
ENDCHAR
STARTCHAR Gamma
ENCODING 915
SWIDTH 487 0
DWIDTH 10 0
BBX 7 14 2 0
BITMAP
FE
FE
80
80
80
80
80
80
80
80
80
80
80
80
ENDCHAR
STARTCHAR Delta.dup1
ENCODING 916
SWIDTH 614 0
DWIDTH 12 0
BBX 12 14 0 0
BITMAP
0600
0700
0700
0D00
0D80
1980
1880
10C0
30C0
3040
2060
6060
7FE0
FFF0
ENDCHAR
STARTCHAR Epsilon
ENCODING 917
SWIDTH 496 0
DWIDTH 10 0
BBX 7 14 2 0
BITMAP
FE
FE
80
80
80
80
FC
FC
80
80
80
80
FE
FE
ENDCHAR
STARTCHAR Zeta
ENCODING 918
SWIDTH 522 0
DWIDTH 10 0
BBX 9 14 1 0
BITMAP
FF00
FF00
0300
0600
0600
0C00
1800
1800
3000
2000
6000
C000
FF80
FF80
ENDCHAR
STARTCHAR Eta
ENCODING 919
SWIDTH 620 0
DWIDTH 12 0
BBX 10 14 1 0
BITMAP
C0C0
C0C0
C0C0
C0C0
C0C0
C0C0
FFC0
FFC0
C0C0
C0C0
C0C0
C0C0
C0C0
C0C0
ENDCHAR
STARTCHAR Theta
ENCODING 920
SWIDTH 593 0
DWIDTH 12 0
BBX 10 14 1 0
BITMAP
1E00
3F00
6180
4180
C0C0
C0C0
DEC0
DEC0
C0C0
C0C0
6180
6180
3F00
1E00
ENDCHAR
STARTCHAR Iota
ENCODING 921
SWIDTH 250 0
DWIDTH 5 0
BBX 1 14 2 0
BITMAP
80
80
80
80
80
80
80
80
80
80
80
80
80
80
ENDCHAR
STARTCHAR Kappa
ENCODING 922
SWIDTH 544 0
DWIDTH 11 0
BBX 9 14 2 0
BITMAP
8380
8600
8600
8C00
9800
B000
B000
F800
D800
8C00
8600
8600
8300
8380
ENDCHAR
STARTCHAR Lambda
ENCODING 923
SWIDTH 572 0
DWIDTH 11 0
BBX 10 14 1 0
BITMAP
0C00
1C00
1C00
1E00
3600
3600
3200
2300
6300
6100
4180
C180
C180
C0C0
ENDCHAR
STARTCHAR Mu
ENCODING 924
SWIDTH 755 0
DWIDTH 15 0
BBX 12 14 2 0
BITMAP
C070
C070
E0F0
E0F0
A0B0
B1B0
B1B0
9130
9B30
9B30
8A30
8E30
8E30
8430
ENDCHAR
STARTCHAR Nu
ENCODING 925
SWIDTH 619 0
DWIDTH 12 0
BBX 10 14 1 0
BITMAP
C0C0
E0C0
E0C0
F0C0
D0C0
D8C0
C8C0
CCC0
C6C0
C6C0
C3C0
C3C0
C1C0
C1C0
ENDCHAR
STARTCHAR Xi
ENCODING 926
SWIDTH 502 0
DWIDTH 10 0
BBX 8 14 1 0
BITMAP
FF
FF
00
00
00
00
7E
7E
00
00
00
00
FF
FF
ENDCHAR
STARTCHAR Omicron
ENCODING 927
SWIDTH 600 0
DWIDTH 12 0
BBX 10 14 1 0
BITMAP
1E00
3F80
6180
40C0
C0C0
C0C0
C0C0
C0C0
C0C0
C0C0
C0C0
6180
3F80
1E00
ENDCHAR
STARTCHAR Pi
ENCODING 928
SWIDTH 620 0
DWIDTH 12 0
BBX 9 14 2 0
BITMAP
FF80
FF80
8180
8180
8180
8180
8180
8180
8180
8180
8180
8180
8180
8180
ENDCHAR
STARTCHAR Rho
ENCODING 929
SWIDTH 554 0
DWIDTH 11 0
BBX 9 14 1 0
BITMAP
FE00
FF00
C180
C180
C180
C180
C180
FF00
FE00
C000
C000
C000
C000
C000
ENDCHAR
STARTCHAR Sigma
ENCODING 931
SWIDTH 502 0
DWIDTH 10 0
BBX 8 14 1 0
BITMAP
FF
FF
C0
60
30
18
18
1C
30
30
60
C0
FF
FF
ENDCHAR
STARTCHAR Tau
ENCODING 932
SWIDTH 520 0
DWIDTH 10 0
BBX 9 14 1 0
BITMAP
FF80
FF80
1800
1800
1800
1800
1800
1800
1800
1800
1800
1800
1800
1800
ENDCHAR
STARTCHAR Upsilon
ENCODING 933
SWIDTH 524 0
DWIDTH 10 0
BBX 10 14 0 0
BITMAP
E0C0
6080
6180
3180
3300
1B00
1E00
0E00
0C00
0C00
0C00
0C00
0C00
0C00
ENDCHAR
STARTCHAR Phi
ENCODING 934
SWIDTH 621 0
DWIDTH 12 0
BBX 11 14 1 0
BITMAP
0C00
0C00
3F00
7F80
ECC0
CCC0
8C40
8C60
8C40
CCC0
ECC0
7F80
3F00
0C00
ENDCHAR
STARTCHAR Chi
ENCODING 935
SWIDTH 550 0
DWIDTH 11 0
BBX 9 14 1 0
BITMAP
C180
6300
6300
3200
3600
1400
1C00
1C00
1400
3600
2300
6300
E180
C180
ENDCHAR
STARTCHAR Psi
ENCODING 936
SWIDTH 600 0
DWIDTH 12 0
BBX 10 14 1 0
BITMAP
CCC0
CCC0
CCC0
CCC0
CCC0
CCC0
CCC0
CCC0
6D80
7F80
3E00
0C00
0C00
0C00
ENDCHAR
STARTCHAR Omega.dup2
ENCODING 937
SWIDTH 581 0
DWIDTH 12 0
BBX 10 14 1 0
BITMAP
1E00
3F00
6380
6180
C080
C0C0
C0C0
C0C0
C080
4080
6180
2100
F380
F780
ENDCHAR
STARTCHAR Iotadieresis
ENCODING 938
SWIDTH 250 0
DWIDTH 5 0
BBX 7 17 -1 0
BITMAP
C6
E6
00
10
10
10
10
10
10
10
10
10
10
10
10
10
10
ENDCHAR
STARTCHAR Upsilondieresis
ENCODING 939
SWIDTH 524 0
DWIDTH 10 0
BBX 10 17 0 0
BITMAP
3300
3300
0000
E0C0
6080
6180
3180
3300
1B00
1E00
0E00
0C00
0C00
0C00
0C00
0C00
0C00
ENDCHAR
STARTCHAR alphatonos
ENCODING 940
SWIDTH 494 0
DWIDTH 10 0
BBX 9 16 1 0
BITMAP
0C00
0800
0800
0000
0000
3B00
7F00
6700
C300
C300
C300
C300
C300
E700
7F00
3B80
ENDCHAR
STARTCHAR epsilontonos
ENCODING 941
SWIDTH 470 0
DWIDTH 9 0
BBX 7 16 1 0
BITMAP
18
18
10
00
00
7C
FE
C6
C0
78
78
C0
C0
C6
FE
7C
ENDCHAR
STARTCHAR etatonos
ENCODING 942
SWIDTH 498 0
DWIDTH 10 0
BBX 8 20 1 -4
BITMAP
0C
18
18
00
00
DC
FE
E6
C3
C3
C3
C3
C3
C3
C3
C3
03
03
03
03
ENDCHAR
STARTCHAR iotatonos
ENCODING 943
SWIDTH 299 0
DWIDTH 6 0
BBX 3 16 2 0
BITMAP
40
C0
80
00
00
C0
C0
C0
C0
C0
C0
C0
C0
C0
E0
60
ENDCHAR
STARTCHAR upsilondieresistonos
ENCODING 944
SWIDTH 480 0
DWIDTH 10 0
BBX 8 17 1 0
BITMAP
18
18
D6
C6
00
00
46
42
43
43
43
43
43
43
66
7E
3C
ENDCHAR
STARTCHAR alpha
ENCODING 945
SWIDTH 494 0
DWIDTH 10 0
BBX 9 11 1 0
BITMAP
3B00
7F00
6700
C300
C300
C300
C300
C300
E700
7F00
3B80
ENDCHAR
STARTCHAR beta
ENCODING 946
SWIDTH 517 0
DWIDTH 10 0
BBX 8 18 1 -4
BITMAP
3C
7E
66
C3
C3
C6
DE
DE
C3
C3
C3
C3
FE
FC
C0
C0
C0
C0
ENDCHAR
STARTCHAR gamma
ENCODING 947
SWIDTH 444 0
DWIDTH 9 0
BBX 7 15 1 -4
BITMAP
C2
C6
C6
44
6C
6C
2C
38
38
18
10
10
10
10
10
ENDCHAR
STARTCHAR delta
ENCODING 948
SWIDTH 498 0
DWIDTH 10 0
BBX 8 15 1 0
BITMAP
3C
7C
64
60
38
3C
66
C3
C3
C3
C3
C3
67
7E
3C
ENDCHAR
STARTCHAR epsilon
ENCODING 949
SWIDTH 470 0
DWIDTH 9 0
BBX 7 11 1 0
BITMAP
7C
FE
C6
C0
78
78
C0
C0
C6
FE
7C
ENDCHAR
STARTCHAR zeta
ENCODING 950
SWIDTH 462 0
DWIDTH 9 0
BBX 7 18 1 -4
BITMAP
FE
FE
06
0C
18
10
30
60
60
40
40
60
78
3C
0E
06
04
0C
ENDCHAR
STARTCHAR eta
ENCODING 951
SWIDTH 498 0
DWIDTH 10 0
BBX 8 15 1 -4
BITMAP
DC
FE
E6
C3
C3
C3
C3
C3
C3
C3
C3
03
03
03
03
ENDCHAR
STARTCHAR theta
ENCODING 952
SWIDTH 496 0
DWIDTH 10 0
BBX 8 14 1 0
BITMAP
3C
7E
66
C3
C3
C3
FF
FF
C3
C3
C3
66
7E
3C
ENDCHAR
STARTCHAR iota
ENCODING 953
SWIDTH 299 0
DWIDTH 6 0
BBX 3 11 2 0
BITMAP
C0
C0
C0
C0
C0
C0
C0
C0
C0
E0
60
ENDCHAR
STARTCHAR kappa
ENCODING 954
SWIDTH 491 0
DWIDTH 10 0
BBX 8 11 1 0
BITMAP
C7
C6
CC
D8
F0
F8
D8
CC
CE
C6
C3
ENDCHAR
STARTCHAR lambda
ENCODING 955
SWIDTH 485 0
DWIDTH 10 0
BBX 8 15 1 0
BITMAP
60
60
30
30
38
18
38
3C
2C
6C
66
46
C6
C3
C3
ENDCHAR
STARTCHAR uni03BC
ENCODING 956
SWIDTH 498 0
DWIDTH 10 0
BBX 8 15 1 -4
BITMAP
C3
C3
C3
C3
C3
C3
C3
C3
E7
FF
FB
C0
C0
C0
C0
ENDCHAR
STARTCHAR nu
ENCODING 957
SWIDTH 427 0
DWIDTH 9 0
BBX 7 11 1 0
BITMAP
C6
C6
C6
44
6C
6C
28
28
38
38
10
ENDCHAR
STARTCHAR xi
ENCODING 958
SWIDTH 431 0
DWIDTH 9 0
BBX 7 18 1 -4
BITMAP
3E
7E
60
40
60
3C
3C
60
C0
C0
C0
C0
70
3E
0E
06
06
04
ENDCHAR
STARTCHAR omicron
ENCODING 959
SWIDTH 501 0
DWIDTH 10 0
BBX 8 11 1 0
BITMAP
3C
7E
E7
C3
C3
C3
C3
C3
E3
7E
3C
ENDCHAR
STARTCHAR pi
ENCODING 960
SWIDTH 520 0
DWIDTH 10 0
BBX 10 11 0 0
BITMAP
FF80
FF80
2300
2300
2300
2300
2300
2300
2300
21C0
21C0
ENDCHAR
STARTCHAR rho
ENCODING 961
SWIDTH 498 0
DWIDTH 10 0
BBX 8 15 1 -4
BITMAP
3C
7E
66
43
C3
C3
C3
C3
E7
FE
DC
C0
C0
C0
C0
ENDCHAR
STARTCHAR sigma1
ENCODING 962
SWIDTH 472 0
DWIDTH 9 0
BBX 7 15 1 -4
BITMAP
38
7C
C6
C6
C0
80
C0
C0
E0
78
3C
06
06
04
0C
ENDCHAR
STARTCHAR sigma
ENCODING 963
SWIDTH 498 0
DWIDTH 10 0
BBX 9 11 1 0
BITMAP
3F80
7F80
6600
C300
C300
C300
C300
C300
6700
7E00
3C00
ENDCHAR
STARTCHAR tau
ENCODING 964
SWIDTH 460 0
DWIDTH 9 0
BBX 7 11 1 0
BITMAP
FE
FE
10
10
10
10
10
10
10
1C
1C
ENDCHAR
STARTCHAR upsilon
ENCODING 965
SWIDTH 480 0
DWIDTH 10 0
BBX 7 11 2 0
BITMAP
8C
84
86
86
86
86
86
86
CC
FC
78
ENDCHAR
STARTCHAR phi
ENCODING 966
SWIDTH 617 0
DWIDTH 12 0
BBX 10 16 1 -5
BITMAP
4700
EF80
CCC0
CCC0
8C40
8C40
CCC0
CCC0
EDC0
7F80
3F00
0C00
0C00
0C00
0C00
0C00
ENDCHAR
STARTCHAR chi
ENCODING 967
SWIDTH 438 0
DWIDTH 9 0
BBX 8 15 1 -4
BITMAP
C6
C6
64
6C
3C
38
18
18
38
38
2C
6C
66
C7
C3
ENDCHAR
STARTCHAR psi
ENCODING 968
SWIDTH 612 0
DWIDTH 12 0
BBX 10 16 1 -5
BITMAP
8CC0
8CC0
8CC0
8CC0
8C40
CC40
CCC0
CCC0
EDC0
7F80
3F00
0C00
0C00
0C00
0C00
0C00
ENDCHAR
STARTCHAR omega
ENCODING 969
SWIDTH 711 0
DWIDTH 14 0
BBX 12 11 1 0
BITMAP
6060
4020
C030
C630
C630
C630
C630
C630
CE20
79E0
39C0
ENDCHAR
STARTCHAR iotadieresis
ENCODING 970
SWIDTH 299 0
DWIDTH 6 0
BBX 6 15 0 0
BITMAP
CC
CC
00
00
30
30
30
30
30
30
30
30
30
38
18
ENDCHAR
STARTCHAR upsilondieresis
ENCODING 971
SWIDTH 480 0
DWIDTH 10 0
BBX 7 15 2 0
BITMAP
CC
CC
00
00
8C
84
86
86
86
86
86
86
CC
FC
78
ENDCHAR
STARTCHAR omicrontonos
ENCODING 972
SWIDTH 501 0
DWIDTH 10 0
BBX 8 16 1 0
BITMAP
08
18
18
00
00
3C
7E
E7
C3
C3
C3
C3
C3
E3
7E
3C
ENDCHAR
STARTCHAR upsilontonos
ENCODING 973
SWIDTH 480 0
DWIDTH 10 0
BBX 7 16 2 0
BITMAP
30
30
20
00
00
8C
84
86
86
86
86
86
86
CC
FC
78
ENDCHAR
STARTCHAR omegatonos
ENCODING 974
SWIDTH 711 0
DWIDTH 14 0
BBX 12 16 1 0
BITMAP
0300
0200
0600
0000
0000
6060
4020
C030
C630
C630
C630
C630
C630
CE20
79E0
39C0
ENDCHAR
STARTCHAR theta1
ENCODING 977
SWIDTH 507 0
DWIDTH 10 0
BBX 9 14 1 0
BITMAP
1C00
3E00
3600
3200
3200
3200
3A00
DF80
CF80
C200
C200
C600
7E00
3C00
ENDCHAR
STARTCHAR Upsilon1
ENCODING 978
SWIDTH 465 0
DWIDTH 9 0
BBX 9 14 0 0
BITMAP
C180
E380
6300
6300
3600
3600
1C00
1C00
0800
0800
0800
0800
0800
0800
ENDCHAR
STARTCHAR omega1
ENCODING 982
SWIDTH 678 0
DWIDTH 14 0
BBX 12 11 1 0
BITMAP
FFF0
FFF0
6060
4020
4630
C630
C630
4620
6760
7FE0
39C0
ENDCHAR
STARTCHAR uni0400
ENCODING 1024
SWIDTH 496 0
DWIDTH 10 0
BBX 7 18 2 0
BITMAP
E0
30
30
00
FE
FE
80
80
80
80
FC
FC
80
80
80
80
FE
FE
ENDCHAR
STARTCHAR uni0401
ENCODING 1025
SWIDTH 496 0
DWIDTH 10 0
BBX 7 17 2 0
BITMAP
CC
CC
00
FE
FE
80
80
80
80
FC
FC
80
80
80
80
FE
FE
ENDCHAR
STARTCHAR uni0402
ENCODING 1026
SWIDTH 650 0
DWIDTH 13 0
BBX 12 14 0 0
BITMAP
FFC0
FFC0
0C00
0C00
0C00
0FC0
0FE0
0C30
0C30
0C30
0C30
0C30
0CE0
0CC0
ENDCHAR
STARTCHAR uni0403
ENCODING 1027
SWIDTH 487 0
DWIDTH 10 0
BBX 7 18 2 0
BITMAP
0C
18
30
00
FE
FE
80
80
80
80
80
80
80
80
80
80
80
80
ENDCHAR
STARTCHAR uni0404
ENCODING 1028
SWIDTH 589 0
DWIDTH 12 0
BBX 10 14 1 0
BITMAP
1E00
3F00
6180
6180
C0C0
C000
FE00
FE00
C000
C0C0
6180
6180
3F00
1E00
ENDCHAR
STARTCHAR uni0405
ENCODING 1029
SWIDTH 518 0
DWIDTH 10 0
BBX 8 14 1 0
BITMAP
3C
7E
C3
C3
C1
E0
78
1E
03
83
C1
C3
7F
3E
ENDCHAR
STARTCHAR uni0406
ENCODING 1030
SWIDTH 250 0
DWIDTH 5 0
BBX 1 14 2 0
BITMAP
80
80
80
80
80
80
80
80
80
80
80
80
80
80
ENDCHAR
STARTCHAR uni0407
ENCODING 1031
SWIDTH 250 0
DWIDTH 5 0
BBX 7 17 -1 0
BITMAP
C6
E6
00
10
10
10
10
10
10
10
10
10
10
10
10
10
10
ENDCHAR
STARTCHAR uni0408
ENCODING 1032
SWIDTH 483 0
DWIDTH 10 0
BBX 7 14 1 0
BITMAP
06
06
06
06
06
06
06
06
06
06
86
C6
FE
78
ENDCHAR
STARTCHAR uni0409
ENCODING 1033
SWIDTH 923 0
DWIDTH 18 0
BBX 17 14 0 0
BITMAP
1FE000
1FE000
186000
186000
186000
187E00
107F80
106180
106080
106080
306080
306180
F07F80
E07E00
ENDCHAR
STARTCHAR uni040A
ENCODING 1034
SWIDTH 927 0
DWIDTH 19 0
BBX 16 14 2 0
BITMAP
C180
C180
C180
C180
C180
C180
FFFC
FFFE
C187
C183
C183
C187
C1FE
C1FC
ENDCHAR
STARTCHAR uni040B
ENCODING 1035
SWIDTH 705 0
DWIDTH 14 0
BBX 11 14 1 0
BITMAP
FF80
FF80
1800
1800
1800
1FC0
1FE0
1860
1860
1820
1820
1820
1820
1820
ENDCHAR
STARTCHAR uni040C
ENCODING 1036
SWIDTH 544 0
DWIDTH 11 0
BBX 9 18 2 0
BITMAP
0C00
1800
3000
0000
8380
8600
8600
8C00
9800
B000
B000
F800
D800
8C00
8600
8600
8300
8380
ENDCHAR
STARTCHAR uni040D
ENCODING 1037
SWIDTH 619 0
DWIDTH 12 0
BBX 9 18 2 0
BITMAP
7000
3000
1800
0000
8180
8380
8380
8780
8580
8D80
8980
9980
9180
B180
A180
E180
C180
C180
ENDCHAR
STARTCHAR uni040E
ENCODING 1038
SWIDTH 547 0
DWIDTH 11 0
BBX 9 18 1 0
BITMAP
2300
1E00
0000
0000
C180
4180
6300
6300
3300
3600
1600
1E00
1C00
0C00
0C00
1800
7800
7000
ENDCHAR
STARTCHAR uni040F
ENCODING 1039
SWIDTH 621 0
DWIDTH 12 0
BBX 9 18 2 -4
BITMAP
8180
8180
8180
8180
8180
8180
8180
8180
8180
8180
8180
8180
FF80
FF80
1800
1800
1800
1800
ENDCHAR
STARTCHAR uni0410
ENCODING 1040
SWIDTH 576 0
DWIDTH 12 0
BBX 10 14 1 0
BITMAP
0C00
0C00
1E00
1E00
1200
3300
3300
3300
6180
7F80
7F80
C0C0
C0C0
C0C0
ENDCHAR
STARTCHAR uni0411
ENCODING 1041
SWIDTH 549 0
DWIDTH 11 0
BBX 9 14 1 0
BITMAP
FF00
FF00
C000
C000
C000
C000
FE00
FF80
C180
C180
C180
C180
FF00
FE00
ENDCHAR
STARTCHAR uni0412
ENCODING 1042
SWIDTH 545 0
DWIDTH 11 0
BBX 8 14 2 0
BITMAP
FC
FE
86
82
83
86
FC
FE
86
83
83
87
FE
FC
ENDCHAR
STARTCHAR uni0413
ENCODING 1043
SWIDTH 487 0
DWIDTH 10 0
BBX 7 14 2 0
BITMAP
FE
FE
80
80
80
80
80
80
80
80
80
80
80
80
ENDCHAR
STARTCHAR uni0414
ENCODING 1044
SWIDTH 660 0
DWIDTH 13 0
BBX 12 18 0 -4
BITMAP
1FE0
1FE0
1860
1860
1860
1860
1860
1860
1860
1060
3060
3060
FFF0
FFF0
C010
C010
C010
C010
ENDCHAR
STARTCHAR uni0415
ENCODING 1045
SWIDTH 496 0
DWIDTH 10 0
BBX 7 14 2 0
BITMAP
FE
FE
80
80
80
80
FC
FC
80
80
80
80
FE
FE
ENDCHAR
STARTCHAR uni0416
ENCODING 1046
SWIDTH 791 0
DWIDTH 16 0
BBX 16 14 0 0
BITMAP
6186
318C
318C
1998
1998
0DB0
0FF0
0FF0
1DB8
1998
319C
318C
6186
E187
ENDCHAR
STARTCHAR uni0417
ENCODING 1047
SWIDTH 517 0
DWIDTH 10 0
BBX 8 14 1 0
BITMAP
3C
7E
C3
C3
03
03
1E
1E
03
03
83
C3
FF
3C
ENDCHAR
STARTCHAR uni0418
ENCODING 1048
SWIDTH 619 0
DWIDTH 12 0
BBX 9 14 2 0
BITMAP
8180
8380
8380
8780
8580
8D80
8980
9980
9180
B180
A180
E180
C180
C180
ENDCHAR
STARTCHAR uni0419
ENCODING 1049
SWIDTH 619 0
DWIDTH 12 0
BBX 9 18 2 0
BITMAP
2200
3C00
0000
0000
8180
8380
8380
8780
8580
8D80
8980
9980
9180
B180
A180
E180
C180
C180
ENDCHAR
STARTCHAR uni041A
ENCODING 1050
SWIDTH 560 0
DWIDTH 11 0
BBX 9 14 2 0
BITMAP
8380
8700
8600
8C00
9C00
9800
F000
F800
9800
8C00
8E00
8600
8300
8180
ENDCHAR
STARTCHAR uni041B
ENCODING 1051
SWIDTH 615 0
DWIDTH 12 0
BBX 11 14 0 0
BITMAP
1FE0
1FE0
1860
1860
1860
1860
1860
1860
1860
1060
3060
3060
F060
E060
ENDCHAR
STARTCHAR uni041C
ENCODING 1052
SWIDTH 755 0
DWIDTH 15 0
BBX 12 14 2 0
BITMAP
C070
C070
E0F0
E0F0
A0B0
B1B0
B1B0
9130
9B30
9B30
8A30
8E30
8E30
8430
ENDCHAR
STARTCHAR uni041D
ENCODING 1053
SWIDTH 620 0
DWIDTH 12 0
BBX 10 14 1 0
BITMAP
C0C0
C0C0
C0C0
C0C0
C0C0
C0C0
FFC0
FFC0
C0C0
C0C0
C0C0
C0C0
C0C0
C0C0
ENDCHAR
STARTCHAR uni041E
ENCODING 1054
SWIDTH 600 0
DWIDTH 12 0
BBX 10 14 1 0
BITMAP
1E00
3F80
6180
40C0
C0C0
C0C0
C0C0
C0C0
C0C0
C0C0
C0C0
6180
3F80
1E00
ENDCHAR
STARTCHAR uni041F
ENCODING 1055
SWIDTH 620 0
DWIDTH 12 0
BBX 9 14 2 0
BITMAP
FF80
FF80
8180
8180
8180
8180
8180
8180
8180
8180
8180
8180
8180
8180
ENDCHAR
STARTCHAR uni0420
ENCODING 1056
SWIDTH 554 0
DWIDTH 11 0
BBX 9 14 1 0
BITMAP
FE00
FF00
C180
C180
C180
C180
C180
FF00
FE00
C000
C000
C000
C000
C000
ENDCHAR
STARTCHAR uni0421
ENCODING 1057
SWIDTH 566 0
DWIDTH 11 0
BBX 9 14 1 0
BITMAP
1E00
7F00
6380
C180
C180
C000
C000
C000
C000
C180
C180
6380
7F00
1E00
ENDCHAR
STARTCHAR uni0422
ENCODING 1058
SWIDTH 520 0
DWIDTH 10 0
BBX 9 14 1 0
BITMAP
FF80
FF80
1800
1800
1800
1800
1800
1800
1800
1800
1800
1800
1800
1800
ENDCHAR
STARTCHAR uni0423
ENCODING 1059
SWIDTH 547 0
DWIDTH 11 0
BBX 9 14 1 0
BITMAP
C180
4180
6300
6300
3300
3600
1600
1E00
1C00
0C00
0C00
1800
7800
7000
ENDCHAR
STARTCHAR uni0424
ENCODING 1060
SWIDTH 676 0
DWIDTH 14 0
BBX 12 16 1 -1
BITMAP
0600
0600
1F80
3FC0
6660
4630
C630
C630
C630
C630
4630
6660
3FC0
1F80
0600
0600
ENDCHAR
STARTCHAR uni0425
ENCODING 1061
SWIDTH 550 0
DWIDTH 11 0
BBX 9 14 1 0
BITMAP
C180
6300
6300
3200
3600
1400
1C00
1C00
1400
3600
2300
6300
E180
C180
ENDCHAR
STARTCHAR uni0426
ENCODING 1062
SWIDTH 639 0
DWIDTH 13 0
BBX 10 17 2 -3
BITMAP
8180
8180
8180
8180
8180
8180
8180
8180
8180
8180
8180
8180
FFC0
FFC0
00C0
00C0
00C0
ENDCHAR
STARTCHAR uni0427
ENCODING 1063
SWIDTH 600 0
DWIDTH 12 0
BBX 9 14 1 0
BITMAP
C080
C080
C080
C080
C080
C080
6080
7F80
3F80
0080
0080
0080
0080
0080
ENDCHAR
STARTCHAR uni0428
ENCODING 1064
SWIDTH 814 0
DWIDTH 16 0
BBX 13 14 2 0
BITMAP
8618
8618
8618
8618
8618
8618
8618
8618
8618
8618
8618
8618
FFF8
FFF8
ENDCHAR
STARTCHAR uni0429
ENCODING 1065
SWIDTH 841 0
DWIDTH 17 0
BBX 14 17 2 -3
BITMAP
8618
8618
8618
8618
8618
8618
8618
8618
8618
8618
8618
8618
FFFC
FFFC
000C
000C
000C
ENDCHAR
STARTCHAR uni042A
ENCODING 1066
SWIDTH 651 0
DWIDTH 13 0
BBX 12 14 0 0
BITMAP
F800
F800
0800
0800
0800
0800
0FC0
0FF0
0830
0830
0830
0830
0FF0
0FC0
ENDCHAR
STARTCHAR uni042B
ENCODING 1067
SWIDTH 755 0
DWIDTH 15 0
BBX 11 14 2 0
BITMAP
8020
8020
8020
8020
8020
8020
FC20
FF20
8320
8320
8320
8320
FF20
FC20
ENDCHAR
STARTCHAR uni042C
ENCODING 1068
SWIDTH 551 0
DWIDTH 11 0
BBX 9 14 1 0
BITMAP
C000
C000
C000
C000
C000
C000
FE00
FF80
C180
C180
C180
C180
FF00
FE00
ENDCHAR
STARTCHAR uni042D
ENCODING 1069
SWIDTH 589 0
DWIDTH 12 0
BBX 9 14 2 0
BITMAP
3C00
7E00
C300
C100
8180
0180
3F80
3F80
0180
8180
C100
C300
7E00
3C00
ENDCHAR
STARTCHAR uni042E
ENCODING 1070
SWIDTH 765 0
DWIDTH 15 0
BBX 13 14 1 0
BITMAP
C3E0
C7F0
CE38
CC18
CC08
CC08
FC08
FC08
CC08
CC08
CC18
CE38
C7F0
C3E0
ENDCHAR
STARTCHAR uni042F
ENCODING 1071
SWIDTH 562 0
DWIDTH 11 0
BBX 8 14 1 0
BITMAP
3F
7F
61
C1
C1
C1
61
7F
1F
31
21
61
41
C1
ENDCHAR
STARTCHAR uni0430
ENCODING 1072
SWIDTH 479 0
DWIDTH 10 0
BBX 8 11 1 0
BITMAP
3C
7E
46
82
3E
7E
E2
C2
C6
7E
3B
ENDCHAR
STARTCHAR uni0431
ENCODING 1073
SWIDTH 484 0
DWIDTH 10 0
BBX 8 15 1 0
BITMAP
03
0E
3C
60
40
5C
FE
E3
C3
C3
C3
C3
63
7E
3C
ENDCHAR
STARTCHAR uni0432
ENCODING 1074
SWIDTH 503 0
DWIDTH 10 0
BBX 8 11 1 0
BITMAP
FC
FE
C3
C3
FE
FE
C3
C3
C3
FF
FE
ENDCHAR
STARTCHAR uni0433
ENCODING 1075
SWIDTH 371 0
DWIDTH 7 0
BBX 6 11 1 0
BITMAP
FC
FC
C0
C0
C0
C0
C0
C0
C0
C0
C0
ENDCHAR
STARTCHAR uni0434
ENCODING 1076
SWIDTH 536 0
DWIDTH 11 0
BBX 9 14 1 -3
BITMAP
3F00
3F00
3300
3300
3300
3300
2300
6300
6300
FF80
FF80
8180
8180
8180
ENDCHAR
STARTCHAR uni0435
ENCODING 1077
SWIDTH 468 0
DWIDTH 9 0
BBX 7 11 1 0
BITMAP
3C
7E
C6
C2
FE
FE
C0
C0
C2
7E
3C
ENDCHAR
STARTCHAR uni0436
ENCODING 1078
SWIDTH 662 0
DWIDTH 13 0
BBX 13 11 0 0
BITMAP
6238
6230
3260
1260
1FC0
1FC0
1A60
3260
3230
6230
E238
ENDCHAR
STARTCHAR uni0437
ENCODING 1079
SWIDTH 446 0
DWIDTH 9 0
BBX 7 11 1 0
BITMAP
3C
7E
C6
06
3C
3C
06
06
C6
FC
78
ENDCHAR
STARTCHAR uni0438
ENCODING 1080
SWIDTH 509 0
DWIDTH 10 0
BBX 8 11 1 0
BITMAP
C3
C7
C7
CF
CB
DB
D3
F3
E3
E3
C3
ENDCHAR
STARTCHAR uni0439
ENCODING 1081
SWIDTH 509 0
DWIDTH 10 0
BBX 8 15 1 0
BITMAP
62
3C
00
00
C3
C7
C7
CF
CB
DB
D3
F3
E3
E3
C3
ENDCHAR
STARTCHAR uni043A
ENCODING 1082
SWIDTH 479 0
DWIDTH 10 0
BBX 8 11 1 0
BITMAP
C3
C6
CC
D8
F8
F8
DC
CC
C6
C6
C3
ENDCHAR
STARTCHAR uni043B
ENCODING 1083
SWIDTH 509 0
DWIDTH 10 0
BBX 9 11 0 0
BITMAP
3F80
3F80
3180
3180
3180
3180
3180
3180
3180
E180
E180
ENDCHAR
STARTCHAR uni043C
ENCODING 1084
SWIDTH 645 0
DWIDTH 13 0
BBX 10 11 1 0
BITMAP
E0C0
E0C0
E1C0
F1C0
D140
D340
DB40
CA40
CE40
CE40
C440
ENDCHAR
STARTCHAR uni043D
ENCODING 1085
SWIDTH 508 0
DWIDTH 10 0
BBX 8 11 1 0
BITMAP
C3
C3
C3
C3
FF
FF
C3
C3
C3
C3
C3
ENDCHAR
STARTCHAR uni043E
ENCODING 1086
SWIDTH 501 0
DWIDTH 10 0
BBX 8 11 1 0
BITMAP
3C
7E
E7
C3
C3
C3
C3
C3
E3
7E
3C
ENDCHAR
STARTCHAR uni043F
ENCODING 1087
SWIDTH 509 0
DWIDTH 10 0
BBX 8 11 1 0
BITMAP
FF
FF
C3
C3
C3
C3
C3
C3
C3
C3
C3
ENDCHAR
STARTCHAR uni0440
ENCODING 1088
SWIDTH 493 0
DWIDTH 10 0
BBX 8 15 1 -4
BITMAP
DC
FE
E3
C3
C3
C3
C3
C3
E7
FE
DC
C0
C0
C0
C0
ENDCHAR
STARTCHAR uni0441
ENCODING 1089
SWIDTH 461 0
DWIDTH 9 0
BBX 7 11 1 0
BITMAP
3C
7E
C6
C2
C0
C0
C0
C2
C6
7E
3C
ENDCHAR
STARTCHAR uni0442
ENCODING 1090
SWIDTH 424 0
DWIDTH 9 0
BBX 7 11 1 0
BITMAP
FE
FE
30
30
30
30
30
30
30
30
30
ENDCHAR
STARTCHAR uni0443
ENCODING 1091
SWIDTH 416 0
DWIDTH 8 0
BBX 8 15 0 -4
BITMAP
C3
42
66
66
24
24
3C
3C
18
18
18
18
30
70
60
ENDCHAR
STARTCHAR uni0444
ENCODING 1092
SWIDTH 628 0
DWIDTH 13 0
BBX 11 19 1 -4
BITMAP
0400
0400
0400
0400
3F80
7FC0
64C0
C460
C460
C460
C460
C460
64C0
7FC0
3F80
0400
0400
0400
0400
ENDCHAR
STARTCHAR uni0445
ENCODING 1093
SWIDTH 438 0
DWIDTH 9 0
BBX 7 11 1 0
BITMAP
C6
CC
6C
68
38
30
38
68
6C
C4
C6
ENDCHAR
STARTCHAR uni0446
ENCODING 1094
SWIDTH 524 0
DWIDTH 10 0
BBX 9 14 1 -3
BITMAP
C300
C300
C300
C300
C300
C300
C300
C300
C300
FF80
FF80
0180
0180
0180
ENDCHAR
STARTCHAR uni0447
ENCODING 1095
SWIDTH 479 0
DWIDTH 10 0
BBX 7 11 1 0
BITMAP
C2
C2
C2
C2
C2
C2
7E
3E
02
02
02
ENDCHAR
STARTCHAR uni0448
ENCODING 1096
SWIDTH 703 0
DWIDTH 14 0
BBX 12 11 1 0
BITMAP
C630
C630
C630
C630
C630
C630
C630
C630
C630
FFF0
FFF0
ENDCHAR
STARTCHAR uni0449
ENCODING 1097
SWIDTH 722 0
DWIDTH 14 0
BBX 13 14 1 -3
BITMAP
C620
C620
C620
C620
C620
C620
C620
C620
C620
FFF8
FFF8
0018
0018
0018
ENDCHAR
STARTCHAR uni044A
ENCODING 1098
SWIDTH 538 0
DWIDTH 11 0
BBX 9 11 1 0
BITMAP
F000
F000
3000
3000
3F00
3F80
3180
3080
3180
3F80
3F00
ENDCHAR
STARTCHAR uni044B
ENCODING 1099
SWIDTH 679 0
DWIDTH 14 0
BBX 10 11 2 0
BITMAP
80C0
80C0
80C0
80C0
F8C0
FCC0
86C0
86C0
86C0
FCC0
F8C0
ENDCHAR
STARTCHAR uni044C
ENCODING 1100
SWIDTH 478 0
DWIDTH 10 0
BBX 7 11 2 0
BITMAP
80
80
80
80
F8
FC
86
86
86
FC
F8
ENDCHAR
STARTCHAR uni044D
ENCODING 1101
SWIDTH 472 0
DWIDTH 9 0
BBX 7 11 1 0
BITMAP
78
FC
C6
06
3E
3E
06
86
CE
FC
78
ENDCHAR
STARTCHAR uni044E
ENCODING 1102
SWIDTH 706 0
DWIDTH 14 0
BBX 12 11 1 0
BITMAP
C3C0
C7E0
CE70
CC30
FC30
FC30
CC30
CC30
C670
C7E0
C3C0
ENDCHAR
STARTCHAR uni044F
ENCODING 1103
SWIDTH 482 0
DWIDTH 10 0
BBX 7 11 1 0
BITMAP
3E
7E
C2
C2
C2
7E
3E
62
62
C2
C2
ENDCHAR
STARTCHAR uni0450
ENCODING 1104
SWIDTH 468 0
DWIDTH 9 0
BBX 7 15 1 0
BITMAP
60
30
18
00
3C
7E
C6
C2
FE
FE
C0
C0
C2
7E
3C
ENDCHAR
STARTCHAR uni0451
ENCODING 1105
SWIDTH 468 0
DWIDTH 9 0
BBX 7 15 1 0
BITMAP
66
66
00
00
3C
7E
C6
C2
FE
FE
C0
C0
C2
7E
3C
ENDCHAR
STARTCHAR uni0452
ENCODING 1106
SWIDTH 482 0
DWIDTH 10 0
BBX 9 20 0 -4
BITMAP
6000
6000
F800
F800
6000
6E00
7F00
7300
6180
6180
6180
6180
6180
6180
6180
6180
0180
0100
0700
0600
ENDCHAR
STARTCHAR uni0453
ENCODING 1107
SWIDTH 371 0
DWIDTH 7 0
BBX 6 15 1 0
BITMAP
1C
38
30
00
FC
FC
C0
C0
C0
C0
C0
C0
C0
C0
C0
ENDCHAR
STARTCHAR uni0454
ENCODING 1108
SWIDTH 472 0
DWIDTH 9 0
BBX 7 11 1 0
BITMAP
3C
7E
C6
C2
F8
F8
C0
C2
C6
7E
3C
ENDCHAR
STARTCHAR uni0455
ENCODING 1109
SWIDTH 455 0
DWIDTH 9 0
BBX 7 11 1 0
BITMAP
3C
7E
C6
C0
70
3C
0E
06
C6
FE
3C
ENDCHAR
STARTCHAR uni0456
ENCODING 1110
SWIDTH 229 0
DWIDTH 5 0
BBX 2 15 2 0
BITMAP
80
C0
00
00
80
80
80
80
80
80
80
80
80
80
80
ENDCHAR
STARTCHAR uni0457
ENCODING 1111
SWIDTH 234 0
DWIDTH 5 0
BBX 7 15 -1 0
BITMAP
C4
CE
00
00
30
30
30
30
30
30
30
30
30
30
30
ENDCHAR
STARTCHAR uni0458
ENCODING 1112
SWIDTH 223 0
DWIDTH 4 0
BBX 3 19 0 -4
BITMAP
60
60
00
00
60
60
60
60
60
60
60
60
60
60
60
60
60
E0
C0
ENDCHAR
STARTCHAR uni0459
ENCODING 1113
SWIDTH 729 0
DWIDTH 15 0
BBX 13 11 1 0
BITMAP
3F00
3F00
2300
2300
23F0
23F8
6318
6318
6318
E3F8
C3F0
ENDCHAR
STARTCHAR uni045A
ENCODING 1114
SWIDTH 743 0
DWIDTH 15 0
BBX 12 11 2 0
BITMAP
8600
8600
8600
8600
FFE0
FFF0
8630
8610
8630
87F0
87E0
ENDCHAR
STARTCHAR uni045B
ENCODING 1115
SWIDTH 499 0
DWIDTH 10 0
BBX 8 16 0 0
BITMAP
60
60
FC
FC
60
6E
7F
73
61
61
61
61
61
61
61
61
ENDCHAR
STARTCHAR uni045C
ENCODING 1116
SWIDTH 479 0
DWIDTH 10 0
BBX 8 15 1 0
BITMAP
0E
18
18
00
C3
C6
CC
D8
F8
F8
DC
CC
C6
C6
C3
ENDCHAR
STARTCHAR uni045D
ENCODING 1117
SWIDTH 509 0
DWIDTH 10 0
BBX 8 15 1 0
BITMAP
70
30
18
00
C3
C7
C7
CF
CB
DB
D3
F3
E3
E3
C3
ENDCHAR
STARTCHAR uni045E
ENCODING 1118
SWIDTH 416 0
DWIDTH 8 0
BBX 8 19 0 -4
BITMAP
23
1E
00
00
C3
42
66
66
24
24
3C
3C
18
18
18
18
30
70
60
ENDCHAR
STARTCHAR uni045F
ENCODING 1119
SWIDTH 509 0
DWIDTH 10 0
BBX 8 14 1 -3
BITMAP
C3
C3
C3
C3
C3
C3
C3
C3
C3
FF
FF
18
18
18
ENDCHAR
STARTCHAR uni0460
ENCODING 1120
SWIDTH 754 0
DWIDTH 15 0
BBX 13 14 1 0
BITMAP
C218
C218
C218
C218
C218
C218
C218
C218
C218
C218
C318
6738
7DF0
38E0
ENDCHAR
STARTCHAR uni0461
ENCODING 1121
SWIDTH 650 0
DWIDTH 13 0
BBX 11 11 1 0
BITMAP
C460
C460
C460
C460
C460
C460
C460
C460
CE60
7FC0
7BC0
ENDCHAR
STARTCHAR uni0462
ENCODING 1122
SWIDTH 551 0
DWIDTH 11 0
BBX 10 14 0 0
BITMAP
6000
6000
F800
F800
6000
6000
7F00
7FC0
60C0
60C0
60C0
60C0
7F80
7F00
ENDCHAR
STARTCHAR uni0463
ENCODING 1123
SWIDTH 477 0
DWIDTH 10 0
BBX 9 15 0 0
BITMAP
2000
2000
2000
FC00
FC00
2000
2000
2000
3E00
3F00
2180
2180
2180
3F00
3E00
ENDCHAR
STARTCHAR uni0464
ENCODING 1124
SWIDTH 772 0
DWIDTH 15 0
BBX 13 14 1 0
BITMAP
C3E0
C7F0
CE30
CC18
CC18
C800
FFC0
FFC0
C800
CC18
CC18
CE30
C7F0
C3E0
ENDCHAR
STARTCHAR uni0465
ENCODING 1125
SWIDTH 646 0
DWIDTH 13 0
BBX 11 11 1 0
BITMAP
C780
CFC0
CC60
C860
FF80
FF80
C800
CC20
CC60
C7C0
C380
ENDCHAR
STARTCHAR uni0466
ENCODING 1126
SWIDTH 526 0
DWIDTH 11 0
BBX 10 14 1 0
BITMAP
0C00
1C00
1C00
1400
3600
3600
3200
2300
7F00
7F00
4980
C980
C980
C8C0
ENDCHAR
STARTCHAR uni0467
ENCODING 1127
SWIDTH 470 0
DWIDTH 9 0
BBX 9 11 0 0
BITMAP
0C00
1C00
1C00
1600
3600
3200
3E00
7F00
6F00
6D00
CD80
ENDCHAR
STARTCHAR uni0468
ENCODING 1128
SWIDTH 759 0
DWIDTH 15 0
BBX 13 14 2 0
BITMAP
C180
C180
C380
C3C0
C2C0
C640
C660
C660
FFE0
FFF0
CDB0
C9B0
D990
D998
ENDCHAR
STARTCHAR uni0469
ENCODING 1129
SWIDTH 654 0
DWIDTH 13 0
BBX 11 11 2 0
BITMAP
8600
8700
8700
8D00
8D80
8980
FF80
FF80
96C0
B6C0
B660
ENDCHAR
STARTCHAR uni046A
ENCODING 1130
SWIDTH 747 0
DWIDTH 15 0
BBX 13 14 1 0
BITMAP
3FF0
3FE0
1840
18C0
0D80
0D80
3FE0
7FF0
6230
C218
C218
C218
C218
C218
ENDCHAR
STARTCHAR uni046B
ENCODING 1131
SWIDTH 645 0
DWIDTH 13 0
BBX 11 11 1 0
BITMAP
3FC0
3F80
1100
1B00
0A00
3F80
7FC0
64C0
C460
C460
C460
ENDCHAR
STARTCHAR uni046C
ENCODING 1132
SWIDTH 980 0
DWIDTH 20 0
BBX 16 14 2 0
BITMAP
C7FE
C3FE
C10C
C18C
C0D8
C0D8
FFFE
FFFF
C663
CC61
CC61
CC61
CC61
CC61
ENDCHAR
STARTCHAR uni046D
ENCODING 1133
SWIDTH 856 0
DWIDTH 17 0
BBX 15 11 1 0
BITMAP
C3FC
C3F8
C190
C1B0
C0F0
FFF8
FFFC
C64C
C446
C446
C446
ENDCHAR
STARTCHAR uni046E
ENCODING 1134
SWIDTH 454 0
DWIDTH 9 0
BBX 7 23 1 -4
BITMAP
6C
28
10
00
00
F8
FC
0C
06
04
0C
78
7C
0C
06
06
0E
7C
F8
80
80
C0
60
ENDCHAR
STARTCHAR uni046F
ENCODING 1135
SWIDTH 423 0
DWIDTH 8 0
BBX 6 20 1 -4
BITMAP
C8
70
30
00
00
F8
FC
0C
0C
78
78
0C
04
0C
FC
F8
80
80
C0
40
ENDCHAR
STARTCHAR uni0470
ENCODING 1136
SWIDTH 600 0
DWIDTH 12 0
BBX 10 14 1 0
BITMAP
CCC0
CCC0
CCC0
CCC0
CCC0
CCC0
CCC0
CCC0
6D80
7F80
3E00
0C00
0C00
0C00
ENDCHAR
STARTCHAR uni0471
ENCODING 1137
SWIDTH 612 0
DWIDTH 12 0
BBX 10 16 1 -5
BITMAP
8CC0
8CC0
8CC0
8CC0
8C40
CC40
CCC0
CCC0
EDC0
7F80
3F00
0C00
0C00
0C00
0C00
0C00
ENDCHAR
STARTCHAR uni0472
ENCODING 1138
SWIDTH 593 0
DWIDTH 12 0
BBX 10 14 1 0
BITMAP
1E00
3F00
6180
4180
C0C0
C0C0
FFC0
FFC0
C0C0
C0C0
4180
6180
3F00
1E00
ENDCHAR
STARTCHAR uni0473
ENCODING 1139
SWIDTH 497 0
DWIDTH 10 0
BBX 8 11 1 0
BITMAP
3C
7E
63
C3
FF
FF
C3
C3
67
7E
3C
ENDCHAR
STARTCHAR uni0474
ENCODING 1140
SWIDTH 553 0
DWIDTH 11 0
BBX 10 14 0 0
BITMAP
C040
60C0
60C0
6180
2180
3180
3100
1300
1B00
1A00
1A00
0E00
0E00
0C00
ENDCHAR
STARTCHAR uni0475
ENCODING 1141
SWIDTH 443 0
DWIDTH 9 0
BBX 8 11 1 0
BITMAP
C3
C7
C6
44
4C
6C
28
28
38
38
10
ENDCHAR
STARTCHAR uni0476
ENCODING 1142
SWIDTH 553 0
DWIDTH 11 0
BBX 10 18 0 0
BITMAP
6C00
3600
1A00
0000
C040
60C0
60C0
6180
2180
3180
3100
1300
1B00
1A00
1A00
0E00
0E00
0C00
ENDCHAR
STARTCHAR uni0477
ENCODING 1143
SWIDTH 443 0
DWIDTH 9 0
BBX 9 15 0 0
BITMAP
F800
6C00
3400
0000
6180
6380
6300
2200
2600
3600
1400
1400
1C00
1C00
0800
ENDCHAR
STARTCHAR uni0478
ENCODING 1144
SWIDTH 1017 0
DWIDTH 20 0
BBX 19 18 1 -4
BITMAP
1E0000
3F8000
618000
40D860
C0C840
C0CCC0
C0CCC0
C0C4C0
C0C480
C0C780
C0C780
618300
3F8300
1E0300
000300
000600
000E00
000C00
ENDCHAR
STARTCHAR uni0479
ENCODING 1145
SWIDTH 918 0
DWIDTH 18 0
BBX 17 15 1 -4
BITMAP
3C6180
7E2100
E73300
C33300
C31300
C31200
C31E00
C31E00
E30C00
7E0C00
3C0C00
000C00
001800
003800
003000
ENDCHAR
STARTCHAR uni047A
ENCODING 1146
SWIDTH 593 0
DWIDTH 12 0
BBX 10 16 1 -1
BITMAP
0C00
1E00
3F00
6D80
4180
C0C0
C0C0
C0C0
C0C0
C0C0
C0C0
C180
6D80
3F00
1E00
0C00
ENDCHAR
STARTCHAR uni047B
ENCODING 1147
SWIDTH 498 0
DWIDTH 10 0
BBX 8 13 1 -1
BITMAP
18
3C
7E
FB
C3
C3
C3
C3
C3
FB
7E
3C
18
ENDCHAR
STARTCHAR uni047C
ENCODING 1148
SWIDTH 752 0
DWIDTH 15 0
BBX 13 19 1 0
BITMAP
0700
0FC0
09C0
0300
0200
3260
7070
6030
C018
C018
C018
C218
C218
C218
C218
C318
6730
7FF0
3CE0
ENDCHAR
STARTCHAR uni047D
ENCODING 1149
SWIDTH 654 0
DWIDTH 13 0
BBX 11 16 1 0
BITMAP
0E00
1F80
1180
0600
0600
64C0
60C0
C060
C060
C060
C460
C460
C460
CE60
7FC0
7BC0
ENDCHAR
STARTCHAR uni047E
ENCODING 1150
SWIDTH 754 0
DWIDTH 15 0
BBX 13 17 1 0
BITMAP
1FC0
0200
0000
C218
C218
C218
C218
C218
C218
C218
C218
C218
C218
C318
6738
7DF0
3DE0
ENDCHAR
STARTCHAR uni047F
ENCODING 1151
SWIDTH 650 0
DWIDTH 13 0
BBX 11 14 1 0
BITMAP
3F80
0400
0000
C460
C460
C460
C460
C460
C460
C460
C460
CE60
7FC0
7BC0
ENDCHAR
STARTCHAR uni0480
ENCODING 1152
SWIDTH 570 0
DWIDTH 11 0
BBX 9 18 1 -4
BITMAP
1E00
7F00
6380
C180
C180
C000
C000
C000
C000
C000
C000
6000
7C00
3C00
0C00
0C00
0C00
0C00
ENDCHAR
STARTCHAR uni0481
ENCODING 1153
SWIDTH 472 0
DWIDTH 9 0
BBX 7 15 1 -4
BITMAP
38
7C
C6
C6
C0
80
C0
C0
C0
78
38
18
18
18
18
ENDCHAR
STARTCHAR uni0482
ENCODING 1154
SWIDTH 547 0
DWIDTH 11 0
BBX 9 13 1 0
BITMAP
0100
0300
3200
1E00
0600
0F80
8900
D800
3000
3800
2E00
6400
4000
ENDCHAR
STARTCHAR uni0483
ENCODING 1155
SWIDTH 0 0
DWIDTH 0 0
BBX 7 3 -8 12
BITMAP
06
FE
C0
ENDCHAR
STARTCHAR uni0484
ENCODING 1156
SWIDTH 0 0
DWIDTH 0 0
BBX 6 3 -7 13
BITMAP
38
FC
C4
ENDCHAR
STARTCHAR uni0485
ENCODING 1157
SWIDTH 0 0
DWIDTH 0 0
BBX 2 3 -5 13
BITMAP
80
80
40
ENDCHAR
STARTCHAR uni0486
ENCODING 1158
SWIDTH 0 0
DWIDTH 0 0
BBX 2 3 -5 13
BITMAP
40
40
80
ENDCHAR
STARTCHAR uni0488
ENCODING 1160
SWIDTH 0 0
DWIDTH 0 0
BBX 19 17 -15 -3
BITMAP
00E000
00B000
180380
240680
000000
000000
000000
7000E0
900120
000000
000000
000000
180380
240480
000000
00E000
009000
ENDCHAR
STARTCHAR uni0489
ENCODING 1161
SWIDTH 0 0
DWIDTH 0 0
BBX 19 18 -15 -4
BITMAP
006000
004000
104000
088100
080680
0C0400
000000
000000
E00180
3001E0
000000
000000
080200
0C0600
300200
006100
004000
00C000
ENDCHAR
STARTCHAR uni048A
ENCODING 1162
SWIDTH 666 0
DWIDTH 13 0
BBX 11 22 2 -4
BITMAP
3300
1E00
0000
0000
8180
8380
8380
8780
8580
8D80
8980
9980
9180
B180
A180
E180
C180
C1E0
0060
0040
00C0
0080
ENDCHAR
STARTCHAR uni048B
ENCODING 1163
SWIDTH 550 0
DWIDTH 11 0
BBX 10 19 1 -4
BITMAP
2300
1E00
0000
0000
C300
C700
C700
CF00
CB00
DB00
D300
F300
E300
E300
C3C0
00C0
0080
0180
0100
ENDCHAR
STARTCHAR uni048C
ENCODING 1164
SWIDTH 551 0
DWIDTH 11 0
BBX 10 14 0 0
BITMAP
6000
6000
F800
F800
6000
6000
7F00
7FC0
60C0
60C0
60C0
60C0
7F80
7F00
ENDCHAR
STARTCHAR uni048D
ENCODING 1165
SWIDTH 477 0
DWIDTH 10 0
BBX 9 16 0 0
BITMAP
2000
2000
FC00
FC00
2000
2000
2000
2000
2000
3E00
3F00
2180
2180
2180
3F00
3E00
ENDCHAR
STARTCHAR uni048E
ENCODING 1166
SWIDTH 557 0
DWIDTH 11 0
BBX 10 14 1 0
BITMAP
FE00
FF00
C180
C180
C180
C380
C780
FF00
FF80
C0C0
C000
C000
C000
C000
ENDCHAR
STARTCHAR uni048F
ENCODING 1167
SWIDTH 496 0
DWIDTH 10 0
BBX 8 15 1 -4
BITMAP
DC
FE
E7
C3
C3
C3
C3
CF
E7
FE
DF
C2
C0
C0
C0
ENDCHAR
STARTCHAR uni0490
ENCODING 1168
SWIDTH 479 0
DWIDTH 10 0
BBX 7 17 2 0
BITMAP
06
06
06
FE
FE
80
80
80
80
80
80
80
80
80
80
80
80
ENDCHAR
STARTCHAR uni0491
ENCODING 1169
SWIDTH 395 0
DWIDTH 8 0
BBX 6 14 1 0
BITMAP
0C
0C
0C
FC
FC
C0
C0
C0
C0
C0
C0
C0
C0
C0
ENDCHAR
STARTCHAR uni0492
ENCODING 1170
SWIDTH 487 0
DWIDTH 10 0
BBX 9 14 0 0
BITMAP
3F80
3F80
2000
2000
2000
2000
F800
F800
2000
2000
2000
2000
2000
2000
ENDCHAR
STARTCHAR uni0493
ENCODING 1171
SWIDTH 371 0
DWIDTH 7 0
BBX 7 11 0 0
BITMAP
7E
7E
60
60
60
F8
F8
60
60
60
60
ENDCHAR
STARTCHAR uni0494
ENCODING 1172
SWIDTH 539 0
DWIDTH 11 0
BBX 8 17 2 -3
BITMAP
FE
FE
C0
C0
C0
C0
F8
FE
C6
C3
C3
C3
C3
C3
06
0E
0C
ENDCHAR
STARTCHAR uni0495
ENCODING 1173
SWIDTH 443 0
DWIDTH 9 0
BBX 7 14 1 -3
BITMAP
FC
FC
C0
C0
F8
FC
CE
C6
C6
C6
C6
0E
0C
08
ENDCHAR
STARTCHAR uni0496
ENCODING 1174
SWIDTH 833 0
DWIDTH 17 0
BBX 16 17 0 -3
BITMAP
6186
318C
318C
1998
1998
0DB0
0FF0
0FF0
1DB8
1998
319C
318C
6187
6187
8001
0001
0001
ENDCHAR
STARTCHAR uni0497
ENCODING 1175
SWIDTH 696 0
DWIDTH 14 0
BBX 13 14 0 -3
BITMAP
6238
6230
3260
1260
1FC0
1FC0
1A60
3260
3230
6238
6238
8008
0008
0008
ENDCHAR
STARTCHAR uni0498
ENCODING 1176
SWIDTH 517 0
DWIDTH 10 0
BBX 8 18 1 -4
BITMAP
3C
7E
C3
C3
03
03
1E
1E
03
03
83
C3
FF
3C
18
18
18
18
ENDCHAR
STARTCHAR uni0499
ENCODING 1177
SWIDTH 446 0
DWIDTH 9 0
BBX 7 15 1 -4
BITMAP
3C
7E
C6
06
3C
3C
06
06
C6
FC
78
10
10
10
10
ENDCHAR
STARTCHAR uni049A
ENCODING 1178
SWIDTH 617 0
DWIDTH 12 0
BBX 9 17 2 -3
BITMAP
8380
8700
8600
8C00
9C00
9800
F000
F800
9800
8C00
8E00
8600
8380
8180
0080
0080
0080
ENDCHAR
STARTCHAR uni049B
ENCODING 1179
SWIDTH 524 0
DWIDTH 11 0
BBX 9 14 1 -3
BITMAP
C300
C600
CC00
D800
F800
F800
DC00
CC00
C600
C780
C380
0180
0180
0180
ENDCHAR
STARTCHAR uni049C
ENCODING 1180
SWIDTH 553 0
DWIDTH 11 0
BBX 10 14 1 0
BITMAP
C1C0
C180
C300
D300
D200
D600
FC00
FE00
D600
D300
C300
C380
C180
C1C0
ENDCHAR
STARTCHAR uni049D
ENCODING 1181
SWIDTH 498 0
DWIDTH 10 0
BBX 9 11 1 0
BITMAP
C380
C300
D600
D400
FC00
FC00
D600
D600
C300
C300
C380
ENDCHAR
STARTCHAR uni049E
ENCODING 1182
SWIDTH 570 0
DWIDTH 11 0
BBX 11 14 0 0
BITMAP
30E0
30C0
F980
FB80
3300
3600
3E00
3E00
3700
3300
3180
31C0
30C0
3060
ENDCHAR
STARTCHAR uni049F
ENCODING 1183
SWIDTH 462 0
DWIDTH 9 0
BBX 10 15 -1 0
BITMAP
1000
FC00
FC00
1000
11C0
1180
1300
1200
1E00
1E00
1300
1300
1180
1180
10C0
ENDCHAR
STARTCHAR uni04A0
ENCODING 1184
SWIDTH 710 0
DWIDTH 14 0
BBX 13 14 1 0
BITMAP
F838
F870
0860
08C0
09C0
0980
0F00
0F80
0980
08C0
08E0
0860
0830
0838
ENDCHAR
STARTCHAR uni04A1
ENCODING 1185
SWIDTH 607 0
DWIDTH 12 0
BBX 11 11 1 0
BITMAP
F8E0
F8C0
1980
1B00
1E00
1F00
1B00
1980
1980
18C0
18E0
ENDCHAR
STARTCHAR uni04A2
ENCODING 1186
SWIDTH 662 0
DWIDTH 13 0
BBX 11 17 1 -3
BITMAP
C0C0
C0C0
C0C0
C0C0
C0C0
C0C0
FFC0
FFC0
C0C0
C0C0
C0C0
C0C0
C0E0
C0E0
0020
0020
0020
ENDCHAR
STARTCHAR uni04A3
ENCODING 1187
SWIDTH 541 0
DWIDTH 11 0
BBX 9 14 1 -3
BITMAP
C300
C300
C300
C300
FF00
FF00
C300
C300
C300
C380
C380
0180
0180
0180
ENDCHAR
STARTCHAR uni04A4
ENCODING 1188
SWIDTH 829 0
DWIDTH 17 0
BBX 14 14 2 0
BITMAP
81FC
81FC
8180
8180
8180
8180
FF80
FF80
8180
8180
8180
8180
8180
8180
ENDCHAR
STARTCHAR uni04A5
ENCODING 1189
SWIDTH 614 0
DWIDTH 12 0
BBX 10 11 1 0
BITMAP
C3C0
C3C0
C300
C300
FF00
FF00
C300
C300
C300
C300
C300
ENDCHAR
STARTCHAR uni04A6
ENCODING 1190
SWIDTH 880 0
DWIDTH 18 0
BBX 15 17 2 -3
BITMAP
FF80
FF80
C180
C180
C180
C180
C1F0
C1F8
C18C
C186
C186
C186
C186
C186
000C
001C
0018
ENDCHAR
STARTCHAR uni04A7
ENCODING 1191
SWIDTH 755 0
DWIDTH 15 0
BBX 13 14 1 -3
BITMAP
FF00
FF00
C300
C300
C3E0
C3F0
C318
C318
C308
C308
C318
0018
0030
0020
ENDCHAR
STARTCHAR uni04A8
ENCODING 1192
SWIDTH 641 0
DWIDTH 13 0
BBX 11 14 1 0
BITMAP
3380
77C0
6660
CC60
CC60
CC60
CC60
CC60
CC60
C460
66C0
73C0
3FE0
1E60
ENDCHAR
STARTCHAR uni04A9
ENCODING 1193
SWIDTH 528 0
DWIDTH 11 0
BBX 9 11 1 0
BITMAP
2600
6F00
4980
D980
D980
D980
C980
4D00
6700
3F80
1D80
ENDCHAR
STARTCHAR uni04AA
ENCODING 1194
SWIDTH 566 0
DWIDTH 11 0
BBX 9 18 1 -4
BITMAP
1E00
7F00
6380
C180
C180
C000
C000
C000
C000
C180
C180
6380
7F00
1E00
0C00
0C00
0C00
0C00
ENDCHAR
STARTCHAR uni04AB
ENCODING 1195
SWIDTH 461 0
DWIDTH 9 0
BBX 7 15 1 -4
BITMAP
3C
7E
C6
C2
C0
C0
C0
C2
C6
7E
3C
10
10
10
10
ENDCHAR
STARTCHAR uni04AC
ENCODING 1196
SWIDTH 520 0
DWIDTH 10 0
BBX 9 17 1 -3
BITMAP
FF80
FF80
1800
1800
1800
1800
1800
1800
1800
1800
1800
1800
1E00
1E00
0600
0600
0600
ENDCHAR
STARTCHAR uni04AD
ENCODING 1197
SWIDTH 424 0
DWIDTH 9 0
BBX 7 14 1 -3
BITMAP
FE
FE
30
30
30
30
30
30
30
3C
3C
0C
0C
0C
ENDCHAR
STARTCHAR uni04AE
ENCODING 1198
SWIDTH 524 0
DWIDTH 10 0
BBX 10 14 0 0
BITMAP
E0C0
6080
6180
3180
3300
1B00
1E00
0E00
0C00
0C00
0C00
0C00
0C00
0C00
ENDCHAR
STARTCHAR uni04AF
ENCODING 1199
SWIDTH 444 0
DWIDTH 9 0
BBX 7 15 1 -4
BITMAP
C2
C6
C6
44
6C
6C
2C
38
38
18
10
10
10
10
10
ENDCHAR
STARTCHAR uni04B0
ENCODING 1200
SWIDTH 524 0
DWIDTH 10 0
BBX 10 14 0 0
BITMAP
C0C0
6180
6180
3300
3300
3300
1E00
1E00
3F00
3F00
0C00
0C00
0C00
0C00
ENDCHAR
STARTCHAR uni04B1
ENCODING 1201
SWIDTH 444 0
DWIDTH 9 0
BBX 7 15 1 -4
BITMAP
C2
C6
C6
44
6C
6C
28
38
38
7C
7C
10
10
10
10
ENDCHAR
STARTCHAR uni04B2
ENCODING 1202
SWIDTH 559 0
DWIDTH 11 0
BBX 10 17 1 -3
BITMAP
C180
6300
6300
3200
3600
1400
1C00
1C00
1400
3600
2300
6300
E1C0
C1C0
00C0
00C0
00C0
ENDCHAR
STARTCHAR uni04B3
ENCODING 1203
SWIDTH 465 0
DWIDTH 9 0
BBX 8 14 1 -3
BITMAP
C6
CC
6C
68
38
30
38
68
6C
C7
C7
03
03
03
ENDCHAR
STARTCHAR uni04B4
ENCODING 1204
SWIDTH 781 0
DWIDTH 16 0
BBX 13 17 1 -3
BITMAP
FF30
FF30
1030
1030
1030
1030
1030
1030
1030
1030
1030
1030
1FF8
1FF8
0018
0018
0018
ENDCHAR
STARTCHAR uni04B5
ENCODING 1205
SWIDTH 587 0
DWIDTH 12 0
BBX 11 14 0 -3
BITMAP
FCC0
FCC0
10C0
10C0
10C0
10C0
10C0
10C0
10C0
1FE0
1FE0
0060
0060
0060
ENDCHAR
STARTCHAR uni04B6
ENCODING 1206
SWIDTH 638 0
DWIDTH 13 0
BBX 11 17 1 -3
BITMAP
C080
C080
C080
C080
C080
C080
6080
7F80
3F80
0080
0080
0080
00E0
00E0
0060
0060
0060
ENDCHAR
STARTCHAR uni04B7
ENCODING 1207
SWIDTH 512 0
DWIDTH 10 0
BBX 9 14 1 -3
BITMAP
C200
C200
C200
C200
C200
C200
7E00
3E00
0200
0380
0380
0180
0180
0180
ENDCHAR
STARTCHAR uni04B8
ENCODING 1208
SWIDTH 595 0
DWIDTH 12 0
BBX 9 14 1 0
BITMAP
C080
C080
C080
C080
CC80
CC80
6C80
7F80
3F80
0C80
0C80
0080
0080
0080
ENDCHAR
STARTCHAR uni04B9
ENCODING 1209
SWIDTH 483 0
DWIDTH 10 0
BBX 7 11 1 0
BITMAP
C2
C2
C2
DA
DA
7A
7E
3E
1A
02
02
ENDCHAR
STARTCHAR uni04BA
ENCODING 1210
SWIDTH 595 0
DWIDTH 12 0
BBX 9 14 1 0
BITMAP
C000
C000
C000
C000
C000
FF00
FF80
C180
C180
C180
C180
C180
C180
C180
ENDCHAR
STARTCHAR uni04BB
ENCODING 1211
SWIDTH 482 0
DWIDTH 10 0
BBX 8 15 1 0
BITMAP
C0
C0
C0
C0
DC
FE
E6
C3
C3
C3
C3
C3
C3
C3
C3
ENDCHAR
STARTCHAR uni04BC
ENCODING 1212
SWIDTH 674 0
DWIDTH 14 0
BBX 12 14 1 0
BITMAP
0780
0FC0
1C60
1860
D820
D830
7FF0
3FF0
1800
1800
1800
1C20
0FE0
07C0
ENDCHAR
STARTCHAR uni04BD
ENCODING 1213
SWIDTH 518 0
DWIDTH 10 0
BBX 9 11 0 0
BITMAP
0E00
1F00
B180
B180
FF80
7F80
2000
3000
3080
1F80
0F00
ENDCHAR
STARTCHAR uni04BE
ENCODING 1214
SWIDTH 674 0
DWIDTH 14 0
BBX 12 18 1 -4
BITMAP
0780
0FC0
1C60
1860
D820
D830
7FF0
3FF0
1800
1800
1800
1C20
0FE0
07C0
0300
0300
0300
0300
ENDCHAR
STARTCHAR uni04BF
ENCODING 1215
SWIDTH 518 0
DWIDTH 10 0
BBX 9 15 0 -4
BITMAP
0E00
1F00
B180
B180
FF80
7F80
2000
3000
3080
1F80
0F00
0600
0600
0600
0600
ENDCHAR
STARTCHAR uni04C0
ENCODING 1216
SWIDTH 250 0
DWIDTH 5 0
BBX 1 14 2 0
BITMAP
80
80
80
80
80
80
80
80
80
80
80
80
80
80
ENDCHAR
STARTCHAR uni04C1
ENCODING 1217
SWIDTH 791 0
DWIDTH 16 0
BBX 16 18 0 0
BITMAP
0660
03C0
0000
0000
6186
318C
318C
1998
1998
0DB0
0FF0
0FF0
1DB8
1998
319C
318C
6186
E187
ENDCHAR
STARTCHAR uni04C2
ENCODING 1218
SWIDTH 662 0
DWIDTH 13 0
BBX 13 15 0 0
BITMAP
0CC0
0780
0000
0000
6238
6230
3260
1260
1FC0
1FC0
1A60
3260
3230
6230
E238
ENDCHAR
STARTCHAR uni04C3
ENCODING 1219
SWIDTH 553 0
DWIDTH 11 0
BBX 9 17 1 -3
BITMAP
C180
C300
C300
C600
CC00
CC00
FE00
FF00
C380
C180
C180
C180
C180
C180
0180
0700
0600
ENDCHAR
STARTCHAR uni04C4
ENCODING 1220
SWIDTH 481 0
DWIDTH 10 0
BBX 7 14 2 -3
BITMAP
86
8C
98
B0
F8
FC
8E
86
86
86
86
06
0C
18
ENDCHAR
STARTCHAR uni04C5
ENCODING 1221
SWIDTH 662 0
DWIDTH 13 0
BBX 13 18 0 -4
BITMAP
1FE0
1FE0
1860
1860
1860
1860
1860
1860
1860
1060
3060
3060
F060
E078
0018
0010
0030
0020
ENDCHAR
STARTCHAR uni04C6
ENCODING 1222
SWIDTH 551 0
DWIDTH 11 0
BBX 11 15 0 -4
BITMAP
3F80
3F80
3180
3180
3180
3180
3180
3180
3180
E180
E1E0
0060
0040
00C0
0080
ENDCHAR
STARTCHAR uni04C7
ENCODING 1223
SWIDTH 620 0
DWIDTH 12 0
BBX 10 18 1 -4
BITMAP
C0C0
C0C0
C0C0
C0C0
C0C0
C0C0
FFC0
FFC0
C0C0
C0C0
C0C0
C0C0
C0C0
C0C0
00C0
0180
0380
0300
ENDCHAR
STARTCHAR uni04C8
ENCODING 1224
SWIDTH 498 0
DWIDTH 10 0
BBX 8 15 1 -4
BITMAP
C3
C3
C3
C3
FF
FF
C3
C3
C3
C3
C3
03
03
0E
0E
ENDCHAR
STARTCHAR uni04C9
ENCODING 1225
SWIDTH 671 0
DWIDTH 13 0
BBX 12 18 1 -4
BITMAP
C0C0
C0C0
C0C0
C0C0
C0C0
C0C0
FFC0
FFC0
C0C0
C0C0
C0C0
C0C0
C0C0
C0F0
0030
0030
0060
0040
ENDCHAR
STARTCHAR uni04CA
ENCODING 1226
SWIDTH 550 0
DWIDTH 11 0
BBX 10 15 1 -4
BITMAP
C300
C300
C300
C300
FF00
FF00
C300
C300
C300
C300
C3C0
00C0
0080
0180
0100
ENDCHAR
STARTCHAR uni04CB
ENCODING 1227
SWIDTH 600 0
DWIDTH 12 0
BBX 9 17 1 -3
BITMAP
C080
C080
C080
C080
C080
C080
6080
7F80
3F80
0080
0080
0080
0380
0380
0300
0300
0300
ENDCHAR
STARTCHAR uni04CC
ENCODING 1228
SWIDTH 479 0
DWIDTH 10 0
BBX 7 14 1 -3
BITMAP
C2
C2
C2
C2
C2
C2
7E
3E
02
0E
0E
0C
0C
0C
ENDCHAR
STARTCHAR uni04CD
ENCODING 1229
SWIDTH 801 0
DWIDTH 16 0
BBX 13 18 2 -4
BITMAP
C070
C070
E0F0
E0F0
A0B0
B1B0
B1B0
9130
9B30
9B30
8A30
8E30
8E30
8438
0008
0018
0018
0010
ENDCHAR
STARTCHAR uni04CE
ENCODING 1230
SWIDTH 687 0
DWIDTH 14 0
BBX 12 15 1 -4
BITMAP
E0C0
E0C0
E1C0
F1C0
D140
D340
DB40
CA40
CE40
CE40
C450
0010
0030
0030
0020
ENDCHAR
STARTCHAR uni04CF
ENCODING 1231
SWIDTH 250 0
DWIDTH 5 0
BBX 1 14 2 0
BITMAP
80
80
80
80
80
80
80
80
80
80
80
80
80
80
ENDCHAR
STARTCHAR uni04D0
ENCODING 1232
SWIDTH 576 0
DWIDTH 12 0
BBX 10 18 1 0
BITMAP
3300
1E00
0000
0000
0C00
0C00
1E00
1E00
1200
3300
3300
3300
6180
7F80
7F80
C0C0
C0C0
C0C0
ENDCHAR
STARTCHAR uni04D1
ENCODING 1233
SWIDTH 479 0
DWIDTH 10 0
BBX 8 15 1 0
BITMAP
62
3C
00
00
3C
7E
46
82
3E
7E
E2
C2
C6
7E
3B
ENDCHAR
STARTCHAR uni04D2
ENCODING 1234
SWIDTH 576 0
DWIDTH 12 0
BBX 10 17 1 0
BITMAP
3300
3300
0000
0C00
0C00
1E00
1E00
1200
3300
3300
3300
6180
7F80
7F80
C0C0
C0C0
C0C0
ENDCHAR
STARTCHAR uni04D3
ENCODING 1235
SWIDTH 479 0
DWIDTH 10 0
BBX 8 15 1 0
BITMAP
66
66
00
00
3C
7E
46
82
3E
7E
E2
C2
C6
7E
3B
ENDCHAR
STARTCHAR uni04D4
ENCODING 1236
SWIDTH 812 0
DWIDTH 16 0
BBX 16 14 0 0
BITMAP
01FE
03FE
03C0
06C0
06C0
0CC0
0CFE
18FE
18C0
3FC0
3FC0
60C0
60FF
C0FF
ENDCHAR
STARTCHAR uni04D5
ENCODING 1237
SWIDTH 728 0
DWIDTH 15 0
BBX 13 11 1 0
BITMAP
3CE0
7FF0
C718
0618
3FF8
7FF8
C600
C600
C710
FDF8
78F0
ENDCHAR
STARTCHAR uni04D6
ENCODING 1238
SWIDTH 496 0
DWIDTH 10 0
BBX 7 18 2 0
BITMAP
44
7C
00
00
FE
FE
80
80
80
80
FC
FC
80
80
80
80
FE
FE
ENDCHAR
STARTCHAR uni04D7
ENCODING 1239
SWIDTH 468 0
DWIDTH 9 0
BBX 7 15 1 0
BITMAP
66
3C
00
00
3C
7E
C6
C2
FE
FE
C0
C0
C2
7E
3C
ENDCHAR
STARTCHAR uni04D8
ENCODING 1240
SWIDTH 597 0
DWIDTH 12 0
BBX 10 14 1 0
BITMAP
3E00
7F00
4380
0180
00C0
00C0
00C0
FFC0
FFC0
C0C0
C080
6180
7F00
3E00
ENDCHAR
STARTCHAR uni04D9
ENCODING 1241
SWIDTH 465 0
DWIDTH 9 0
BBX 7 11 1 0
BITMAP
78
FC
86
06
02
FE
FE
C6
C6
7C
38
ENDCHAR
STARTCHAR uni04DA
ENCODING 1242
SWIDTH 597 0
DWIDTH 12 0
BBX 10 17 1 0
BITMAP
6600
6700
0000
3E00
7F00
4380
0180
00C0
00C0
00C0
FFC0
FFC0
C0C0
C080
6180
7F00
3E00
ENDCHAR
STARTCHAR uni04DB
ENCODING 1243
SWIDTH 465 0
DWIDTH 9 0
BBX 7 15 1 0
BITMAP
66
66
00
00
78
FC
86
06
02
FE
FE
C6
C6
7C
38
ENDCHAR
STARTCHAR uni04DC
ENCODING 1244
SWIDTH 791 0
DWIDTH 16 0
BBX 16 17 0 0
BITMAP
0660
0660
0000
6186
318C
318C
1998
1998
0DB0
0FF0
0FF0
1DB8
1998
319C
318C
6186
E187
ENDCHAR
STARTCHAR uni04DD
ENCODING 1245
SWIDTH 662 0
DWIDTH 13 0
BBX 13 15 0 0
BITMAP
08C0
1CC0
0000
0000
6238
6230
3260
1260
1FC0
1FC0
1A60
3260
3230
6230
E238
ENDCHAR
STARTCHAR uni04DE
ENCODING 1246
SWIDTH 517 0
DWIDTH 10 0
BBX 8 17 1 0
BITMAP
66
66
00
3C
7E
C3
C3
03
03
1E
1E
03
03
83
C3
FF
3C
ENDCHAR
STARTCHAR uni04DF
ENCODING 1247
SWIDTH 446 0
DWIDTH 9 0
BBX 7 15 1 0
BITMAP
C6
C6
00
00
3C
7E
C6
06
3C
3C
06
06
C6
FC
78
ENDCHAR
STARTCHAR uni04E0
ENCODING 1248
SWIDTH 510 0
DWIDTH 10 0
BBX 8 14 1 0
BITMAP
FE
FE
07
0C
18
18
3C
3E
07
03
C3
C7
7E
3C
ENDCHAR
STARTCHAR uni04E1
ENCODING 1249
SWIDTH 510 0
DWIDTH 10 0
BBX 8 15 1 -4
BITMAP
FE
FE
06
0C
18
18
3C
3E
07
03
03
C3
C7
7E
3C
ENDCHAR
STARTCHAR uni04E2
ENCODING 1250
SWIDTH 619 0
DWIDTH 12 0
BBX 9 17 2 0
BITMAP
7E00
7E00
0000
8180
8380
8380
8780
8580
8D80
8980
9980
9180
B180
A180
E180
C180
C180
ENDCHAR
STARTCHAR uni04E3
ENCODING 1251
SWIDTH 509 0
DWIDTH 10 0
BBX 8 14 1 0
BITMAP
7E
7E
00
C3
C7
C7
CF
CB
DB
D3
F3
E3
E3
C3
ENDCHAR
STARTCHAR uni04E4
ENCODING 1252
SWIDTH 619 0
DWIDTH 12 0
BBX 9 17 2 0
BITMAP
6600
6600
0000
8180
8380
8380
8780
8580
8D80
8980
9980
9180
B180
A180
E180
C180
C180
ENDCHAR
STARTCHAR uni04E5
ENCODING 1253
SWIDTH 509 0
DWIDTH 10 0
BBX 8 15 1 0
BITMAP
66
66
00
00
C3
C7
C7
CF
CB
DB
D3
F3
E3
E3
C3
ENDCHAR
STARTCHAR uni04E6
ENCODING 1254
SWIDTH 600 0
DWIDTH 12 0
BBX 10 17 1 0
BITMAP
3300
3300
0000
1E00
3F80
6180
40C0
C0C0
C0C0
C0C0
C0C0
C0C0
C0C0
C0C0
6180
3F80
1E00
ENDCHAR
STARTCHAR uni04E7
ENCODING 1255
SWIDTH 501 0
DWIDTH 10 0
BBX 8 15 1 0
BITMAP
66
66
00
00
3C
7E
E7
C3
C3
C3
C3
C3
E3
7E
3C
ENDCHAR
STARTCHAR uni04E8
ENCODING 1256
SWIDTH 593 0
DWIDTH 12 0
BBX 10 14 1 0
BITMAP
1E00
3F00
6180
4180
C0C0
C0C0
FFC0
FFC0
C0C0
C0C0
4180
6180
3F00
1E00
ENDCHAR
STARTCHAR uni04E9
ENCODING 1257
SWIDTH 497 0
DWIDTH 10 0
BBX 8 11 1 0
BITMAP
3C
7E
63
C3
FF
FF
C3
C3
67
7E
3C
ENDCHAR
STARTCHAR uni04EA
ENCODING 1258
SWIDTH 593 0
DWIDTH 12 0
BBX 10 17 1 0
BITMAP
3300
3300
0000
1E00
3F00
6180
4180
C0C0
C0C0
FFC0
FFC0
C0C0
C0C0
4180
6180
3F00
1E00
ENDCHAR
STARTCHAR uni04EB
ENCODING 1259
SWIDTH 497 0
DWIDTH 10 0
BBX 8 15 1 0
BITMAP
66
66
00
00
3C
7E
63
C3
FF
FF
C3
C3
67
7E
3C
ENDCHAR
STARTCHAR uni04EC
ENCODING 1260
SWIDTH 589 0
DWIDTH 12 0
BBX 9 17 2 0
BITMAP
6600
6600
0000
3C00
7E00
C300
C100
8180
0180
3F80
3F80
0180
8180
C100
C300
7E00
3C00
ENDCHAR
STARTCHAR uni04ED
ENCODING 1261
SWIDTH 472 0
DWIDTH 9 0
BBX 7 15 1 0
BITMAP
66
66
00
00
78
FC
C6
06
3E
3E
06
86
CE
FC
78
ENDCHAR
STARTCHAR uni04EE
ENCODING 1262
SWIDTH 547 0
DWIDTH 11 0
BBX 9 17 1 0
BITMAP
3E00
3E00
0000
C180
4180
6300
6300
3300
3600
1600
1E00
1C00
0C00
0C00
1800
7800
7000
ENDCHAR
STARTCHAR uni04EF
ENCODING 1263
SWIDTH 416 0
DWIDTH 8 0
BBX 8 18 0 -4
BITMAP
7E
7E
00
C3
42
66
66
24
24
3C
3C
18
18
18
18
30
70
60
ENDCHAR
STARTCHAR uni04F0
ENCODING 1264
SWIDTH 547 0
DWIDTH 11 0
BBX 9 17 1 0
BITMAP
6300
7300
0000
C180
4180
6300
6300
3300
3600
1600
1E00
1C00
0C00
0C00
1800
7800
7000
ENDCHAR
STARTCHAR uni04F1
ENCODING 1265
SWIDTH 416 0
DWIDTH 8 0
BBX 8 19 0 -4
BITMAP
62
67
00
00
C3
42
66
66
24
24
3C
3C
18
18
18
18
30
70
60
ENDCHAR
STARTCHAR uni04F2
ENCODING 1266
SWIDTH 547 0
DWIDTH 11 0
BBX 9 18 1 0
BITMAP
1B00
1E00
3600
0000
C180
4180
6300
6300
3300
3600
1600
1E00
1C00
0C00
0C00
1800
7800
7000
ENDCHAR
STARTCHAR uni04F3
ENCODING 1267
SWIDTH 416 0
DWIDTH 8 0
BBX 8 19 0 -4
BITMAP
1B
16
34
00
C3
42
66
66
24
24
3C
3C
18
18
18
18
30
70
60
ENDCHAR
STARTCHAR uni04F4
ENCODING 1268
SWIDTH 600 0
DWIDTH 12 0
BBX 9 17 1 0
BITMAP
3300
3300
0000
C080
C080
C080
C080
C080
C080
6080
7F80
3F80
0080
0080
0080
0080
0080
ENDCHAR
STARTCHAR uni04F5
ENCODING 1269
SWIDTH 479 0
DWIDTH 10 0
BBX 7 15 1 0
BITMAP
C6
E6
00
00
C2
C2
C2
C2
C2
C2
7E
3E
02
02
02
ENDCHAR
STARTCHAR uni04F6
ENCODING 1270
SWIDTH 487 0
DWIDTH 10 0
BBX 7 17 2 -3
BITMAP
FE
FE
80
80
80
80
80
80
80
80
80
80
E0
E0
60
60
60
ENDCHAR
STARTCHAR uni04F7
ENCODING 1271
SWIDTH 371 0
DWIDTH 7 0
BBX 6 14 1 -3
BITMAP
FC
FC
C0
C0
C0
C0
C0
C0
C0
F0
F0
30
30
30
ENDCHAR
STARTCHAR uni04F8
ENCODING 1272
SWIDTH 755 0
DWIDTH 15 0
BBX 11 17 2 0
BITMAP
3180
3980
0000
8020
8020
8020
8020
8020
8020
FC20
FF20
8320
8120
8320
8320
FF20
FC20
ENDCHAR
STARTCHAR uni04F9
ENCODING 1273
SWIDTH 679 0
DWIDTH 14 0
BBX 10 15 2 0
BITMAP
3300
7300
0000
0000
80C0
80C0
80C0
80C0
F8C0
FCC0
86C0
86C0
86C0
FCC0
F8C0
ENDCHAR
STARTCHAR uni04FA
ENCODING 1274
SWIDTH 520 0
DWIDTH 10 0
BBX 9 18 1 -4
BITMAP
7F80
7F80
6000
6000
6000
F800
F800
6000
6000
6000
6000
6000
7800
7800
1800
1800
7000
7000
ENDCHAR
STARTCHAR uni04FB
ENCODING 1275
SWIDTH 410 0
DWIDTH 8 0
BBX 7 15 1 -4
BITMAP
7E
7E
60
60
F8
F8
60
60
60
78
78
18
18
70
60
ENDCHAR
STARTCHAR uni04FC
ENCODING 1276
SWIDTH 570 0
DWIDTH 11 0
BBX 10 18 1 -4
BITMAP
C180
6300
6300
3200
3600
1400
1C00
1C00
1400
3600
2300
6300
E1C0
C1C0
00C0
00C0
01C0
0180
ENDCHAR
STARTCHAR uni04FD
ENCODING 1277
SWIDTH 476 0
DWIDTH 10 0
BBX 8 15 1 -4
BITMAP
C6
CC
6C
68
38
30
38
68
6C
C7
C7
03
03
07
06
ENDCHAR
STARTCHAR uni04FE
ENCODING 1278
SWIDTH 550 0
DWIDTH 11 0
BBX 9 14 1 0
BITMAP
C180
6300
6300
3600
3600
1C00
3E00
3E00
1C00
3600
3200
6300
6180
C180
ENDCHAR
STARTCHAR uni04FF
ENCODING 1279
SWIDTH 438 0
DWIDTH 9 0
BBX 7 11 1 0
BITMAP
C6
CC
6C
68
38
7C
7C
28
6C
C4
C6
ENDCHAR
STARTCHAR uni0500
ENCODING 1280
SWIDTH 555 0
DWIDTH 11 0
BBX 9 14 1 0
BITMAP
0180
0180
0180
0180
0180
0180
3F80
7F80
C180
C180
C180
C180
7F80
3F80
ENDCHAR
STARTCHAR uni0501
ENCODING 1281
SWIDTH 496 0
DWIDTH 10 0
BBX 8 15 1 0
BITMAP
03
03
03
03
3B
7F
C7
C3
C3
C3
C3
C3
C7
7F
3B
ENDCHAR
STARTCHAR uni0502
ENCODING 1282
SWIDTH 723 0
DWIDTH 14 0
BBX 13 14 1 0
BITMAP
0100
0100
0100
0100
0100
0100
3F30
FF10
C118
C118
C118
C130
FFF0
3FE0
ENDCHAR
STARTCHAR uni0503
ENCODING 1283
SWIDTH 743 0
DWIDTH 15 0
BBX 13 15 1 0
BITMAP
0300
0300
0300
0300
3B00
7F10
6718
C318
C318
C318
C318
C310
E730
7FE0
39C0
ENDCHAR
STARTCHAR uni0504
ENCODING 1284
SWIDTH 685 0
DWIDTH 14 0
BBX 12 14 1 0
BITMAP
F800
FC00
0E00
0600
0660
0C20
7C30
7C30
0E30
0630
0660
0660
07C0
0380
ENDCHAR
STARTCHAR uni0505
ENCODING 1285
SWIDTH 562 0
DWIDTH 11 0
BBX 10 11 0 0
BITMAP
F800
7C00
0C00
0CC0
0C40
7840
7C40
0CC0
04C0
0780
0700
ENDCHAR
STARTCHAR uni0506
ENCODING 1286
SWIDTH 470 0
DWIDTH 9 0
BBX 7 17 1 -3
BITMAP
F0
F8
0C
0C
0C
0C
F8
F8
1C
0C
0C
0C
0E
0E
02
06
04
ENDCHAR
STARTCHAR uni0507
ENCODING 1287
SWIDTH 443 0
DWIDTH 9 0
BBX 8 14 1 -3
BITMAP
F8
FC
0C
0C
0C
78
7C
0C
0C
0F
07
02
06
04
ENDCHAR
STARTCHAR uni0508
ENCODING 1288
SWIDTH 834 0
DWIDTH 17 0
BBX 15 14 1 0
BITMAP
3FC0
3FC0
30C0
30C0
30C6
30C6
30C6
30C6
30C6
30C6
30C6
60CC
E0FC
C078
ENDCHAR
STARTCHAR uni0509
ENCODING 1289
SWIDTH 698 0
DWIDTH 14 0
BBX 12 11 1 0
BITMAP
3F00
3F00
2330
2310
2310
2310
2310
6330
6330
E3E0
C1C0
ENDCHAR
STARTCHAR uni050A
ENCODING 1290
SWIDTH 864 0
DWIDTH 17 0
BBX 15 14 1 0
BITMAP
C0C0
C0C0
C0C0
C0C0
C0C4
C0C6
FFC6
FFC6
C0C6
C0C6
C0C6
C0CC
C0FC
C070
ENDCHAR
STARTCHAR uni050B
ENCODING 1291
SWIDTH 716 0
DWIDTH 14 0
BBX 12 11 1 0
BITMAP
C300
C300
C330
C310
FF10
FF10
C310
C330
C330
C3E0
C1C0
ENDCHAR
STARTCHAR uni050C
ENCODING 1292
SWIDTH 541 0
DWIDTH 11 0
BBX 9 14 1 0
BITMAP
1E00
3F00
6200
6000
C000
C000
C180
C180
C180
C180
6180
6380
3F00
1E00
ENDCHAR
STARTCHAR uni050D
ENCODING 1293
SWIDTH 452 0
DWIDTH 9 0
BBX 7 11 1 0
BITMAP
3C
7C
E4
C0
C0
C6
C6
C6
66
7E
3C
ENDCHAR
STARTCHAR uni050E
ENCODING 1294
SWIDTH 616 0
DWIDTH 12 0
BBX 11 14 0 0
BITMAP
FFC0
FFC0
0C00
0C00
0C60
0C60
0C60
0C60
0C60
0C60
0C60
0CC0
0FC0
0780
ENDCHAR
STARTCHAR uni050F
ENCODING 1295
SWIDTH 558 0
DWIDTH 11 0
BBX 9 11 1 0
BITMAP
FE00
FE00
1000
1180
1180
1180
1180
1180
1980
1F00
0E00
ENDCHAR
STARTCHAR uni0510
ENCODING 1296
SWIDTH 589 0
DWIDTH 12 0
BBX 9 14 2 0
BITMAP
3E00
FF00
C300
C180
C000
C000
7C00
7C00
C000
8000
8180
C380
FF00
3E00
ENDCHAR
STARTCHAR uni0511
ENCODING 1297
SWIDTH 470 0
DWIDTH 9 0
BBX 7 11 1 0
BITMAP
7C
FE
C6
C0
78
78
C0
C0
C6
FE
7C
ENDCHAR
STARTCHAR uni0512
ENCODING 1298
SWIDTH 664 0
DWIDTH 13 0
BBX 12 18 0 -4
BITMAP
1FE0
1FE0
1860
1860
1860
1860
1860
1860
1860
1060
3060
3060
F070
E070
0010
0010
0070
0060
ENDCHAR
STARTCHAR uni0513
ENCODING 1299
SWIDTH 553 0
DWIDTH 11 0
BBX 11 15 0 -4
BITMAP
3F80
3F80
3180
3180
3180
3180
3180
3180
3180
E1E0
E1E0
0060
0060
01C0
0180
ENDCHAR
STARTCHAR uni1E00
ENCODING 7680
SWIDTH 576 0
DWIDTH 12 0
BBX 10 18 1 -4
BITMAP
0C00
0C00
1E00
1E00
1200
3300
3300
3300
6180
7F80
7F80
C0C0
C0C0
C0C0
0000
0C00
1400
0C00
ENDCHAR
STARTCHAR uni1E01
ENCODING 7681
SWIDTH 479 0
DWIDTH 10 0
BBX 8 15 1 -4
BITMAP
3C
7E
46
82
3E
7E
E2
C2
C6
7E
3B
00
30
28
30
ENDCHAR
STARTCHAR uni1E3E
ENCODING 7742
SWIDTH 755 0
DWIDTH 15 0
BBX 12 18 2 0
BITMAP
0380
0600
0C00
0000
C070
C070
E0F0
E0F0
A0B0
B1B0
B1B0
9130
9B30
9B30
8A30
8E30
8E30
8430
ENDCHAR
STARTCHAR uni1E3F
ENCODING 7743
SWIDTH 752 0
DWIDTH 15 0
BBX 13 15 1 0
BITMAP
01C0
0300
0300
0000
DCE0
FFF0
E718
C218
C218
C218
C218
C218
C218
C218
C218
ENDCHAR
STARTCHAR Wgrave
ENCODING 7808
SWIDTH 761 0
DWIDTH 15 0
BBX 14 18 1 0
BITMAP
0C00
0600
0300
0000
C30C
C308
C718
C718
4518
4598
6C90
6C90
68B0
28F0
28F0
3860
3860
3060
ENDCHAR
STARTCHAR wgrave
ENCODING 7809
SWIDTH 649 0
DWIDTH 13 0
BBX 12 15 0 0
BITMAP
1C00
0600
0200
0000
C210
6730
6730
6530
2520
2DA0
3DE0
38E0
38C0
18C0
18C0
ENDCHAR
STARTCHAR Wacute
ENCODING 7810
SWIDTH 761 0
DWIDTH 15 0
BBX 14 18 1 0
BITMAP
01C0
0180
0300
0000
C30C
C308
C718
C718
4518
4598
6C90
6C90
68B0
28F0
28F0
3860
3860
3060
ENDCHAR
STARTCHAR wacute
ENCODING 7811
SWIDTH 649 0
DWIDTH 13 0
BBX 12 15 0 0
BITMAP
01C0
0300
0600
0000
C210
6730
6730
6530
2520
2DA0
3DE0
38E0
38C0
18C0
18C0
ENDCHAR
STARTCHAR Wdieresis
ENCODING 7812
SWIDTH 761 0
DWIDTH 15 0
BBX 14 17 1 0
BITMAP
0CC0
0CC0
0000
C30C
C308
C718
C718
4518
4598
6C90
6C90
68B0
28F0
28F0
3860
3860
3060
ENDCHAR
STARTCHAR wdieresis
ENCODING 7813
SWIDTH 649 0
DWIDTH 13 0
BBX 12 15 0 0
BITMAP
18C0
19C0
0000
0000
C210
6730
6730
6530
2520
2DA0
3DE0
38E0
38C0
18C0
18C0
ENDCHAR
STARTCHAR uni1EA0
ENCODING 7840
SWIDTH 576 0
DWIDTH 12 0
BBX 10 17 1 -3
BITMAP
0C00
0C00
1E00
1E00
1200
3300
3300
3300
6180
7F80
7F80
C0C0
C0C0
C0C0
0000
0C00
0C00
ENDCHAR
STARTCHAR uni1EA1
ENCODING 7841
SWIDTH 479 0
DWIDTH 10 0
BBX 8 14 1 -3
BITMAP
3C
7E
46
82
3E
7E
E2
C2
C6
7E
3B
00
30
30
ENDCHAR
STARTCHAR uni1EA2
ENCODING 7842
SWIDTH 576 0
DWIDTH 12 0
BBX 10 19 1 0
BITMAP
0C00
0600
0E00
0800
0000
0C00
0C00
1E00
1E00
1200
3300
3300
3300
6180
7F80
7F80
C0C0
C0C0
C0C0
ENDCHAR
STARTCHAR uni1EA3
ENCODING 7843
SWIDTH 479 0
DWIDTH 10 0
BBX 8 17 1 0
BITMAP
18
0C
1C
18
00
00
3C
7E
46
82
3E
7E
E2
C2
C6
7E
3B
ENDCHAR
STARTCHAR uni1EA4
ENCODING 7844
SWIDTH 576 0
DWIDTH 12 0
BBX 10 20 1 0
BITMAP
00C0
0080
0D80
1E00
3300
0000
0C00
0C00
1E00
1E00
1200
3300
3300
3300
6180
7F80
7F80
C0C0
C0C0
C0C0
ENDCHAR
STARTCHAR uni1EA5
ENCODING 7845
SWIDTH 479 0
DWIDTH 10 0
BBX 9 17 1 0
BITMAP
0180
0180
1B00
3C00
6600
0000
3C00
7E00
4600
8200
3E00
7E00
E200
C200
C600
7E00
3B00
ENDCHAR
STARTCHAR uni1EA6
ENCODING 7846
SWIDTH 576 0
DWIDTH 12 0
BBX 11 20 0 0
BITMAP
C000
6000
2600
0F00
1980
0000
0600
0600
0F00
0F00
0900
1980
1980
1980
30C0
3FC0
3FC0
6060
6060
6060
ENDCHAR
STARTCHAR uni1EA7
ENCODING 7847
SWIDTH 479 0
DWIDTH 10 0
BBX 10 17 -1 0
BITMAP
E000
6000
2600
0F00
1980
0000
0F00
1F80
1180
2080
0F80
1F80
3880
3080
3180
1F80
0EC0
ENDCHAR
STARTCHAR uni1EA8
ENCODING 7848
SWIDTH 576 0
DWIDTH 12 0
BBX 10 19 1 0
BITMAP
0180
1C80
1700
3300
0000
0C00
0C00
1E00
1E00
1200
3300
3300
3300
6180
7F80
7F80
C0C0
C0C0
C0C0
ENDCHAR
STARTCHAR uni1EA9
ENCODING 7849
SWIDTH 479 0
DWIDTH 10 0
BBX 8 16 1 0
BITMAP
03
19
2E
66
00
3C
7E
46
82
3E
7E
E2
C2
C6
7E
3B
ENDCHAR
STARTCHAR uni1EAA
ENCODING 7850
SWIDTH 576 0
DWIDTH 12 0
BBX 10 20 1 0
BITMAP
1A00
2600
0000
1C00
3300
0000
0C00
0C00
1E00
1E00
1200
3300
3300
3300
6180
7F80
7F80
C0C0
C0C0
C0C0
ENDCHAR
STARTCHAR uni1EAB
ENCODING 7851
SWIDTH 479 0
DWIDTH 10 0
BBX 8 17 1 0
BITMAP
34
2C
00
18
66
00
3C
7E
46
82
3E
7E
E2
C2
C6
7E
3B
ENDCHAR
STARTCHAR uni1EAC
ENCODING 7852
SWIDTH 576 0
DWIDTH 12 0
BBX 10 21 1 -3
BITMAP
0C00
1E00
3200
0000
0C00
0C00
1E00
1E00
1200
3300
3300
3300
6180
7F80
7F80
C0C0
C0C0
C0C0
0000
0C00
0C00
ENDCHAR
STARTCHAR uni1EAD
ENCODING 7853
SWIDTH 479 0
DWIDTH 10 0
BBX 8 19 1 -3
BITMAP
18
3C
66
00
00
3C
7E
46
82
3E
7E
E2
C2
C6
7E
3B
00
30
30
ENDCHAR
STARTCHAR uni1EAE
ENCODING 7854
SWIDTH 576 0
DWIDTH 12 0
BBX 10 19 1 0
BITMAP
0600
0C00
3200
1E00
0000
0C00
0C00
1E00
1E00
1200
3300
3300
3300
6180
7F80
7F80
C0C0
C0C0
C0C0
ENDCHAR
STARTCHAR uni1EAF
ENCODING 7855
SWIDTH 479 0
DWIDTH 10 0
BBX 8 16 1 0
BITMAP
0C
18
64
3C
00
3C
7E
46
82
3E
7E
E2
C2
C6
7E
3B
ENDCHAR
STARTCHAR uni1EB0
ENCODING 7856
SWIDTH 576 0
DWIDTH 12 0
BBX 10 19 1 0
BITMAP
1800
0800
3200
1E00
0000
0C00
0C00
1E00
1E00
1200
3300
3300
3300
6180
7F80
7F80
C0C0
C0C0
C0C0
ENDCHAR
STARTCHAR uni1EB1
ENCODING 7857
SWIDTH 479 0
DWIDTH 10 0
BBX 8 16 1 0
BITMAP
30
18
64
3C
00
3C
7E
46
82
3E
7E
E2
C2
C6
7E
3B
ENDCHAR
STARTCHAR uni1EB2
ENCODING 7858
SWIDTH 576 0
DWIDTH 12 0
BBX 10 20 1 0
BITMAP
0C00
0600
0800
3200
1C00
0000
0C00
0C00
1E00
1E00
1200
3300
3300
3300
6180
7F80
7F80
C0C0
C0C0
C0C0
ENDCHAR
STARTCHAR uni1EB3
ENCODING 7859
SWIDTH 479 0
DWIDTH 10 0
BBX 8 17 1 0
BITMAP
18
0C
18
64
3C
00
3C
7E
46
82
3E
7E
E2
C2
C6
7E
3B
ENDCHAR
STARTCHAR uni1EB4
ENCODING 7860
SWIDTH 576 0
DWIDTH 12 0
BBX 10 20 1 0
BITMAP
1A00
2600
0000
3200
1C00
0000
0C00
0C00
1E00
1E00
1200
3300
3300
3300
6180
7F80
7F80
C0C0
C0C0
C0C0
ENDCHAR
STARTCHAR uni1EB5
ENCODING 7861
SWIDTH 479 0
DWIDTH 10 0
BBX 8 17 1 0
BITMAP
34
2C
00
64
3C
00
3C
7E
46
82
3E
7E
E2
C2
C6
7E
3B
ENDCHAR
STARTCHAR uni1EB6
ENCODING 7862
SWIDTH 576 0
DWIDTH 12 0
BBX 10 21 1 -3
BITMAP
3300
1E00
0000
0000
0C00
0C00
1E00
1E00
1200
3300
3300
3300
6180
7F80
7F80
C0C0
C0C0
C0C0
0000
0C00
0C00
ENDCHAR
STARTCHAR uni1EB7
ENCODING 7863
SWIDTH 479 0
DWIDTH 10 0
BBX 8 18 1 -3
BITMAP
62
3C
00
00
3C
7E
46
82
3E
7E
E2
C2
C6
7E
3B
00
30
30
ENDCHAR
STARTCHAR uni1EB8
ENCODING 7864
SWIDTH 496 0
DWIDTH 10 0
BBX 7 17 2 -3
BITMAP
FE
FE
80
80
80
80
FC
FC
80
80
80
80
FE
FE
00
30
30
ENDCHAR
STARTCHAR uni1EB9
ENCODING 7865
SWIDTH 468 0
DWIDTH 9 0
BBX 7 14 1 -3
BITMAP
3C
7E
C6
C2
FE
FE
C0
C0
C2
7E
3C
00
18
18
ENDCHAR
STARTCHAR uni1EBA
ENCODING 7866
SWIDTH 496 0
DWIDTH 10 0
BBX 7 19 2 0
BITMAP
18
08
18
10
00
FE
FE
80
80
80
80
FC
FC
80
80
80
80
FE
FE
ENDCHAR
STARTCHAR uni1EBB
ENCODING 7867
SWIDTH 468 0
DWIDTH 9 0
BBX 7 17 1 0
BITMAP
18
0C
1C
10
00
00
3C
7E
C6
C2
FE
FE
C0
C0
C2
7E
3C
ENDCHAR
STARTCHAR uni1EBC
ENCODING 7868
SWIDTH 496 0
DWIDTH 10 0
BBX 7 17 2 0
BITMAP
64
DC
00
FE
FE
80
80
80
80
FC
FC
80
80
80
80
FE
FE
ENDCHAR
STARTCHAR uni1EBD
ENCODING 7869
SWIDTH 468 0
DWIDTH 9 0
BBX 7 15 1 0
BITMAP
72
4C
00
00
3C
7E
C6
C2
FE
FE
C0
C0
C2
7E
3C
ENDCHAR
STARTCHAR uni1EBE
ENCODING 7870
SWIDTH 496 0
DWIDTH 10 0
BBX 9 20 2 0
BITMAP
0180
0300
3200
6800
CC00
0000
FE00
FE00
8000
8000
8000
8000
FC00
FC00
8000
8000
8000
8000
FE00
FE00
ENDCHAR
STARTCHAR uni1EBF
ENCODING 7871
SWIDTH 468 0
DWIDTH 9 0
BBX 9 17 1 0
BITMAP
0180
0100
1B00
3C00
6600
0000
3C00
7E00
C600
C200
FE00
FE00
C000
C000
C200
7E00
3C00
ENDCHAR
STARTCHAR uni1EC0
ENCODING 7872
SWIDTH 496 0
DWIDTH 10 0
BBX 9 20 0 0
BITMAP
C000
4000
6C00
1E00
3300
0000
3F80
3F80
2000
2000
2000
2000
3F00
3F00
2000
2000
2000
2000
3F80
3F80
ENDCHAR
STARTCHAR uni1EC1
ENCODING 7873
SWIDTH 468 0
DWIDTH 9 0
BBX 9 17 -1 0
BITMAP
C000
6000
2600
0F00
1980
0000
0F00
1F80
3180
3080
3F80
3F80
3000
3000
3080
1F80
0F00
ENDCHAR
STARTCHAR uni1EC2
ENCODING 7874
SWIDTH 496 0
DWIDTH 10 0
BBX 8 19 2 0
BITMAP
06
39
6A
CC
00
FE
FE
80
80
80
80
FC
FC
80
80
80
80
FE
FE
ENDCHAR
STARTCHAR uni1EC3
ENCODING 7875
SWIDTH 468 0
DWIDTH 9 0
BBX 8 16 1 0
BITMAP
03
39
2E
66
00
3C
7E
C6
C2
FE
FE
C0
C0
C2
7E
3C
ENDCHAR
STARTCHAR uni1EC4
ENCODING 7876
SWIDTH 496 0
DWIDTH 10 0
BBX 7 20 2 0
BITMAP
68
58
00
38
CC
00
FE
FE
80
80
80
80
FC
FC
80
80
80
80
FE
FE
ENDCHAR
STARTCHAR uni1EC5
ENCODING 7877
SWIDTH 468 0
DWIDTH 9 0
BBX 7 17 1 0
BITMAP
34
4C
00
38
66
00
3C
7E
C6
C2
FE
FE
C0
C0
C2
7E
3C
ENDCHAR
STARTCHAR uni1EC6
ENCODING 7878
SWIDTH 496 0
DWIDTH 10 0
BBX 7 21 2 -3
BITMAP
30
78
4C
00
FE
FE
80
80
80
80
FC
FC
80
80
80
80
FE
FE
00
30
30
ENDCHAR
STARTCHAR uni1EC7
ENCODING 7879
SWIDTH 468 0
DWIDTH 9 0
BBX 7 19 1 -3
BITMAP
18
3C
64
00
00
3C
7E
C6
C2
FE
FE
C0
C0
C2
7E
3C
00
18
18
ENDCHAR
STARTCHAR uni1EC8
ENCODING 7880
SWIDTH 250 0
DWIDTH 5 0
BBX 2 19 2 0
BITMAP
C0
40
C0
80
00
80
80
80
80
80
80
80
80
80
80
80
80
80
80
ENDCHAR
STARTCHAR uni1EC9
ENCODING 7881
SWIDTH 234 0
DWIDTH 5 0
BBX 3 17 1 0
BITMAP
60
20
60
40
00
00
C0
C0
C0
C0
C0
C0
C0
C0
C0
C0
C0
ENDCHAR
STARTCHAR uni1ECA
ENCODING 7882
SWIDTH 250 0
DWIDTH 5 0
BBX 3 17 1 -3
BITMAP
40
40
40
40
40
40
40
40
40
40
40
40
40
40
00
C0
E0
ENDCHAR
STARTCHAR uni1ECB
ENCODING 7883
SWIDTH 229 0
DWIDTH 5 0
BBX 3 18 1 -3
BITMAP
40
60
00
00
40
40
40
40
40
40
40
40
40
40
40
00
C0
C0
ENDCHAR
STARTCHAR uni1ECC
ENCODING 7884
SWIDTH 600 0
DWIDTH 12 0
BBX 10 17 1 -3
BITMAP
1E00
3F80
6180
40C0
C0C0
C0C0
C0C0
C0C0
C0C0
C0C0
C0C0
6180
3F80
1E00
0000
0C00
0C00
ENDCHAR
STARTCHAR uni1ECD
ENCODING 7885
SWIDTH 501 0
DWIDTH 10 0
BBX 8 14 1 -3
BITMAP
3C
7E
E7
C3
C3
C3
C3
C3
E3
7E
3C
00
18
18
ENDCHAR
STARTCHAR uni1ECE
ENCODING 7886
SWIDTH 600 0
DWIDTH 12 0
BBX 10 19 1 0
BITMAP
0C00
0200
0E00
0C00
0000
1E00
3F80
6180
40C0
C0C0
C0C0
C0C0
C0C0
C0C0
C0C0
C0C0
6180
3F80
1E00
ENDCHAR
STARTCHAR uni1ECF
ENCODING 7887
SWIDTH 501 0
DWIDTH 10 0
BBX 8 17 1 0
BITMAP
18
0C
1C
18
00
00
3C
7E
E7
C3
C3
C3
C3
C3
E3
7E
3C
ENDCHAR
STARTCHAR uni1ED0
ENCODING 7888
SWIDTH 600 0
DWIDTH 12 0
BBX 11 20 1 0
BITMAP
00E0
00C0
0C80
1E00
3300
0000
1E00
3F80
6180
40C0
C0C0
C0C0
C0C0
C0C0
C0C0
C0C0
C0C0
6180
3F80
1E00
ENDCHAR
STARTCHAR uni1ED1
ENCODING 7889
SWIDTH 501 0
DWIDTH 10 0
BBX 9 17 1 0
BITMAP
0180
0180
1B00
3C00
6600
0000
3C00
7E00
E700
C300
C300
C300
C300
C300
E300
7E00
3C00
ENDCHAR
STARTCHAR uni1ED2
ENCODING 7890
SWIDTH 600 0
DWIDTH 12 0
BBX 10 20 1 0
BITMAP
C000
C000
6C00
1E00
3300
0000
1E00
3F80
6180
40C0
C0C0
C0C0
C0C0
C0C0
C0C0
C0C0
C0C0
6180
3F80
1E00
ENDCHAR
STARTCHAR uni1ED3
ENCODING 7891
SWIDTH 501 0
DWIDTH 10 0
BBX 10 17 -1 0
BITMAP
E000
6000
2600
0F00
1980
0000
0F00
1F80
39C0
30C0
30C0
30C0
30C0
30C0
38C0
1F80
0F00
ENDCHAR
STARTCHAR uni1ED4
ENCODING 7892
SWIDTH 600 0
DWIDTH 12 0
BBX 10 19 1 0
BITMAP
0180
0C80
1F00
3300
0000
1E00
3F80
6180
40C0
C0C0
C0C0
C0C0
C0C0
C0C0
C0C0
C0C0
6180
3F80
1E00
ENDCHAR
STARTCHAR uni1ED5
ENCODING 7893
SWIDTH 501 0
DWIDTH 10 0
BBX 8 16 1 0
BITMAP
03
19
2E
66
00
3C
7E
E7
C3
C3
C3
C3
C3
E3
7E
3C
ENDCHAR
STARTCHAR uni1ED6
ENCODING 7894
SWIDTH 600 0
DWIDTH 12 0
BBX 10 20 1 0
BITMAP
1A00
1600
0000
0C00
3300
0000
1E00
3F80
6180
40C0
C0C0
C0C0
C0C0
C0C0
C0C0
C0C0
C0C0
6180
3F80
1E00
ENDCHAR
STARTCHAR uni1ED7
ENCODING 7895
SWIDTH 501 0
DWIDTH 10 0
BBX 8 17 1 0
BITMAP
34
4C
00
38
66
00
3C
7E
E7
C3
C3
C3
C3
C3
E3
7E
3C
ENDCHAR
STARTCHAR uni1ED8
ENCODING 7896
SWIDTH 600 0
DWIDTH 12 0
BBX 10 21 1 -3
BITMAP
0C00
1E00
3300
0000
1E00
3F80
6180
40C0
C0C0
C0C0
C0C0
C0C0
C0C0
C0C0
C0C0
6180
3F80
1E00
0000
0C00
0C00
ENDCHAR
STARTCHAR uni1ED9
ENCODING 7897
SWIDTH 501 0
DWIDTH 10 0
BBX 8 19 1 -3
BITMAP
18
3C
64
00
00
3C
7E
E7
C3
C3
C3
C3
C3
E3
7E
3C
00
18
18
ENDCHAR
STARTCHAR uni1EDA
ENCODING 7898
SWIDTH 592 0
DWIDTH 12 0
BBX 11 18 1 0
BITMAP
0700
0600
0C60
0060
1E60
3FC0
6380
C180
C0C0
C0C0
C0C0
C0C0
C0C0
C080
C180
6180
3F00
1E00
ENDCHAR
STARTCHAR uni1EDB
ENCODING 7899
SWIDTH 502 0
DWIDTH 10 0
BBX 9 15 1 0
BITMAP
0E00
0C00
1800
0080
3C80
7F00
E700
C300
C300
C300
C300
C300
E600
7E00
3C00
ENDCHAR
STARTCHAR uni1EDC
ENCODING 7900
SWIDTH 592 0
DWIDTH 12 0
BBX 11 18 1 0
BITMAP
3000
1800
0C60
0060
1E60
3FC0
6380
C180
C0C0
C0C0
C0C0
C0C0
C0C0
C080
C180
6180
3F00
1E00
ENDCHAR
STARTCHAR uni1EDD
ENCODING 7901
SWIDTH 502 0
DWIDTH 10 0
BBX 9 15 1 0
BITMAP
6000
3000
1800
0080
3C80
7F00
E700
C300
C300
C300
C300
C300
E600
7E00
3C00
ENDCHAR
STARTCHAR uni1EDE
ENCODING 7902
SWIDTH 592 0
DWIDTH 12 0
BBX 11 19 1 0
BITMAP
0C00
0600
0E00
0C60
0060
1E60
3FC0
6380
C180
C0C0
C0C0
C0C0
C0C0
C0C0
C080
C180
6180
3F00
1E00
ENDCHAR
STARTCHAR uni1EDF
ENCODING 7903
SWIDTH 502 0
DWIDTH 10 0
BBX 9 17 1 0
BITMAP
1800
0C00
1C00
1800
0000
0080
3C80
7F00
E700
C300
C300
C300
C300
C300
E600
7E00
3C00
ENDCHAR
STARTCHAR uni1EE0
ENCODING 7904
SWIDTH 592 0
DWIDTH 12 0
BBX 11 17 1 0
BITMAP
1900
2660
0060
1E60
3FC0
6380
C180
C0C0
C0C0
C0C0
C0C0
C0C0
C080
C180
6180
3F00
1E00
ENDCHAR
STARTCHAR uni1EE1
ENCODING 7905
SWIDTH 502 0
DWIDTH 10 0
BBX 9 15 1 0
BITMAP
3200
4C00
0000
0080
3C80
7F00
E700
C300
C300
C300
C300
C300
E600
7E00
3C00
ENDCHAR
STARTCHAR uni1EE2
ENCODING 7906
SWIDTH 592 0
DWIDTH 12 0
BBX 11 19 1 -3
BITMAP
0060
0060
1E60
3FC0
6380
C180
C0C0
C0C0
C0C0
C0C0
C0C0
C080
C180
6180
3F00
1E00
0000
0C00
0C00
ENDCHAR
STARTCHAR uni1EE3
ENCODING 7907
SWIDTH 502 0
DWIDTH 10 0
BBX 9 15 1 -3
BITMAP
0080
3C80
7F00
E700
C300
C300
C300
C300
C300
E600
7E00
3C00
0000
1800
1800
ENDCHAR
STARTCHAR uni1EE4
ENCODING 7908
SWIDTH 561 0
DWIDTH 11 0
BBX 9 17 1 -3
BITMAP
C180
C180
C180
C180
C180
C180
C180
C180
C180
C180
C180
E380
7F00
3E00
0000
0C00
1C00
ENDCHAR
STARTCHAR uni1EE5
ENCODING 7909
SWIDTH 483 0
DWIDTH 10 0
BBX 8 14 1 -3
BITMAP
C3
C3
C3
C3
C3
C3
C3
C3
67
7F
3B
00
30
30
ENDCHAR
STARTCHAR uni1EE6
ENCODING 7910
SWIDTH 561 0
DWIDTH 11 0
BBX 9 19 1 0
BITMAP
0C00
0400
0C00
0800
0000
C180
C180
C180
C180
C180
C180
C180
C180
C180
C180
C180
E380
7F00
3E00
ENDCHAR
STARTCHAR uni1EE7
ENCODING 7911
SWIDTH 483 0
DWIDTH 10 0
BBX 8 17 1 0
BITMAP
18
0C
1C
10
00
00
C3
C3
C3
C3
C3
C3
C3
C3
67
7F
3B
ENDCHAR
STARTCHAR uni1EE8
ENCODING 7912
SWIDTH 608 0
DWIDTH 12 0
BBX 12 18 1 0
BITMAP
0700
0600
0C00
0010
C190
C1B0
C1E0
C180
C180
C180
C180
C180
C180
C180
C180
6380
7F00
3E00
ENDCHAR
STARTCHAR uni1EE9
ENCODING 7913
SWIDTH 549 0
DWIDTH 11 0
BBX 10 15 1 0
BITMAP
0E00
0C00
1800
0040
C2C0
C380
C200
C200
C200
C200
C200
C200
C600
7E00
3A00
ENDCHAR
STARTCHAR uni1EEA
ENCODING 7914
SWIDTH 608 0
DWIDTH 12 0
BBX 12 18 1 0
BITMAP
3000
1800
0C00
0010
C190
C1B0
C1E0
C180
C180
C180
C180
C180
C180
C180
C180
6380
7F00
3E00
ENDCHAR
STARTCHAR uni1EEB
ENCODING 7915
SWIDTH 549 0
DWIDTH 11 0
BBX 10 15 1 0
BITMAP
6000
3000
1800
0040
C2C0
C380
C200
C200
C200
C200
C200
C200
C600
7E00
3A00
ENDCHAR
STARTCHAR uni1EEC
ENCODING 7916
SWIDTH 608 0
DWIDTH 12 0
BBX 12 19 1 0
BITMAP
0C00
0600
0E00
0C00
0010
C190
C1B0
C1E0
C180
C180
C180
C180
C180
C180
C180
C180
6380
7F00
3E00
ENDCHAR
STARTCHAR uni1EED
ENCODING 7917
SWIDTH 549 0
DWIDTH 11 0
BBX 10 17 1 0
BITMAP
1800
0C00
1C00
1800
0000
0040
C2C0
C380
C200
C200
C200
C200
C200
C200
C600
7E00
3A00
ENDCHAR
STARTCHAR uni1EEE
ENCODING 7918
SWIDTH 608 0
DWIDTH 12 0
BBX 12 17 1 0
BITMAP
1900
2600
0010
C190
C1B0
C1E0
C180
C180
C180
C180
C180
C180
C180
C180
6380
7F00
3E00
ENDCHAR
STARTCHAR uni1EEF
ENCODING 7919
SWIDTH 549 0
DWIDTH 11 0
BBX 10 15 1 0
BITMAP
3200
4C00
0000
0040
C2C0
C380
C200
C200
C200
C200
C200
C200
C600
7E00
3A00
ENDCHAR
STARTCHAR uni1EF0
ENCODING 7920
SWIDTH 608 0
DWIDTH 12 0
BBX 12 18 1 -3
BITMAP
0010
C190
C1B0
C1E0
C180
C180
C180
C180
C180
C180
C180
C180
6380
7F00
3E00
0000
0C00
0C00
ENDCHAR
STARTCHAR uni1EF1
ENCODING 7921
SWIDTH 549 0
DWIDTH 11 0
BBX 10 15 1 -3
BITMAP
0040
C2C0
C380
C200
C200
C200
C200
C200
C200
C600
7E00
3A00
0000
1800
1800
ENDCHAR
STARTCHAR Ygrave
ENCODING 7922
SWIDTH 524 0
DWIDTH 10 0
BBX 10 18 0 0
BITMAP
3800
0C00
0C00
0000
E0C0
6080
6180
3180
3300
1B00
1E00
0E00
0C00
0C00
0C00
0C00
0C00
0C00
ENDCHAR
STARTCHAR ygrave
ENCODING 7923
SWIDTH 416 0
DWIDTH 8 0
BBX 8 19 0 -4
BITMAP
70
18
18
00
C3
42
66
66
24
24
3C
3C
18
18
18
18
30
70
60
ENDCHAR
STARTCHAR uni1EF4
ENCODING 7924
SWIDTH 524 0
DWIDTH 10 0
BBX 10 17 0 -3
BITMAP
E0C0
6080
6180
3180
3300
1B00
1E00
0E00
0C00
0C00
0C00
0C00
0C00
0C00
0000
0C00
0C00
ENDCHAR
STARTCHAR uni1EF5
ENCODING 7925
SWIDTH 416 0
DWIDTH 8 0
BBX 8 16 0 -5
BITMAP
C3
42
66
66
24
24
3C
3C
18
18
18
18
30
70
66
06
ENDCHAR
STARTCHAR uni1EF6
ENCODING 7926
SWIDTH 524 0
DWIDTH 10 0
BBX 10 19 0 0
BITMAP
0600
0200
0600
0400
0000
E0C0
6080
6180
3180
3300
1B00
1E00
0E00
0C00
0C00
0C00
0C00
0C00
0C00
ENDCHAR
STARTCHAR uni1EF7
ENCODING 7927
SWIDTH 416 0
DWIDTH 8 0
BBX 8 21 0 -4
BITMAP
0C
04
0C
08
00
00
C3
42
66
66
24
24
3C
3C
18
18
18
18
30
70
60
ENDCHAR
STARTCHAR uni1EF8
ENCODING 7928
SWIDTH 524 0
DWIDTH 10 0
BBX 10 17 0 0
BITMAP
1900
3700
0000
E0C0
6080
6180
3180
3300
1B00
1E00
0E00
0C00
0C00
0C00
0C00
0C00
0C00
ENDCHAR
STARTCHAR uni1EF9
ENCODING 7929
SWIDTH 416 0
DWIDTH 8 0
BBX 8 19 0 -4
BITMAP
32
6E
00
00
C3
42
66
66
24
24
3C
3C
18
18
18
18
30
70
60
ENDCHAR
STARTCHAR uni1F4D
ENCODING 8013
SWIDTH 634 0
DWIDTH 13 0
BBX 15 15 -4 0
BITMAP
D800
D8F8
D1FC
518E
0306
0302
0302
0302
0302
0302
0302
0306
018E
01FC
00F8
ENDCHAR
STARTCHAR uni2000
ENCODING 8192
SWIDTH 447 0
DWIDTH 9 0
BBX 1 1 0 0
BITMAP
00
ENDCHAR
STARTCHAR uni2001
ENCODING 8193
SWIDTH 876 0
DWIDTH 18 0
BBX 1 1 0 0
BITMAP
00
ENDCHAR
STARTCHAR uni2002
ENCODING 8194
SWIDTH 447 0
DWIDTH 9 0
BBX 1 1 0 0
BITMAP
00
ENDCHAR
STARTCHAR uni2003
ENCODING 8195
SWIDTH 876 0
DWIDTH 18 0
BBX 1 1 0 0
BITMAP
00
ENDCHAR
STARTCHAR uni2004
ENCODING 8196
SWIDTH 305 0
DWIDTH 6 0
BBX 1 1 0 0
BITMAP
00
ENDCHAR
STARTCHAR uni2005
ENCODING 8197
SWIDTH 233 0
DWIDTH 5 0
BBX 1 1 0 0
BITMAP
00
ENDCHAR
STARTCHAR uni2006
ENCODING 8198
SWIDTH 162 0
DWIDTH 3 0
BBX 1 1 0 0
BITMAP
00
ENDCHAR
STARTCHAR uni2007
ENCODING 8199
SWIDTH 491 0
DWIDTH 10 0
BBX 1 1 0 0
BITMAP
00
ENDCHAR
STARTCHAR uni2008
ENCODING 8200
SWIDTH 249 0
DWIDTH 5 0
BBX 1 1 0 0
BITMAP
00
ENDCHAR
STARTCHAR uni2009
ENCODING 8201
SWIDTH 190 0
DWIDTH 4 0
BBX 1 1 0 0
BITMAP
00
ENDCHAR
STARTCHAR uni200A
ENCODING 8202
SWIDTH 105 0
DWIDTH 2 0
BBX 1 1 0 0
BITMAP
00
ENDCHAR
STARTCHAR uni200B
ENCODING 8203
SWIDTH 0 0
DWIDTH 0 0
BBX 1 1 0 0
BITMAP
00
ENDCHAR
STARTCHAR uni2010
ENCODING 8208
SWIDTH 248 0
DWIDTH 5 0
BBX 5 2 0 5
BITMAP
F8
F8
ENDCHAR
STARTCHAR uni2011
ENCODING 8209
SWIDTH 248 0
DWIDTH 5 0
BBX 5 2 0 5
BITMAP
F8
F8
ENDCHAR
STARTCHAR endash
ENCODING 8211
SWIDTH 572 0
DWIDTH 11 0
BBX 8 2 2 6
BITMAP
FF
FF
ENDCHAR
STARTCHAR emdash
ENCODING 8212
SWIDTH 678 0
DWIDTH 14 0
BBX 10 2 2 6
BITMAP
FFC0
FFC0
ENDCHAR
STARTCHAR uni2015
ENCODING 8213
SWIDTH 678 0
DWIDTH 14 0
BBX 10 2 2 6
BITMAP
FFC0
FFC0
ENDCHAR
STARTCHAR underscoredbl
ENCODING 8215
SWIDTH 402 0
DWIDTH 8 0
BBX 8 5 0 -5
BITMAP
FF
FF
00
FF
FF
ENDCHAR
STARTCHAR quoteleft
ENCODING 8216
SWIDTH 194 0
DWIDTH 4 0
BBX 3 5 1 10
BITMAP
40
60
C0
C0
C0
ENDCHAR
STARTCHAR quoteright
ENCODING 8217
SWIDTH 194 0
DWIDTH 4 0
BBX 2 5 1 10
BITMAP
C0
C0
C0
C0
80
ENDCHAR
STARTCHAR quotesinglbase
ENCODING 8218
SWIDTH 194 0
DWIDTH 4 0
BBX 2 5 1 -3
BITMAP
C0
C0
C0
C0
80
ENDCHAR
STARTCHAR quotereversed
ENCODING 8219
SWIDTH 194 0
DWIDTH 4 0
BBX 2 5 1 10
BITMAP
C0
C0
C0
C0
40
ENDCHAR
STARTCHAR quotedblleft
ENCODING 8220
SWIDTH 333 0
DWIDTH 7 0
BBX 5 5 1 10
BITMAP
48
78
D8
D8
D8
ENDCHAR
STARTCHAR quotedblright
ENCODING 8221
SWIDTH 337 0
DWIDTH 7 0
BBX 5 5 1 10
BITMAP
58
58
D8
D0
B0
ENDCHAR
STARTCHAR quotedblbase
ENCODING 8222
SWIDTH 326 0
DWIDTH 7 0
BBX 5 5 1 -3
BITMAP
D8
D8
D8
D0
B0
ENDCHAR
STARTCHAR dagger
ENCODING 8224
SWIDTH 482 0
DWIDTH 10 0
BBX 8 14 1 0
BITMAP
18
18
18
FF
FF
18
18
18
18
18
18
18
18
18
ENDCHAR
STARTCHAR daggerdbl
ENCODING 8225
SWIDTH 500 0
DWIDTH 10 0
BBX 8 18 1 -4
BITMAP
18
18
18
FF
FF
18
18
18
18
18
18
18
FF
FF
18
18
18
18
ENDCHAR
STARTCHAR bullet
ENCODING 8226
SWIDTH 336 0
DWIDTH 7 0
BBX 4 4 1 5
BITMAP
70
F0
F0
70
ENDCHAR
STARTCHAR twodotenleader
ENCODING 8229
SWIDTH 420 0
DWIDTH 8 0
BBX 6 2 1 0
BITMAP
6C
EC
ENDCHAR
STARTCHAR ellipsis
ENCODING 8230
SWIDTH 590 0
DWIDTH 12 0
BBX 10 2 1 0
BITMAP
6CC0
ECC0
ENDCHAR
STARTCHAR uni2027
ENCODING 8231
SWIDTH 181 0
DWIDTH 4 0
BBX 2 2 1 5
BITMAP
C0
C0
ENDCHAR
STARTCHAR perthousand
ENCODING 8240
SWIDTH 818 0
DWIDTH 16 0
BBX 15 14 0 0
BITMAP
3000
4800
4880
C880
4900
4B00
3200
06EC
0532
0D32
0932
1132
1132
00EC
ENDCHAR
STARTCHAR minute
ENCODING 8242
SWIDTH 174 0
DWIDTH 3 0
BBX 1 5 1 10
BITMAP
80
80
80
80
80
ENDCHAR
STARTCHAR second
ENCODING 8243
SWIDTH 319 0
DWIDTH 6 0
BBX 4 5 1 10
BITMAP
D0
D0
D0
D0
90
ENDCHAR
STARTCHAR guilsinglleft
ENCODING 8249
SWIDTH 271 0
DWIDTH 5 0
BBX 4 8 1 1
BITMAP
30
20
40
C0
C0
40
20
30
ENDCHAR
STARTCHAR guilsinglright
ENCODING 8250
SWIDTH 271 0
DWIDTH 5 0
BBX 4 8 1 1
BITMAP
80
40
60
20
30
60
40
80
ENDCHAR
STARTCHAR exclamdbl
ENCODING 8252
SWIDTH 491 0
DWIDTH 10 0
BBX 6 14 2 0
BITMAP
8C
84
84
84
84
84
84
84
84
84
00
00
84
CC
ENDCHAR
STARTCHAR fraction
ENCODING 8260
SWIDTH 403 0
DWIDTH 8 0
BBX 6 12 1 1
BITMAP
04
04
0C
08
10
10
20
20
40
40
80
80
ENDCHAR
STARTCHAR uni2074
ENCODING 8308
SWIDTH 329 0
DWIDTH 7 0
BBX 5 8 1 6
BITMAP
30
30
50
50
90
F8
F8
10
ENDCHAR
STARTCHAR uni207F
ENCODING 8319
SWIDTH 374 0
DWIDTH 7 0
BBX 5 8 1 6
BITMAP
B0
D8
C8
C8
C8
C8
C8
C8
ENDCHAR
STARTCHAR franc
ENCODING 8355
SWIDTH 480 0
DWIDTH 10 0
BBX 9 14 0 0
BITMAP
3F80
3F80
2000
2000
2000
2000
3F00
3F00
2000
2000
FC00
FC00
2000
2000
ENDCHAR
STARTCHAR lira
ENCODING 8356
SWIDTH 510 0
DWIDTH 10 0
BBX 8 14 1 0
BITMAP
1E
3F
63
63
60
FC
FC
60
FC
FC
60
60
FF
FF
ENDCHAR
STARTCHAR uni20A6
ENCODING 8358
SWIDTH 691 0
DWIDTH 14 0
BBX 13 14 0 0
BITMAP
3030
3830
3830
3C30
3430
FFF8
FFF8
3330
FFF8
FFF8
30B0
30F0
3070
3070
ENDCHAR
STARTCHAR peseta
ENCODING 8359
SWIDTH 709 0
DWIDTH 14 0
BBX 12 14 1 0
BITMAP
FCC0
FEC0
C6C0
C3F0
C2C0
C2C0
C6C0
FCC0
F8C0
C0C0
C0C0
C0C0
C070
C070
ENDCHAR
STARTCHAR uni20A8
ENCODING 8360
SWIDTH 911 0
DWIDTH 18 0
BBX 15 14 2 0
BITMAP
FC00
FE00
C700
C33C
C37E
C3C6
C7C0
FE78
FC3C
CC0E
C606
C6C6
C37E
C33C
ENDCHAR
STARTCHAR uni20A9
ENCODING 8361
SWIDTH 634 0
DWIDTH 13 0
BBX 11 14 1 0
BITMAP
C460
CE60
CE60
CA60
4A40
FFE0
6AC0
6AC0
FFE0
3B80
3180
3180
3180
3180
ENDCHAR
STARTCHAR uni20AA
ENCODING 8362
SWIDTH 669 0
DWIDTH 13 0
BBX 11 11 1 0
BITMAP
FE60
FF60
C360
C360
DB60
DB60
DB60
D860
D860
DFE0
DFC0
ENDCHAR
STARTCHAR dong
ENCODING 8363
SWIDTH 510 0
DWIDTH 10 0
BBX 9 19 1 -4
BITMAP
0300
0F80
0F80
0300
3B00
7F00
C700
C300
C300
C300
C300
C300
C700
7F00
3B00
0000
0000
FF00
FF00
ENDCHAR
STARTCHAR Euro
ENCODING 8364
SWIDTH 493 0
DWIDTH 10 0
BBX 8 14 1 0
BITMAP
0F
1F
30
30
20
FC
FC
60
FC
FC
20
30
3F
0F
ENDCHAR
STARTCHAR uni20B1
ENCODING 8369
SWIDTH 648 0
DWIDTH 13 0
BBX 13 14 0 0
BITMAP
3F80
3FC0
30C0
FFF8
FFF8
3060
FFF8
FFF8
30C0
3FC0
3F80
3000
3000
3000
ENDCHAR
STARTCHAR uni20B9
ENCODING 8377
SWIDTH 462 0
DWIDTH 9 0
BBX 9 14 0 0
BITMAP
7F80
FF00
0600
7F80
FF00
0600
FC00
F800
6000
3000
3800
1800
0C00
0600
ENDCHAR
STARTCHAR uni20BA
ENCODING 8378
SWIDTH 500 0
DWIDTH 10 0
BBX 9 14 0 0
BITMAP
1000
1400
1C00
3800
F400
DC00
3980
F180
D180
1180
1180
1300
1F00
1C00
ENDCHAR
STARTCHAR uni20BC
ENCODING 8380
SWIDTH 575 0
DWIDTH 12 0
BBX 10 11 1 0
BITMAP
0C00
0C00
1E00
3F00
6D80
6D80
CCC0
CCC0
CCC0
CCC0
CCC0
ENDCHAR
STARTCHAR uni20BD
ENCODING 8381
SWIDTH 583 0
DWIDTH 12 0
BBX 11 14 0 0
BITMAP
3F80
3FC0
30E0
3060
3060
3060
30E0
FFC0
FF80
3000
FE00
FE00
3000
3000
ENDCHAR
STARTCHAR uni2105
ENCODING 8453
SWIDTH 640 0
DWIDTH 13 0
BBX 11 14 1 0
BITMAP
7000
D800
8180
8100
DB00
7200
0600
0400
09C0
0A60
1260
3260
2260
01C0
ENDCHAR
STARTCHAR uni2113
ENCODING 8467
SWIDTH 422 0
DWIDTH 8 0
BBX 6 15 1 0
BITMAP
18
3C
2C
64
6C
6C
6C
78
78
F0
E0
60
30
38
18
ENDCHAR
STARTCHAR uni2116
ENCODING 8470
SWIDTH 886 0
DWIDTH 18 0
BBX 15 14 2 0
BITMAP
C33C
C364
E366
A366
A366
B366
9364
9B3C
8B00
8F7C
8F00
8700
8700
8300
ENDCHAR
STARTCHAR trademark
ENCODING 8482
SWIDTH 547 0
DWIDTH 11 0
BBX 8 5 1 9
BITMAP
E9
49
4F
4F
4D
ENDCHAR
STARTCHAR Omega
ENCODING 8486
SWIDTH 581 0
DWIDTH 12 0
BBX 10 14 1 0
BITMAP
1E00
3F00
6380
6180
C080
C0C0
C0C0
C0C0
C080
4080
6180
2100
F380
F780
ENDCHAR
STARTCHAR estimated
ENCODING 8494
SWIDTH 636 0
DWIDTH 13 0
BBX 10 11 2 0
BITMAP
1E00
6100
4180
C180
C1C0
FFC0
C000
C000
C000
6100
1E00
ENDCHAR
STARTCHAR oneeighth
ENCODING 8539
SWIDTH 666 0
DWIDTH 13 0
BBX 11 14 1 0
BITMAP
6000
E100
A100
2200
2200
2400
25E0
29E0
0920
11E0
31E0
2120
21E0
01E0
ENDCHAR
STARTCHAR threeeighths
ENCODING 8540
SWIDTH 736 0
DWIDTH 15 0
BBX 13 14 1 0
BITMAP
7000
F840
0880
3880
3900
0900
FA70
72F0
0498
04F0
08F0
0898
10F8
0070
ENDCHAR
STARTCHAR fiveeighths
ENCODING 8541
SWIDTH 736 0
DWIDTH 15 0
BBX 13 14 1 0
BITMAP
F800
F880
C0C0
F180
F900
1B00
FA70
76F0
0498
0CF0
08F0
1898
10F8
0070
ENDCHAR
STARTCHAR seveneighths
ENCODING 8542
SWIDTH 692 0
DWIDTH 14 0
BBX 12 14 1 0
BITMAP
F800
F880
1900
1100
3200
2200
64E0
45F0
09B0
18E0
10F0
3190
21F0
00E0
ENDCHAR
STARTCHAR partialdiff
ENCODING 8706
SWIDTH 497 0
DWIDTH 10 0
BBX 8 15 1 0
BITMAP
78
7C
86
06
03
3B
7F
E3
C3
C3
C3
C3
66
7E
3C
ENDCHAR
STARTCHAR Delta
ENCODING 8710
SWIDTH 614 0
DWIDTH 12 0
BBX 12 14 0 0
BITMAP
0600
0700
0700
0D00
0D80
1980
1880
10C0
30C0
3040
2060
6060
7FE0
FFF0
ENDCHAR
STARTCHAR product
ENCODING 8719
SWIDTH 614 0
DWIDTH 12 0
BBX 9 16 2 -2
BITMAP
FF80
FF80
8180
8180
8180
8180
8180
8180
8180
8180
8180
8180
8180
8180
8180
8180
ENDCHAR
STARTCHAR summation
ENCODING 8721
SWIDTH 513 0
DWIDTH 10 0
BBX 9 17 1 -3
BITMAP
FF00
FF00
C000
6000
3000
3000
1800
0C00
0600
0C00
1800
1000
3000
6000
C000
FF80
FF80
ENDCHAR
STARTCHAR minus
ENCODING 8722
SWIDTH 499 0
DWIDTH 10 0
BBX 6 2 2 6
BITMAP
FC
FC
ENDCHAR
STARTCHAR radical
ENCODING 8730
SWIDTH 536 0
DWIDTH 11 0
BBX 9 14 1 0
BITMAP
0180
0180
0180
0300
0300
0300
E200
E600
2600
3400
3C00
1C00
1800
1800
ENDCHAR
STARTCHAR infinity
ENCODING 8734
SWIDTH 874 0
DWIDTH 17 0
BBX 15 11 1 0
BITMAP
3838
7CFC
C6CE
C386
8386
8106
8386
C386
C6CE
7CFC
3838
ENDCHAR
STARTCHAR integral
ENCODING 8747
SWIDTH 235 0
DWIDTH 5 0
BBX 6 19 0 -4
BITMAP
1C
3C
30
20
20
20
20
20
20
20
20
20
20
20
20
20
60
E0
C0
ENDCHAR
STARTCHAR approxequal
ENCODING 8776
SWIDTH 492 0
DWIDTH 10 0
BBX 8 7 1 3
BITMAP
71
FF
8E
00
71
FF
8E
ENDCHAR
STARTCHAR notequal
ENCODING 8800
SWIDTH 479 0
DWIDTH 10 0
BBX 7 11 1 1
BITMAP
04
06
04
FE
FE
08
10
FE
FE
20
40
ENDCHAR
STARTCHAR lessequal
ENCODING 8804
SWIDTH 445 0
DWIDTH 9 0
BBX 7 11 1 0
BITMAP
04
1C
38
E0
C0
78
1C
04
00
FE
FE
ENDCHAR
STARTCHAR greaterequal
ENCODING 8805
SWIDTH 460 0
DWIDTH 9 0
BBX 7 11 1 0
BITMAP
80
E0
3C
0E
06
3C
F0
C0
00
FE
FE
ENDCHAR
STARTCHAR lozenge
ENCODING 9674
SWIDTH 442 0
DWIDTH 9 0
BBX 7 14 1 0
BITMAP
10
38
28
6C
44
C6
C6
C6
C6
44
6C
28
38
10
ENDCHAR
STARTCHAR uniEE01
ENCODING 60929
SWIDTH 271 0
DWIDTH 5 0
BBX 2 10 2 2
BITMAP
C0
C0
00
00
00
00
00
00
C0
C0
ENDCHAR
STARTCHAR uniEE02
ENCODING 60930
SWIDTH 298 0
DWIDTH 6 0
BBX 4 4 1 7
BITMAP
90
90
90
90
ENDCHAR
STARTCHAR uniF6C3
ENCODING 63171
SWIDTH 235 0
DWIDTH 5 0
BBX 2 4 1 -2
BITMAP
40
40
C0
80
ENDCHAR
STARTCHAR uniFB01
ENCODING 64257
SWIDTH 489 0
DWIDTH 10 0
BBX 8 15 0 0
BITMAP
1E
3F
30
30
F9
F9
31
31
31
31
31
31
31
31
31
ENDCHAR
STARTCHAR uniFB02
ENCODING 64258
SWIDTH 503 0
DWIDTH 10 0
BBX 8 15 1 0
BITMAP
3E
7F
63
63
FB
FB
63
63
63
63
63
63
63
63
63
ENDCHAR
STARTCHAR uniFB03
ENCODING 64259
SWIDTH 744 0
DWIDTH 15 0
BBX 12 15 1 0
BITMAP
39E0
7BF0
6300
6300
FF90
FF90
6310
6310
6310
6310
6310
6310
6310
6310
6310
ENDCHAR
STARTCHAR uniFB04
ENCODING 64260
SWIDTH 744 0
DWIDTH 15 0
BBX 12 15 1 0
BITMAP
39F0
7BF0
6310
6310
FF90
FF90
6310
6310
6310
6310
6310
6310
6310
6310
6310
ENDCHAR
STARTCHAR uniFEFF
ENCODING 65279
SWIDTH 0 0
DWIDTH 0 0
BBX 1 1 0 0
BITMAP
00
ENDCHAR
STARTCHAR uniFFFC
ENCODING 65532
SWIDTH 1024 0
DWIDTH 21 0
BBX 19 18 1 -4
BITMAP
EEEEE0
800020
800020
000000
800020
800020
0EF080
9290A0
92E0A0
9294A0
0EF700
800020
800020
800020
000000
800020
800020
EEEEE0
ENDCHAR
STARTCHAR uniFFFD
ENCODING 65533
SWIDTH 1025 0
DWIDTH 21 0
BBX 19 19 1 -3
BITMAP
004000
00E000
01F000
03F800
07FC00
0E1E00
1C0F00
3CCF80
7FCFC0
FF8FE0
7F1FC0
3F3F80
1FFF00
0F3E00
073C00
03F800
01F000
00E000
004000
ENDCHAR
STARTCHAR .notdef
ENCODING -1
SWIDTH 392 0
DWIDTH 8 0
BBX 6 14 1 0
BITMAP
FC
84
8C
D4
D4
B4
A4
A4
B4
D4
D4
8C
84
FC
ENDCHAR
STARTCHAR glyph369
ENCODING -1
SWIDTH 364 0
DWIDTH 7 0
BBX 5 4 1 11
BITMAP
D8
D8
D0
50
ENDCHAR
STARTCHAR uni2009.locl
ENCODING -1
SWIDTH 124 0
DWIDTH 2 0
BBX 1 1 0 0
BITMAP
00
ENDCHAR
STARTCHAR f_f.dlig
ENCODING -1
SWIDTH 546 0
DWIDTH 11 0
BBX 11 15 0 0
BITMAP
1CE0
3DC0
3100
3300
FFC0
FFC0
3300
3300
3300
3300
3300
3300
3300
3300
3300
ENDCHAR
STARTCHAR longs_t.dlig
ENCODING -1
SWIDTH 544 0
DWIDTH 11 0
BBX 9 15 1 0
BITMAP
3E00
7E00
6200
6200
EF80
EF80
6200
6200
6200
6200
6200
6200
6300
6380
6380
ENDCHAR
STARTCHAR s_t.dlig
ENCODING -1
SWIDTH 710 0
DWIDTH 14 0
BBX 12 15 1 0
BITMAP
0380
07C0
0C60
0460
3DF0
7FF0
C660
C660
E060
7860
1C60
0660
C660
FE70
7C30
ENDCHAR
STARTCHAR two.dnom
ENCODING -1
SWIDTH 329 0
DWIDTH 7 0
BBX 5 8 1 0
BITMAP
70
F8
98
10
20
40
F8
F8
ENDCHAR
STARTCHAR one.dnom
ENCODING -1
SWIDTH 329 0
DWIDTH 7 0
BBX 3 8 1 0
BITMAP
20
E0
E0
20
20
20
20
20
ENDCHAR
STARTCHAR zero.dnom
ENCODING -1
SWIDTH 329 0
DWIDTH 7 0
BBX 5 8 1 0
BITMAP
70
F8
D8
98
98
D8
F8
70
ENDCHAR
STARTCHAR nine.c2sc
ENCODING -1
SWIDTH 447 0
DWIDTH 9 0
BBX 7 11 1 0
BITMAP
78
FC
C6
C6
C6
FE
7E
06
0C
7C
70
ENDCHAR
STARTCHAR eight.c2sc
ENCODING -1
SWIDTH 447 0
DWIDTH 9 0
BBX 7 11 1 0
BITMAP
7C
7C
C6
C6
7C
7C
C6
C6
C6
FE
7C
ENDCHAR
STARTCHAR seven.c2sc
ENCODING -1
SWIDTH 447 0
DWIDTH 9 0
BBX 7 11 1 0
BITMAP
FE
FE
06
04
0C
08
18
10
30
30
60
ENDCHAR
STARTCHAR six.c2sc
ENCODING -1
SWIDTH 447 0
DWIDTH 9 0
BBX 7 11 1 0
BITMAP
1C
7C
60
C0
DC
FE
C6
C6
C6
7E
3C
ENDCHAR
STARTCHAR five.c2sc
ENCODING -1
SWIDTH 447 0
DWIDTH 9 0
BBX 7 11 1 0
BITMAP
7E
7E
40
40
7C
7E
46
06
C6
7E
3C
ENDCHAR
STARTCHAR four.c2sc
ENCODING -1
SWIDTH 447 0
DWIDTH 9 0
BBX 7 11 1 0
BITMAP
0C
1C
1C
3C
6C
4C
CC
FE
FE
0C
0C
ENDCHAR
STARTCHAR three.c2sc
ENCODING -1
SWIDTH 447 0
DWIDTH 9 0
BBX 7 11 1 0
BITMAP
78
FC
C6
06
3C
3C
06
C6
C6
FC
78
ENDCHAR
STARTCHAR two.c2sc
ENCODING -1
SWIDTH 447 0
DWIDTH 9 0
BBX 7 11 1 0
BITMAP
78
FC
C6
C6
04
0C
18
30
60
FE
FE
ENDCHAR
STARTCHAR one.c2sc
ENCODING -1
SWIDTH 447 0
DWIDTH 9 0
BBX 5 11 1 0
BITMAP
08
78
F8
D8
18
18
18
18
18
18
18
ENDCHAR
STARTCHAR zero.c2sc
ENCODING -1
SWIDTH 447 0
DWIDTH 9 0
BBX 7 11 1 0
BITMAP
38
7C
C6
C6
C6
C6
C6
C6
C6
7C
38
ENDCHAR
STARTCHAR Z.c2sc
ENCODING -1
SWIDTH 454 0
DWIDTH 9 0
BBX 7 11 1 0
BITMAP
FE
FE
06
0C
18
10
30
60
C0
FE
FE
ENDCHAR
STARTCHAR Y.c2sc
ENCODING -1
SWIDTH 458 0
DWIDTH 9 0
BBX 9 11 0 0
BITMAP
C180
6300
6300
3600
3600
1C00
1C00
0800
0800
0800
0800
ENDCHAR
STARTCHAR X.c2sc
ENCODING -1
SWIDTH 478 0
DWIDTH 10 0
BBX 9 11 0 0
BITMAP
6180
6300
3300
1600
1C00
0C00
1C00
1600
3300
6300
E180
ENDCHAR
STARTCHAR W.c2sc
ENCODING -1
SWIDTH 655 0
DWIDTH 13 0
BBX 12 11 1 0
BITMAP
8430
CE20
CE60
CA60
4A60
4B40
5940
71C0
71C0
31C0
3180
ENDCHAR
STARTCHAR V.c2sc
ENCODING -1
SWIDTH 487 0
DWIDTH 10 0
BBX 9 11 0 0
BITMAP
C180
6180
6180
2100
3300
3300
1200
1600
1E00
0C00
0C00
ENDCHAR
STARTCHAR U.c2sc
ENCODING -1
SWIDTH 488 0
DWIDTH 10 0
BBX 8 11 1 0
BITMAP
C3
C3
C3
C3
C3
C3
C3
C3
E7
7E
3C
ENDCHAR
STARTCHAR T.c2sc
ENCODING -1
SWIDTH 456 0
DWIDTH 9 0
BBX 8 11 1 0
BITMAP
FF
FF
10
10
10
10
10
10
10
10
10
ENDCHAR
STARTCHAR S.c2sc
ENCODING -1
SWIDTH 453 0
DWIDTH 9 0
BBX 7 11 1 0
BITMAP
78
FC
C6
C2
F8
3C
06
82
C6
7E
3C
ENDCHAR
STARTCHAR R.c2sc
ENCODING -1
SWIDTH 465 0
DWIDTH 9 0
BBX 8 11 1 0
BITMAP
FC
FE
C6
C2
C6
FE
FC
CC
C6
C6
C3
ENDCHAR
STARTCHAR Q.c2sc
ENCODING -1
SWIDTH 519 0
DWIDTH 10 0
BBX 8 13 1 -2
BITMAP
3C
7E
C7
C3
83
83
83
C3
C7
7E
3E
03
02
ENDCHAR
STARTCHAR P.c2sc
ENCODING -1
SWIDTH 481 0
DWIDTH 10 0
BBX 8 11 1 0
BITMAP
FC
FF
C3
C3
C3
FF
FE
C0
C0
C0
C0
ENDCHAR
STARTCHAR O.c2sc
ENCODING -1
SWIDTH 519 0
DWIDTH 10 0
BBX 8 11 1 0
BITMAP
3C
7E
C3
C3
C3
81
C3
C3
E3
7E
3C
ENDCHAR
STARTCHAR N.c2sc
ENCODING -1
SWIDTH 533 0
DWIDTH 11 0
BBX 8 11 1 0
BITMAP
C1
E1
E1
F1
D9
C9
CD
C5
C7
C3
C3
ENDCHAR
STARTCHAR M.c2sc
ENCODING -1
SWIDTH 652 0
DWIDTH 13 0
BBX 11 11 1 0
BITMAP
E0E0
E0E0
E0E0
F1E0
F160
D160
DB60
CA60
CA60
CE60
C460
ENDCHAR
STARTCHAR L.c2sc
ENCODING -1
SWIDTH 411 0
DWIDTH 8 0
BBX 7 11 1 0
BITMAP
C0
C0
C0
C0
C0
C0
C0
C0
C0
FE
FE
ENDCHAR
STARTCHAR K.c2sc
ENCODING -1
SWIDTH 473 0
DWIDTH 9 0
BBX 8 11 1 0
BITMAP
C7
C6
CC
D8
F0
F0
F8
CC
CC
C6
C3
ENDCHAR
STARTCHAR J.c2sc
ENCODING -1
SWIDTH 419 0
DWIDTH 8 0
BBX 7 11 0 0
BITMAP
06
06
06
06
06
06
06
06
C6
7E
3C
ENDCHAR
STARTCHAR I.c2sc
ENCODING -1
SWIDTH 221 0
DWIDTH 4 0
BBX 2 11 1 0
BITMAP
C0
C0
C0
C0
C0
C0
C0
C0
C0
C0
C0
ENDCHAR
STARTCHAR H.c2sc
ENCODING -1
SWIDTH 533 0
DWIDTH 11 0
BBX 8 11 1 0
BITMAP
C1
C1
C1
C1
FF
FF
C1
C1
C1
C1
C1
ENDCHAR
STARTCHAR G.c2sc
ENCODING -1
SWIDTH 509 0
DWIDTH 10 0
BBX 8 11 1 0
BITMAP
3C
7E
E3
C0
C0
CF
CF
C3
E3
7F
3E
ENDCHAR
STARTCHAR F.c2sc
ENCODING -1
SWIDTH 415 0
DWIDTH 8 0
BBX 7 11 1 0
BITMAP
FE
FE
C0
C0
C0
FC
FC
C0
C0
C0
C0
ENDCHAR
STARTCHAR dollar.c2sc
ENCODING -1
SWIDTH 453 0
DWIDTH 9 0
BBX 7 15 1 -2
BITMAP
10
10
7C
FE
C6
C0
78
3C
0E
82
C6
FE
7C
10
10
ENDCHAR
STARTCHAR sterling.c2sc
ENCODING -1
SWIDTH 467 0
DWIDTH 9 0
BBX 8 11 0 0
BITMAP
1E
3F
33
20
20
FE
20
20
60
7F
7F
ENDCHAR
STARTCHAR yen.c2sc
ENCODING -1
SWIDTH 400 0
DWIDTH 8 0
BBX 8 11 0 0
BITMAP
C3
66
66
24
3C
38
7E
18
7E
18
18
ENDCHAR
STARTCHAR Gamma.c2sc
ENCODING -1
SWIDTH 405 0
DWIDTH 8 0
BBX 7 11 1 0
BITMAP
FE
FE
C0
C0
C0
C0
C0
C0
C0
C0
C0
ENDCHAR
STARTCHAR Delta.c2sc
ENCODING -1
SWIDTH 487 0
DWIDTH 10 0
BBX 10 11 0 0
BITMAP
0C00
0C00
1E00
1E00
1200
3300
3300
2100
6180
7F80
FFC0
ENDCHAR
STARTCHAR Theta.c2sc
ENCODING -1
SWIDTH 519 0
DWIDTH 10 0
BBX 8 11 1 0
BITMAP
3C
7E
C3
C3
FF
BD
C3
C3
E3
7E
3C
ENDCHAR
STARTCHAR Lambda.c2sc
ENCODING -1
SWIDTH 487 0
DWIDTH 10 0
BBX 10 11 0 0
BITMAP
0C00
0C00
1E00
1E00
1200
3300
3300
2100
6180
6180
C0C0
ENDCHAR
STARTCHAR Xi.c2sc
ENCODING -1
SWIDTH 389 0
DWIDTH 8 0
BBX 6 11 1 0
BITMAP
FC
FC
00
00
FC
FC
00
00
00
FC
FC
ENDCHAR
STARTCHAR Pi.c2sc
ENCODING -1
SWIDTH 525 0
DWIDTH 11 0
BBX 8 11 2 0
BITMAP
FF
FF
83
83
83
83
83
83
83
83
83
ENDCHAR
STARTCHAR Sigma.c2sc
ENCODING -1
SWIDTH 435 0
DWIDTH 9 0
BBX 7 11 1 0
BITMAP
FE
FE
C0
60
30
38
30
60
C0
FE
FE
ENDCHAR
STARTCHAR Phi.c2sc
ENCODING -1
SWIDTH 587 0
DWIDTH 12 0
BBX 10 11 1 0
BITMAP
0C00
3F00
7F80
EDC0
CCC0
CCC0
CCC0
EDC0
7F80
3F00
0C00
ENDCHAR
STARTCHAR Psi.c2sc
ENCODING -1
SWIDTH 560 0
DWIDTH 11 0
BBX 9 11 1 0
BITMAP
C980
C980
C980
C980
C980
C980
EB80
7F00
3E00
0800
0800
ENDCHAR
STARTCHAR Omega.c2sc
ENCODING -1
SWIDTH 540 0
DWIDTH 11 0
BBX 9 11 1 0
BITMAP
3E00
7F00
6300
C180
C180
C180
C180
4100
6300
F780
F780
ENDCHAR
STARTCHAR uni0402.c2sc
ENCODING -1
SWIDTH 596 0
DWIDTH 12 0
BBX 10 11 1 0
BITMAP
FE00
FE00
3000
3000
3F80
3FC0
30C0
30C0
30C0
33C0
3380
ENDCHAR
STARTCHAR uni0404.c2sc
ENCODING -1
SWIDTH 490 0
DWIDTH 10 0
BBX 8 11 1 0
BITMAP
3C
7E
43
C3
F8
F8
C0
C3
E3
7E
3C
ENDCHAR
STARTCHAR uni0409.c2sc
ENCODING -1
SWIDTH 782 0
DWIDTH 16 0
BBX 14 11 1 0
BITMAP
3F00
3F00
2100
2100
21F8
21FC
610C
610C
610C
E1FC
C1F0
ENDCHAR
STARTCHAR uni040A.c2sc
ENCODING -1
SWIDTH 788 0
DWIDTH 16 0
BBX 14 11 1 0
BITMAP
C100
C100
C100
C100
FFF8
FFFC
C10C
C10C
C10C
C1FC
C1F8
ENDCHAR
STARTCHAR uni040B.c2sc
ENCODING -1
SWIDTH 596 0
DWIDTH 12 0
BBX 10 11 1 0
BITMAP
FE00
FE00
3000
3000
3F80
3FC0
30C0
30C0
30C0
30C0
30C0
ENDCHAR
STARTCHAR uni040F.c2sc
ENCODING -1
SWIDTH 524 0
DWIDTH 11 0
BBX 8 14 1 -3
BITMAP
C1
C1
C1
C1
C1
C1
C1
C1
C1
FF
FF
08
08
08
ENDCHAR
STARTCHAR uni0411.c2sc
ENCODING -1
SWIDTH 479 0
DWIDTH 10 0
BBX 8 11 1 0
BITMAP
FE
FE
C0
C0
FC
FE
C3
C3
C3
FE
FC
ENDCHAR
STARTCHAR uni0414.c2sc
ENCODING -1
SWIDTH 563 0
DWIDTH 11 0
BBX 11 14 0 -3
BITMAP
1F80
1F80
1080
1080
1080
1080
3080
3080
2080
FFE0
FFE0
C060
C060
C060
ENDCHAR
STARTCHAR uni0416.c2sc
ENCODING -1
SWIDTH 651 0
DWIDTH 13 0
BBX 13 11 0 0
BITMAP
6230
3260
3260
1AC0
1FC0
1FC0
1AC0
3260
3260
6230
E238
ENDCHAR
STARTCHAR uni0417.c2sc
ENCODING -1
SWIDTH 466 0
DWIDTH 9 0
BBX 7 11 1 0
BITMAP
7C
FE
C6
06
3C
3C
06
06
C6
FE
78
ENDCHAR
STARTCHAR uni0418.c2sc
ENCODING -1
SWIDTH 537 0
DWIDTH 11 0
BBX 9 11 1 0
BITMAP
C180
C380
C780
C780
CD80
C980
D980
D180
F180
E180
C180
ENDCHAR
STARTCHAR uni041A.c2sc
ENCODING -1
SWIDTH 473 0
DWIDTH 9 0
BBX 8 11 1 0
BITMAP
C7
CC
CC
D8
F0
F0
D8
DC
CC
C6
C7
ENDCHAR
STARTCHAR uni041B.c2sc
ENCODING -1
SWIDTH 521 0
DWIDTH 10 0
BBX 9 11 0 0
BITMAP
3F80
3F80
3180
3180
3180
3180
3180
3180
3180
E180
C180
ENDCHAR
STARTCHAR uni0423.c2sc
ENCODING -1
SWIDTH 454 0
DWIDTH 9 0
BBX 9 11 0 0
BITMAP
E180
6300
6300
3200
3600
1600
1C00
1C00
1800
3800
3000
ENDCHAR
STARTCHAR uni0426.c2sc
ENCODING -1
SWIDTH 564 0
DWIDTH 11 0
BBX 10 14 1 -3
BITMAP
C300
C300
C300
C300
C300
C300
C300
C300
C300
FFC0
FF80
0080
0080
0080
ENDCHAR
STARTCHAR uni0427.c2sc
ENCODING -1
SWIDTH 487 0
DWIDTH 10 0
BBX 8 11 1 0
BITMAP
C3
C3
C3
C3
C3
C3
FF
7F
03
03
03
ENDCHAR
STARTCHAR uni0428.c2sc
ENCODING -1
SWIDTH 691 0
DWIDTH 14 0
BBX 12 11 1 0
BITMAP
C630
C630
C630
C630
C630
C630
C630
C630
C630
FFF0
FFF0
ENDCHAR
STARTCHAR uni0429.c2sc
ENCODING -1
SWIDTH 731 0
DWIDTH 15 0
BBX 13 14 1 -3
BITMAP
C630
C630
C630
C630
C630
C630
C630
C630
C630
FFF8
FFF8
0008
0008
0008
ENDCHAR
STARTCHAR uni042A.c2sc
ENCODING -1
SWIDTH 559 0
DWIDTH 11 0
BBX 10 11 0 0
BITMAP
F800
F800
1800
1800
1F80
1FC0
18C0
1840
18C0
1FC0
1F80
ENDCHAR
STARTCHAR uni042B.c2sc
ENCODING -1
SWIDTH 658 0
DWIDTH 13 0
BBX 10 11 2 0
BITMAP
80C0
80C0
80C0
80C0
F8C0
FEC0
86C0
86C0
86C0
FCC0
F8C0
ENDCHAR
STARTCHAR uni042C.c2sc
ENCODING -1
SWIDTH 475 0
DWIDTH 10 0
BBX 7 11 2 0
BITMAP
80
80
80
80
F8
FE
86
86
86
FC
F8
ENDCHAR
STARTCHAR uni042D.c2sc
ENCODING -1
SWIDTH 491 0
DWIDTH 10 0
BBX 8 11 1 0
BITMAP
3C
7E
C2
C3
1F
1F
03
C3
C7
7E
3C
ENDCHAR
STARTCHAR uni042E.c2sc
ENCODING -1
SWIDTH 705 0
DWIDTH 14 0
BBX 12 11 1 0
BITMAP
C3C0
C7E0
CC70
CC30
F830
F830
C830
CC30
CC70
C7E0
C3C0
ENDCHAR
STARTCHAR uni042F.c2sc
ENCODING -1
SWIDTH 499 0
DWIDTH 10 0
BBX 8 11 1 0
BITMAP
3F
7F
C3
C3
C3
7F
3F
23
63
43
C3
ENDCHAR
STARTCHAR uni0492.c2sc
ENCODING -1
SWIDTH 444 0
DWIDTH 9 0
BBX 8 11 0 0
BITMAP
3F
3F
30
30
30
FC
FC
30
30
30
30
ENDCHAR
STARTCHAR uni0496.c2sc
ENCODING -1
SWIDTH 676 0
DWIDTH 14 0
BBX 12 14 1 -3
BITMAP
C670
6660
66C0
3680
1F80
3F80
36C0
66C0
6660
E670
C670
0010
0010
0010
ENDCHAR
STARTCHAR uni049A.c2sc
ENCODING -1
SWIDTH 492 0
DWIDTH 10 0
BBX 8 14 1 -3
BITMAP
C7
C6
CC
D8
F0
F8
D8
CC
CE
C7
C3
01
01
01
ENDCHAR
STARTCHAR uni049C.c2sc
ENCODING -1
SWIDTH 562 0
DWIDTH 11 0
BBX 10 11 1 0
BITMAP
C180
C300
D600
D600
FC00
FC00
D600
D600
C300
C180
C1C0
ENDCHAR
STARTCHAR uni04A0.c2sc
ENCODING -1
SWIDTH 571 0
DWIDTH 11 0
BBX 11 11 0 0
BITMAP
F8E0
F980
1980
1B00
1E00
1E00
1B00
1B80
1980
18C0
18E0
ENDCHAR
STARTCHAR uni04A8.c2sc
ENCODING -1
SWIDTH 625 0
DWIDTH 13 0
BBX 11 11 1 0
BITMAP
3380
77C0
6CC0
CC40
CC40
CC40
CC40
C6C0
6780
3FE0
1EE0
ENDCHAR
STARTCHAR uni04B0.c2sc
ENCODING -1
SWIDTH 480 0
DWIDTH 10 0
BBX 9 11 0 0
BITMAP
C180
6300
6300
3600
3600
1C00
3E00
3E00
0800
0800
0800
ENDCHAR
STARTCHAR uni04B2.c2sc
ENCODING -1
SWIDTH 514 0
DWIDTH 10 0
BBX 10 14 0 -3
BITMAP
E180
6300
3600
3600
1C00
0C00
1C00
3600
3300
63C0
61C0
80C0
00C0
00C0
ENDCHAR
STARTCHAR uni04B4.c2sc
ENCODING -1
SWIDTH 695 0
DWIDTH 14 0
BBX 12 14 1 -3
BITMAP
FE40
FE40
3040
3040
3040
3040
3040
3040
3040
3FF0
3FF0
0030
0030
0030
ENDCHAR
STARTCHAR uni04B8.c2sc
ENCODING -1
SWIDTH 487 0
DWIDTH 10 0
BBX 8 11 1 0
BITMAP
C3
C3
C3
C3
D3
D3
FF
7F
13
13
03
ENDCHAR
STARTCHAR uni04BA.c2sc
ENCODING -1
SWIDTH 487 0
DWIDTH 10 0
BBX 8 11 1 0
BITMAP
C0
C0
C0
C0
FE
FF
C3
C3
C3
C3
C3
ENDCHAR
STARTCHAR uni04BC.c2sc
ENCODING -1
SWIDTH 632 0
DWIDTH 13 0
BBX 12 11 0 0
BITMAP
03C0
0FE0
0C60
D830
5830
7FF0
3FF0
1800
0C40
0FE0
07C0
ENDCHAR
STARTCHAR uni04D8.c2sc
ENCODING -1
SWIDTH 527 0
DWIDTH 11 0
BBX 9 11 1 0
BITMAP
3C00
7F00
4300
0180
0180
FF80
FF80
C180
6300
7F00
3E00
ENDCHAR
STARTCHAR uni04E0.c2sc
ENCODING -1
SWIDTH 466 0
DWIDTH 9 0
BBX 7 11 1 0
BITMAP
FE
FE
0C
18
38
3C
06
06
C6
FE
78
ENDCHAR
STARTCHAR uni04E8.c2sc
ENCODING -1
SWIDTH 519 0
DWIDTH 10 0
BBX 8 11 1 0
BITMAP
3C
7E
C3
C3
FF
FF
C3
C3
E3
7E
3C
ENDCHAR
STARTCHAR lira.c2sc
ENCODING -1
SWIDTH 467 0
DWIDTH 9 0
BBX 8 11 0 0
BITMAP
1E
3F
33
23
20
FE
20
FE
20
7F
7F
ENDCHAR
STARTCHAR Euro.c2sc
ENCODING -1
SWIDTH 433 0
DWIDTH 9 0
BBX 7 11 1 0
BITMAP
1E
3E
70
60
FC
60
FC
60
70
3E
1E
ENDCHAR
STARTCHAR uni2116.c2sc
ENCODING -1
SWIDTH 884 0
DWIDTH 18 0
BBX 16 11 1 0
BITMAP
C19C
E1B2
F1A3
D1A3
D9A3
C9B2
CD9C
C580
C7BE
C380
C180
ENDCHAR
STARTCHAR uni20BD.c2sc
ENCODING -1
SWIDTH 512 0
DWIDTH 10 0
BBX 9 11 0 0
BITMAP
3F00
3F80
3180
3080
3180
FF80
FF00
3000
FC00
FC00
3000
ENDCHAR
STARTCHAR three.dnom
ENCODING -1
SWIDTH 329 0
DWIDTH 7 0
BBX 5 8 1 0
BITMAP
70
F8
18
30
38
18
F8
70
ENDCHAR
STARTCHAR four.dnom
ENCODING -1
SWIDTH 329 0
DWIDTH 7 0
BBX 5 8 1 0
BITMAP
30
30
50
50
90
F8
F8
10
ENDCHAR
STARTCHAR five.dnom
ENCODING -1
SWIDTH 329 0
DWIDTH 7 0
BBX 5 8 1 0
BITMAP
F0
F0
C0
F0
F8
18
F8
70
ENDCHAR
STARTCHAR six.dnom
ENCODING -1
SWIDTH 329 0
DWIDTH 7 0
BBX 5 8 1 0
BITMAP
30
70
C0
F0
F8
C8
F8
70
ENDCHAR
STARTCHAR seven.dnom
ENCODING -1
SWIDTH 329 0
DWIDTH 7 0
BBX 5 8 1 0
BITMAP
F8
F8
10
10
20
20
60
C0
ENDCHAR
STARTCHAR eight.dnom
ENCODING -1
SWIDTH 329 0
DWIDTH 7 0
BBX 5 8 1 0
BITMAP
70
F8
D8
70
F0
D8
F8
70
ENDCHAR
STARTCHAR nine.dnom
ENCODING -1
SWIDTH 329 0
DWIDTH 7 0
BBX 5 8 1 0
BITMAP
70
F8
98
F8
78
18
70
60
ENDCHAR
STARTCHAR glyph550
ENCODING -1
SWIDTH 404 0
DWIDTH 8 0
BBX 6 2 1 6
BITMAP
FC
FC
ENDCHAR
STARTCHAR glyph551
ENCODING -1
SWIDTH 306 0
DWIDTH 6 0
BBX 4 5 1 11
BITMAP
30
20
60
A0
60
ENDCHAR
STARTCHAR E.c2sc
ENCODING -1
SWIDTH 428 0
DWIDTH 9 0
BBX 7 11 1 0
BITMAP
FE
FE
C0
C0
FC
FC
C0
C0
C0
FE
FE
ENDCHAR
STARTCHAR g.ss01
ENCODING -1
SWIDTH 463 0
DWIDTH 9 0
BBX 9 15 0 -4
BITMAP
3F80
7F00
6300
4300
6300
7E00
3C00
6000
6000
7E00
7F00
C180
C300
FF00
3E00
ENDCHAR
STARTCHAR alpha.ss02
ENCODING -1
SWIDTH 523 0
DWIDTH 10 0
BBX 8 11 1 0
BITMAP
3B
7F
C7
C7
C2
82
C2
C7
C7
7F
39
ENDCHAR
STARTCHAR R.ss03
ENCODING -1
SWIDTH 577 0
DWIDTH 12 0
BBX 9 14 2 0
BITMAP
FE00
FF00
C300
C300
C300
C300
FE00
FE00
C300
C300
C300
C300
C300
C180
ENDCHAR
STARTCHAR K.ss04
ENCODING -1
SWIDTH 560 0
DWIDTH 11 0
BBX 9 14 2 0
BITMAP
8380
8700
8600
8C00
9C00
9800
F000
F800
9800
8C00
8E00
8600
8300
8180
ENDCHAR
STARTCHAR k.ss04
ENCODING -1
SWIDTH 453 0
DWIDTH 9 0
BBX 8 15 1 0
BITMAP
C0
C0
C0
C0
C6
C6
CC
D8
F8
F8
D8
CC
CE
C6
C3
ENDCHAR
STARTCHAR K.ss05
ENCODING -1
SWIDTH 572 0
DWIDTH 11 0
BBX 9 14 2 0
BITMAP
8380
8600
8E00
8C00
9800
B000
F000
F000
B800
9800
8C00
8600
8700
8380
ENDCHAR
STARTCHAR k.ss05
ENCODING -1
SWIDTH 454 0
DWIDTH 9 0
BBX 8 15 1 0
BITMAP
C0
C0
C0
C0
C6
CC
D8
D8
F0
F0
F0
D8
CC
CE
C7
ENDCHAR
STARTCHAR D.c2sc
ENCODING -1
SWIDTH 492 0
DWIDTH 10 0
BBX 8 11 1 0
BITMAP
FC
FE
C6
C3
C3
C3
C3
C3
C6
FE
F8
ENDCHAR
STARTCHAR C.c2sc
ENCODING -1
SWIDTH 490 0
DWIDTH 10 0
BBX 8 11 1 0
BITMAP
3C
7E
63
C3
C0
C0
C0
C3
E3
7E
3C
ENDCHAR
STARTCHAR B.c2sc
ENCODING -1
SWIDTH 475 0
DWIDTH 10 0
BBX 8 11 1 0
BITMAP
FC
FE
C6
C6
FC
FE
C6
C3
C6
FE
FC
ENDCHAR
STARTCHAR A.c2sc
ENCODING -1
SWIDTH 501 0
DWIDTH 10 0
BBX 10 11 0 0
BITMAP
0C00
0C00
1E00
1E00
1200
3300
3300
3F00
7F80
6180
C0C0
ENDCHAR
STARTCHAR glyph564
ENCODING -1
SWIDTH 236 0
DWIDTH 5 0
BBX 2 4 2 12
BITMAP
80
C0
80
80
ENDCHAR
STARTCHAR glyph565
ENCODING -1
SWIDTH 402 0
DWIDTH 8 0
BBX 5 4 1 12
BITMAP
60
20
C8
78
ENDCHAR
STARTCHAR glyph566
ENCODING -1
SWIDTH 0 0
DWIDTH 0 0
BBX 5 4 -7 12
BITMAP
10
20
68
B0
ENDCHAR
STARTCHAR glyph567
ENCODING -1
SWIDTH 455 0
DWIDTH 9 0
BBX 9 5 1 12
BITMAP
0180
0300
3200
6800
CC00
ENDCHAR
STARTCHAR glyph568
ENCODING -1
SWIDTH 454 0
DWIDTH 9 0
BBX 8 5 -1 12
BITMAP
C0
40
6C
1E
33
ENDCHAR
STARTCHAR glyph569
ENCODING -1
SWIDTH 446 0
DWIDTH 9 0
BBX 8 4 1 12
BITMAP
06
33
6E
CC
ENDCHAR
STARTCHAR glyph570
ENCODING -1
SWIDTH 453 0
DWIDTH 9 0
BBX 6 5 1 12
BITMAP
68
58
00
38
CC
ENDCHAR
STARTCHAR uni0490.c2sc
ENCODING -1
SWIDTH 405 0
DWIDTH 8 0
BBX 7 14 1 0
BITMAP
06
06
06
FE
FE
C0
C0
C0
C0
C0
C0
C0
C0
C0
ENDCHAR
STARTCHAR glyph572
ENCODING -1
SWIDTH 404 0
DWIDTH 8 0
BBX 5 4 1 12
BITMAP
18
30
C8
78
ENDCHAR
STARTCHAR glyph573
ENCODING -1
SWIDTH 404 0
DWIDTH 8 0
BBX 5 5 1 12
BITMAP
30
10
20
C8
70
ENDCHAR
STARTCHAR zero.numr
ENCODING -1
SWIDTH 329 0
DWIDTH 7 0
BBX 5 8 1 6
BITMAP
70
F8
D8
98
98
D8
F8
70
ENDCHAR
STARTCHAR four.numr
ENCODING -1
SWIDTH 329 0
DWIDTH 7 0
BBX 5 8 1 6
BITMAP
30
30
50
50
90
F8
F8
10
ENDCHAR
STARTCHAR five.numr
ENCODING -1
SWIDTH 329 0
DWIDTH 7 0
BBX 5 8 1 6
BITMAP
F0
F0
C0
F0
F8
18
F8
70
ENDCHAR
STARTCHAR six.numr
ENCODING -1
SWIDTH 329 0
DWIDTH 7 0
BBX 5 8 1 6
BITMAP
30
70
C0
F0
F8
C8
F8
70
ENDCHAR
STARTCHAR seven.numr
ENCODING -1
SWIDTH 329 0
DWIDTH 7 0
BBX 5 8 1 6
BITMAP
F8
F8
10
10
20
20
60
C0
ENDCHAR
STARTCHAR eight.numr
ENCODING -1
SWIDTH 329 0
DWIDTH 7 0
BBX 5 8 1 6
BITMAP
70
F8
D8
70
F0
D8
F8
70
ENDCHAR
STARTCHAR nine.numr
ENCODING -1
SWIDTH 329 0
DWIDTH 7 0
BBX 5 8 1 6
BITMAP
70
F8
98
F8
78
18
70
60
ENDCHAR
STARTCHAR C.ss06
ENCODING -1
SWIDTH 603 0
DWIDTH 12 0
BBX 10 14 1 0
BITMAP
1F00
3F80
7180
60C0
C0C0
C000
C000
C000
C000
C0C0
60C0
7180
3F80
1F00
ENDCHAR
STARTCHAR G.ss06
ENCODING -1
SWIDTH 618 0
DWIDTH 12 0
BBX 10 14 1 0
BITMAP
1F00
3F80
7180
60C0
C000
C000
C000
C7C0
C7C0
C0C0
60C0
70C0
3F80
1F00
ENDCHAR
STARTCHAR D.ss06
ENCODING -1
SWIDTH 608 0
DWIDTH 12 0
BBX 9 14 2 0
BITMAP
F800
FE00
8700
8300
8180
8180
8180
8180
8180
8180
8300
8700
FE00
F800
ENDCHAR
STARTCHAR O.ss06
ENCODING -1
SWIDTH 643 0
DWIDTH 13 0
BBX 11 14 1 0
BITMAP
1F00
3F80
71C0
60C0
4040
C060
C060
C060
C060
4040
60C0
71C0
3F80
1F00
ENDCHAR
STARTCHAR Q.ss06
ENCODING -1
SWIDTH 644 0
DWIDTH 13 0
BBX 11 16 1 -2
BITMAP
1F00
3F80
71C0
60C0
4040
C060
C060
C060
C060
4040
60C0
71C0
3F80
1F00
0180
00C0
ENDCHAR
STARTCHAR one.oldstyle.pnum
ENCODING -1
SWIDTH 421 0
DWIDTH 8 0
BBX 5 11 1 0
BITMAP
08
38
F8
C8
08
08
08
08
08
08
08
ENDCHAR
STARTCHAR two.oldstyle.pnum
ENCODING -1
SWIDTH 492 0
DWIDTH 10 0
BBX 8 11 1 0
BITMAP
3C
7E
66
C2
06
0C
18
30
60
7F
7F
ENDCHAR
STARTCHAR three.oldstyle.pnum
ENCODING -1
SWIDTH 474 0
DWIDTH 10 0
BBX 8 14 0 -3
BITMAP
7F
7F
02
06
0C
1E
1F
03
03
01
03
87
FE
3C
ENDCHAR
STARTCHAR four.oldstyle.pnum
ENCODING -1
SWIDTH 524 0
DWIDTH 11 0
BBX 9 14 1 -3
BITMAP
0600
0600
0E00
1A00
1200
3200
2200
6200
4200
FF80
FF80
0200
0200
0200
ENDCHAR
STARTCHAR five.oldstyle.pnum
ENCODING -1
SWIDTH 483 0
DWIDTH 10 0
BBX 8 14 1 -3
BITMAP
7F
7F
40
40
40
7C
FE
C6
03
03
03
86
FE
78
ENDCHAR
STARTCHAR seven.oldstyle.pnum
ENCODING -1
SWIDTH 458 0
DWIDTH 9 0
BBX 7 14 1 -3
BITMAP
FE
FE
06
06
04
0C
08
18
18
10
30
30
60
60
ENDCHAR
STARTCHAR glyph592
ENCODING -1
SWIDTH 402 0
DWIDTH 8 0
BBX 5 5 1 12
BITMAP
68
98
00
C8
70
ENDCHAR
STARTCHAR glyph593
ENCODING -1
SWIDTH 183 0
DWIDTH 4 0
BBX 2 5 1 -3
BITMAP
C0
C0
C0
C0
C0
ENDCHAR
STARTCHAR OE.c2sc
ENCODING -1
SWIDTH 714 0
DWIDTH 14 0
BBX 13 11 1 0
BITMAP
3FF0
7FF0
E300
C300
C3F0
C3F0
C300
C300
E300
7FF8
3FF8
ENDCHAR
STARTCHAR nine.oldstyle.pnum
ENCODING -1
SWIDTH 520 0
DWIDTH 10 0
BBX 8 14 1 -3
BITMAP
3C
7E
E3
C3
C3
C3
E3
7F
3F
03
03
06
7C
78
ENDCHAR
STARTCHAR glyph596
ENCODING -1
SWIDTH 234 0
DWIDTH 5 0
BBX 3 6 0 -4
BITMAP
20
20
20
20
E0
C0
ENDCHAR
STARTCHAR three.oldstyle
ENCODING -1
SWIDTH 494 0
DWIDTH 10 0
BBX 8 14 1 -3
BITMAP
FF
FF
06
0C
18
1C
1E
06
03
03
03
86
FE
78
ENDCHAR
STARTCHAR five.oldstyle
ENCODING -1
SWIDTH 494 0
DWIDTH 10 0
BBX 8 14 1 -3
BITMAP
7F
7F
60
40
40
5C
7E
C7
03
03
03
86
FE
7C
ENDCHAR
STARTCHAR four.oldstyle
ENCODING -1
SWIDTH 494 0
DWIDTH 10 0
BBX 10 14 0 -3
BITMAP
0300
0700
0700
0F00
0B00
1B00
1300
2300
6300
7FC0
FFC0
0300
0300
0300
ENDCHAR
STARTCHAR two.oldstyle
ENCODING -1
SWIDTH 494 0
DWIDTH 10 0
BBX 8 11 1 0
BITMAP
3C
7E
66
C2
06
0C
18
30
60
7F
7F
ENDCHAR
STARTCHAR seven.oldstyle
ENCODING -1
SWIDTH 494 0
DWIDTH 10 0
BBX 8 14 1 -3
BITMAP
FF
FF
02
06
06
04
0C
08
18
18
10
30
20
60
ENDCHAR
STARTCHAR zero.oldstyle
ENCODING -1
SWIDTH 494 0
DWIDTH 10 0
BBX 8 11 1 0
BITMAP
3C
7E
C3
C3
81
81
81
C3
C3
7E
3C
ENDCHAR
STARTCHAR six.oldstyle
ENCODING -1
SWIDTH 494 0
DWIDTH 10 0
BBX 8 14 1 0
BITMAP
1C
3C
70
60
40
DC
FE
E7
C3
C3
43
67
7E
3C
ENDCHAR
STARTCHAR nine.oldstyle
ENCODING -1
SWIDTH 494 0
DWIDTH 10 0
BBX 8 14 1 -3
BITMAP
3C
7E
C6
C3
83
C3
C7
7F
3B
03
06
0E
7C
F8
ENDCHAR
STARTCHAR eight.oldstyle
ENCODING -1
SWIDTH 494 0
DWIDTH 10 0
BBX 8 14 1 0
BITMAP
3C
7E
66
C3
42
66
3C
7E
66
C3
C3
E3
7E
3C
ENDCHAR
STARTCHAR one.oldstyle
ENCODING -1
SWIDTH 494 0
DWIDTH 10 0
BBX 5 11 2 0
BITMAP
18
78
F8
98
18
18
18
18
18
18
18
ENDCHAR
STARTCHAR glyph607
ENCODING -1
SWIDTH 237 0
DWIDTH 5 0
BBX 3 15 0 -4
BITMAP
20
20
20
20
20
20
20
20
20
20
20
20
60
E0
C0
ENDCHAR
STARTCHAR glyph608
ENCODING -1
SWIDTH 238 0
DWIDTH 5 0
BBX 3 15 0 -4
BITMAP
20
20
20
20
20
20
20
20
20
20
20
20
60
E0
C0
ENDCHAR
STARTCHAR glyph609
ENCODING -1
SWIDTH 235 0
DWIDTH 5 0
BBX 2 11 1 0
BITMAP
C0
C0
C0
C0
C0
C0
C0
C0
C0
C0
C0
ENDCHAR
STARTCHAR glyph610
ENCODING -1
SWIDTH 235 0
DWIDTH 5 0
BBX 3 15 0 -4
BITMAP
60
60
60
60
60
60
60
60
60
60
60
40
C0
C0
60
ENDCHAR
STARTCHAR glyph611
ENCODING -1
SWIDTH 235 0
DWIDTH 5 0
BBX 2 11 1 0
BITMAP
C0
C0
C0
C0
C0
C0
C0
C0
C0
C0
C0
ENDCHAR
STARTCHAR germandbls.sc
ENCODING -1
SWIDTH 475 0
DWIDTH 10 0
BBX 7 11 2 0
BITMAP
78
FC
CC
98
90
BC
86
86
C6
BC
B8
ENDCHAR
STARTCHAR zero.oldstyle.pnum
ENCODING -1
SWIDTH 545 0
DWIDTH 11 0
BBX 9 11 1 0
BITMAP
3E00
7F00
6300
C180
C180
C180
C180
C180
6300
7F00
3E00
ENDCHAR
STARTCHAR seven.pnum
ENCODING -1
SWIDTH 458 0
DWIDTH 9 0
BBX 7 14 1 0
BITMAP
FE
FE
06
06
04
0C
08
18
18
10
30
30
60
60
ENDCHAR
STARTCHAR b.ss06
ENCODING -1
SWIDTH 493 0
DWIDTH 10 0
BBX 8 15 1 0
BITMAP
C0
C0
C0
C0
DC
FE
E7
C3
C3
C3
C3
C3
E7
FE
DC
ENDCHAR
STARTCHAR c.ss06
ENCODING -1
SWIDTH 460 0
DWIDTH 9 0
BBX 7 11 1 0
BITMAP
3C
7E
C6
C2
C0
C0
C0
C2
C6
7E
3C
ENDCHAR
STARTCHAR d.ss06
ENCODING -1
SWIDTH 503 0
DWIDTH 10 0
BBX 8 15 1 0
BITMAP
03
03
03
03
3B
7F
E7
C3
C3
C3
C3
C3
E7
7F
3B
ENDCHAR
STARTCHAR g.ss06
ENCODING -1
SWIDTH 500 0
DWIDTH 10 0
BBX 8 15 1 -4
BITMAP
3B
7F
E7
C3
C3
C3
C3
C3
E7
7F
3B
03
06
7E
3C
ENDCHAR
STARTCHAR o.ss06
ENCODING -1
SWIDTH 508 0
DWIDTH 10 0
BBX 8 11 1 0
BITMAP
3C
7E
E7
C3
C3
C3
C3
C3
E7
7E
3C
ENDCHAR
STARTCHAR p.ss06
ENCODING -1
SWIDTH 500 0
DWIDTH 10 0
BBX 8 15 1 -4
BITMAP
DC
FE
E7
C3
C3
C3
C3
C3
E7
FE
DC
C0
C0
C0
C0
ENDCHAR
STARTCHAR q.ss06
ENCODING -1
SWIDTH 508 0
DWIDTH 10 0
BBX 8 15 1 -4
BITMAP
3B
7F
E7
C3
C3
C3
C3
C3
E7
7F
3B
03
03
03
03
ENDCHAR
STARTCHAR e.ss07
ENCODING -1
SWIDTH 468 0
DWIDTH 9 0
BBX 7 11 1 0
BITMAP
3C
7E
C6
C2
FE
FE
C0
C0
E2
7E
3C
ENDCHAR
STARTCHAR g.ss07
ENCODING -1
SWIDTH 492 0
DWIDTH 10 0
BBX 8 15 1 -4
BITMAP
3B
7F
E7
C3
C3
C3
C3
C3
E7
7F
3B
03
06
7E
3C
ENDCHAR
STARTCHAR one.pnum
ENCODING -1
SWIDTH 382 0
DWIDTH 8 0
BBX 5 14 1 0
BITMAP
18
78
F8
98
18
18
18
18
18
18
18
18
18
18
ENDCHAR
STARTCHAR ampersand.c2sc
ENCODING -1
SWIDTH 526 0
DWIDTH 11 0
BBX 9 11 1 0
BITMAP
3800
7C00
6C00
6C00
3800
3900
7900
CD00
C700
7F00
7D80
ENDCHAR
STARTCHAR Lslash.c2sc
ENCODING -1
SWIDTH 411 0
DWIDTH 8 0
BBX 8 11 0 0
BITMAP
60
60
60
60
68
78
F0
E0
60
7F
7F
ENDCHAR
STARTCHAR AE.c2sc
ENCODING -1
SWIDTH 676 0
DWIDTH 14 0
BBX 13 11 0 0
BITMAP
03F8
07F8
0500
0D00
09F0
19F0
1180
3F80
3F80
61F8
E1F8
ENDCHAR
STARTCHAR Thorn.c2sc
ENCODING -1
SWIDTH 440 0
DWIDTH 9 0
BBX 7 11 1 0
BITMAP
C0
C0
FC
FE
C6
C6
C6
FE
FC
C0
C0
ENDCHAR
STARTCHAR Oslash.c2sc
ENCODING -1
SWIDTH 519 0
DWIDTH 10 0
BBX 8 11 1 0
BITMAP
3F
7E
E7
C7
CB
99
93
F3
E7
7E
FC
ENDCHAR
STARTCHAR Hbar.c2sc
ENCODING -1
SWIDTH 533 0
DWIDTH 11 0
BBX 9 11 1 0
BITMAP
4180
FF80
FF80
4180
4180
7F80
7F80
4180
4180
4180
4180
ENDCHAR
STARTCHAR Eng.c2sc
ENCODING -1
SWIDTH 533 0
DWIDTH 11 0
BBX 9 15 1 -4
BITMAP
C180
E180
F180
D180
D980
C980
CD80
C580
C380
C380
C180
0180
0180
0700
0600
ENDCHAR
STARTCHAR Dcroat.c2sc
ENCODING -1
SWIDTH 492 0
DWIDTH 10 0
BBX 9 11 0 0
BITMAP
7E00
7F00
6300
6180
F980
F980
6180
6180
6300
7F00
7C00
ENDCHAR
STARTCHAR Eth.c2sc
ENCODING -1
SWIDTH 492 0
DWIDTH 10 0
BBX 9 11 0 0
BITMAP
7E00
7F00
6300
6180
F980
F980
6180
6180
6300
7F00
7C00
ENDCHAR
STARTCHAR Tbar.c2sc
ENCODING -1
SWIDTH 456 0
DWIDTH 9 0
BBX 8 11 1 0
BITMAP
FF
FF
10
10
7C
7C
10
10
10
10
10
ENDCHAR
STARTCHAR Agrave.c2sc
ENCODING -1
SWIDTH 501 0
DWIDTH 10 0
BBX 10 15 0 0
BITMAP
3800
1800
0C00
0000
0C00
0C00
1E00
1E00
1200
3300
3300
3F00
7F80
6180
C0C0
ENDCHAR
STARTCHAR Aacute.c2sc
ENCODING -1
SWIDTH 501 0
DWIDTH 10 0
BBX 10 15 0 0
BITMAP
0300
0600
0C00
0000
0C00
0C00
1E00
1E00
1200
3300
3300
3F00
7F80
6180
C0C0
ENDCHAR
STARTCHAR Acircumflex.c2sc
ENCODING -1
SWIDTH 501 0
DWIDTH 10 0
BBX 10 15 0 0
BITMAP
0C00
1E00
3300
0000
0C00
0C00
1E00
1E00
1200
3300
3300
3F00
7F80
6180
C0C0
ENDCHAR
STARTCHAR Atilde.c2sc
ENCODING -1
SWIDTH 501 0
DWIDTH 10 0
BBX 10 15 0 0
BITMAP
1900
2600
0000
0000
0C00
0C00
1E00
1E00
1200
3300
3300
3F00
7F80
6180
C0C0
ENDCHAR
STARTCHAR Adieresis.c2sc
ENCODING -1
SWIDTH 501 0
DWIDTH 10 0
BBX 10 15 0 0
BITMAP
3300
3300
0000
0000
0C00
0C00
1E00
1E00
1200
3300
3300
3F00
7F80
6180
C0C0
ENDCHAR
STARTCHAR Aring.c2sc
ENCODING -1
SWIDTH 501 0
DWIDTH 10 0
BBX 10 16 0 0
BITMAP
0E00
1200
1200
0E00
0000
0C00
0C00
1E00
1E00
1200
3300
3300
3F00
7F80
6180
C0C0
ENDCHAR
STARTCHAR Aringacute.c2sc
ENCODING -1
SWIDTH 501 0
DWIDTH 10 0
BBX 10 16 0 0
BITMAP
0700
0400
0C00
1400
0C00
0C00
0C00
1E00
1E00
1200
3300
3300
3F00
7F80
6180
C0C0
ENDCHAR
STARTCHAR Ccedilla.c2sc
ENCODING -1
SWIDTH 490 0
DWIDTH 10 0
BBX 8 15 1 -4
BITMAP
3C
7E
63
C3
C0
C0
C0
C3
E3
7E
3C
08
1C
04
18
ENDCHAR
STARTCHAR Egrave.c2sc
ENCODING -1
SWIDTH 428 0
DWIDTH 9 0
BBX 7 15 1 0
BITMAP
60
30
18
00
FE
FE
C0
C0
FC
FC
C0
C0
C0
FE
FE
ENDCHAR
STARTCHAR Eacute.c2sc
ENCODING -1
SWIDTH 428 0
DWIDTH 9 0
BBX 7 15 1 0
BITMAP
0E
18
18
00
FE
FE
C0
C0
FC
FC
C0
C0
C0
FE
FE
ENDCHAR
STARTCHAR Ecircumflex.c2sc
ENCODING -1
SWIDTH 428 0
DWIDTH 9 0
BBX 7 15 1 0
BITMAP
18
28
6C
00
FE
FE
C0
C0
FC
FC
C0
C0
C0
FE
FE
ENDCHAR
STARTCHAR Edieresis.c2sc
ENCODING -1
SWIDTH 428 0
DWIDTH 9 0
BBX 7 15 1 0
BITMAP
46
E6
00
00
FE
FE
C0
C0
FC
FC
C0
C0
C0
FE
FE
ENDCHAR
STARTCHAR Igrave.c2sc
ENCODING -1
SWIDTH 221 0
DWIDTH 4 0
BBX 4 15 -1 0
BITMAP
E0
60
30
00
30
30
30
30
30
30
30
30
30
30
30
ENDCHAR
STARTCHAR Iacute.c2sc
ENCODING -1
SWIDTH 221 0
DWIDTH 4 0
BBX 4 15 1 0
BITMAP
30
60
C0
00
C0
C0
C0
C0
C0
C0
C0
C0
C0
C0
C0
ENDCHAR
STARTCHAR Icircumflex.c2sc
ENCODING -1
SWIDTH 221 0
DWIDTH 4 0
BBX 5 15 0 0
BITMAP
60
F0
98
00
60
60
60
60
60
60
60
60
60
60
60
ENDCHAR
STARTCHAR Idieresis.c2sc
ENCODING -1
SWIDTH 221 0
DWIDTH 4 0
BBX 6 15 -1 0
BITMAP
CC
CC
00
00
30
30
30
30
30
30
30
30
30
30
30
ENDCHAR
STARTCHAR Ntilde.c2sc
ENCODING -1
SWIDTH 533 0
DWIDTH 11 0
BBX 8 15 1 0
BITMAP
32
6E
00
00
C1
E1
E1
F1
D9
C9
CD
C5
C7
C3
C3
ENDCHAR
STARTCHAR Ograve.c2sc
ENCODING -1
SWIDTH 519 0
DWIDTH 10 0
BBX 8 15 1 0
BITMAP
70
30
18
00
3C
7E
C3
C3
C3
81
C3
C3
E3
7E
3C
ENDCHAR
STARTCHAR Oacute.c2sc
ENCODING -1
SWIDTH 519 0
DWIDTH 10 0
BBX 8 15 1 0
BITMAP
06
0C
18
00
3C
7E
C3
C3
C3
81
C3
C3
E3
7E
3C
ENDCHAR
STARTCHAR Ocircumflex.c2sc
ENCODING -1
SWIDTH 519 0
DWIDTH 10 0
BBX 8 15 1 0
BITMAP
18
3C
26
00
3C
7E
C3
C3
C3
81
C3
C3
E3
7E
3C
ENDCHAR
STARTCHAR Otilde.c2sc
ENCODING -1
SWIDTH 519 0
DWIDTH 10 0
BBX 8 15 1 0
BITMAP
32
4E
00
00
3C
7E
C3
C3
C3
81
C3
C3
E3
7E
3C
ENDCHAR
STARTCHAR Odieresis.c2sc
ENCODING -1
SWIDTH 519 0
DWIDTH 10 0
BBX 8 15 1 0
BITMAP
66
66
00
00
3C
7E
C3
C3
C3
81
C3
C3
E3
7E
3C
ENDCHAR
STARTCHAR Ugrave.c2sc
ENCODING -1
SWIDTH 488 0
DWIDTH 10 0
BBX 8 15 1 0
BITMAP
60
30
18
00
C3
C3
C3
C3
C3
C3
C3
C3
E7
7E
3C
ENDCHAR
STARTCHAR Uacute.c2sc
ENCODING -1
SWIDTH 488 0
DWIDTH 10 0
BBX 8 15 1 0
BITMAP
0E
0C
18
00
C3
C3
C3
C3
C3
C3
C3
C3
E7
7E
3C
ENDCHAR
STARTCHAR Ucircumflex.c2sc
ENCODING -1
SWIDTH 488 0
DWIDTH 10 0
BBX 8 15 1 0
BITMAP
18
3C
64
00
C3
C3
C3
C3
C3
C3
C3
C3
E7
7E
3C
ENDCHAR
STARTCHAR Udieresis.c2sc
ENCODING -1
SWIDTH 488 0
DWIDTH 10 0
BBX 8 15 1 0
BITMAP
66
66
00
00
C3
C3
C3
C3
C3
C3
C3
C3
E7
7E
3C
ENDCHAR
STARTCHAR Yacute.c2sc
ENCODING -1
SWIDTH 458 0
DWIDTH 9 0
BBX 9 15 0 0
BITMAP
0700
0C00
0800
0000
C180
6300
6300
3600
3600
1C00
1C00
0800
0800
0800
0800
ENDCHAR
STARTCHAR Amacron.c2sc
ENCODING -1
SWIDTH 501 0
DWIDTH 10 0
BBX 10 14 0 0
BITMAP
3F00
3F00
0000
0C00
0C00
1E00
1E00
1200
3300
3300
3F00
7F80
6180
C0C0
ENDCHAR
STARTCHAR Abreve.c2sc
ENCODING -1
SWIDTH 501 0
DWIDTH 10 0
BBX 10 14 0 0
BITMAP
3100
1E00
0000
0C00
0C00
1E00
1E00
1200
3300
3300
3F00
7F80
6180
C0C0
ENDCHAR
STARTCHAR Aogonek.c2sc
ENCODING -1
SWIDTH 501 0
DWIDTH 10 0
BBX 10 15 0 -4
BITMAP
0C00
0C00
1E00
1E00
1200
3300
3300
3F00
7F80
6180
4080
81C0
0100
0300
0180
ENDCHAR
STARTCHAR Cacute.c2sc
ENCODING -1
SWIDTH 490 0
DWIDTH 10 0
BBX 8 15 1 0
BITMAP
06
0C
18
00
3C
7E
63
C3
C0
C0
C0
C3
E3
7E
3C
ENDCHAR
STARTCHAR Ccircumflex.c2sc
ENCODING -1
SWIDTH 490 0
DWIDTH 10 0
BBX 8 15 1 0
BITMAP
18
3C
66
00
3C
7E
63
C3
C0
C0
C0
C3
E3
7E
3C
ENDCHAR
STARTCHAR Cdotaccent.c2sc
ENCODING -1
SWIDTH 490 0
DWIDTH 10 0
BBX 8 15 1 0
BITMAP
18
18
00
00
3C
7E
63
C3
C0
C0
C0
C3
E3
7E
3C
ENDCHAR
STARTCHAR Ccaron.c2sc
ENCODING -1
SWIDTH 490 0
DWIDTH 10 0
BBX 8 15 1 0
BITMAP
66
3C
18
00
3C
7E
63
C3
C0
C0
C0
C3
E3
7E
3C
ENDCHAR
STARTCHAR Dcaron.c2sc
ENCODING -1
SWIDTH 492 0
DWIDTH 10 0
BBX 8 15 1 0
BITMAP
4C
38
30
00
FC
FE
C6
C3
C3
C3
C3
C3
C6
FE
F8
ENDCHAR
STARTCHAR Emacron.c2sc
ENCODING -1
SWIDTH 428 0
DWIDTH 9 0
BBX 7 14 1 0
BITMAP
7C
7C
00
FE
FE
C0
C0
FC
FC
C0
C0
C0
FE
FE
ENDCHAR
STARTCHAR Ebreve.c2sc
ENCODING -1
SWIDTH 428 0
DWIDTH 9 0
BBX 7 14 1 0
BITMAP
66
3C
00
FE
FE
C0
C0
FC
FC
C0
C0
C0
FE
FE
ENDCHAR
STARTCHAR Edotaccent.c2sc
ENCODING -1
SWIDTH 428 0
DWIDTH 9 0
BBX 7 15 1 0
BITMAP
18
18
00
00
FE
FE
C0
C0
FC
FC
C0
C0
C0
FE
FE
ENDCHAR
STARTCHAR Eogonek.c2sc
ENCODING -1
SWIDTH 428 0
DWIDTH 9 0
BBX 6 15 2 -4
BITMAP
FC
FC
80
80
F8
F8
80
80
80
FC
FC
18
10
10
1C
ENDCHAR
STARTCHAR Ecaron.c2sc
ENCODING -1
SWIDTH 428 0
DWIDTH 9 0
BBX 7 15 1 0
BITMAP
6C
28
10
00
FE
FE
C0
C0
FC
FC
C0
C0
C0
FE
FE
ENDCHAR
STARTCHAR Gcircumflex.c2sc
ENCODING -1
SWIDTH 509 0
DWIDTH 10 0
BBX 8 15 1 0
BITMAP
18
3C
66
00
3C
7E
E3
C0
C0
CF
CF
C3
E3
7F
3E
ENDCHAR
STARTCHAR Gbreve.c2sc
ENCODING -1
SWIDTH 509 0
DWIDTH 10 0
BBX 8 14 1 0
BITMAP
62
3C
00
3C
7E
E3
C0
C0
CF
CF
C3
E3
7F
3E
ENDCHAR
STARTCHAR Gdotaccent.c2sc
ENCODING -1
SWIDTH 509 0
DWIDTH 10 0
BBX 8 15 1 0
BITMAP
18
18
00
00
3C
7E
E3
C0
C0
CF
CF
C3
E3
7F
3E
ENDCHAR
STARTCHAR uni0122.c2sc
ENCODING -1
SWIDTH 509 0
DWIDTH 10 0
BBX 8 16 1 -5
BITMAP
3C
7E
E3
C0
C0
CF
CF
C3
E3
7F
3E
00
18
18
18
10
ENDCHAR
STARTCHAR Hcircumflex.c2sc
ENCODING -1
SWIDTH 533 0
DWIDTH 11 0
BBX 8 15 1 0
BITMAP
18
3C
26
00
C1
C1
C1
C1
FF
FF
C1
C1
C1
C1
C1
ENDCHAR
STARTCHAR Itilde.c2sc
ENCODING -1
SWIDTH 221 0
DWIDTH 4 0
BBX 6 15 -1 0
BITMAP
64
DC
00
00
30
30
30
30
30
30
30
30
30
30
30
ENDCHAR
STARTCHAR Imacron.c2sc
ENCODING -1
SWIDTH 221 0
DWIDTH 4 0
BBX 6 14 -1 0
BITMAP
FC
FC
00
30
30
30
30
30
30
30
30
30
30
30
ENDCHAR
STARTCHAR Ibreve.c2sc
ENCODING -1
SWIDTH 221 0
DWIDTH 4 0
BBX 5 14 0 0
BITMAP
88
F8
00
60
60
60
60
60
60
60
60
60
60
60
ENDCHAR
STARTCHAR Iogonek.c2sc
ENCODING -1
SWIDTH 221 0
DWIDTH 4 0
BBX 3 15 0 -4
BITMAP
60
60
60
60
60
60
60
60
60
60
60
60
C0
C0
60
ENDCHAR
STARTCHAR Idotaccent.c2sc
ENCODING -1
SWIDTH 221 0
DWIDTH 4 0
BBX 2 15 1 0
BITMAP
C0
C0
00
00
C0
C0
C0
C0
C0
C0
C0
C0
C0
C0
C0
ENDCHAR
STARTCHAR Jcircumflex.c2sc
ENCODING -1
SWIDTH 419 0
DWIDTH 8 0
BBX 9 15 0 0
BITMAP
0600
0F00
0980
0000
0600
0600
0600
0600
0600
0600
0600
0600
C600
7E00
3C00
ENDCHAR
STARTCHAR uni0136.c2sc
ENCODING -1
SWIDTH 473 0
DWIDTH 9 0
BBX 8 16 1 -5
BITMAP
C7
C6
CC
D8
F0
F0
F8
CC
CC
C6
C3
00
10
10
10
30
ENDCHAR
STARTCHAR Lacute.c2sc
ENCODING -1
SWIDTH 411 0
DWIDTH 8 0
BBX 7 15 1 0
BITMAP
30
60
C0
00
C0
C0
C0
C0
C0
C0
C0
C0
C0
FE
FE
ENDCHAR
STARTCHAR uni013B.c2sc
ENCODING -1
SWIDTH 411 0
DWIDTH 8 0
BBX 7 16 1 -5
BITMAP
C0
C0
C0
C0
C0
C0
C0
C0
C0
FE
FE
00
10
10
10
30
ENDCHAR
STARTCHAR Lcaron.c2sc
ENCODING -1
SWIDTH 411 0
DWIDTH 8 0
BBX 7 11 1 0
BITMAP
CC
C8
C8
D8
C0
C0
C0
C0
C0
FE
FE
ENDCHAR
STARTCHAR Ldot.c2sc
ENCODING -1
SWIDTH 411 0
DWIDTH 8 0
BBX 7 11 1 0
BITMAP
C0
C0
C0
C0
D8
D8
C0
C0
C0
FE
FE
ENDCHAR
STARTCHAR Nacute.c2sc
ENCODING -1
SWIDTH 533 0
DWIDTH 11 0
BBX 8 15 1 0
BITMAP
06
0C
18
00
C1
E1
E1
F1
D9
C9
CD
C5
C7
C3
C3
ENDCHAR
STARTCHAR uni0145.c2sc
ENCODING -1
SWIDTH 533 0
DWIDTH 11 0
BBX 8 16 1 -5
BITMAP
C1
E1
E1
F1
D9
C9
CD
C5
C7
C3
C3
00
08
08
18
10
ENDCHAR
STARTCHAR Ncaron.c2sc
ENCODING -1
SWIDTH 533 0
DWIDTH 11 0
BBX 8 15 1 0
BITMAP
26
14
18
00
C1
E1
E1
F1
D9
C9
CD
C5
C7
C3
C3
ENDCHAR
STARTCHAR Omacron.c2sc
ENCODING -1
SWIDTH 519 0
DWIDTH 10 0
BBX 8 14 1 0
BITMAP
7E
7E
00
3C
7E
C3
C3
C3
81
C3
C3
E3
7E
3C
ENDCHAR
STARTCHAR Obreve.c2sc
ENCODING -1
SWIDTH 519 0
DWIDTH 10 0
BBX 8 14 1 0
BITMAP
22
3C
00
3C
7E
C3
C3
C3
81
C3
C3
E3
7E
3C
ENDCHAR
STARTCHAR Ohungarumlaut.c2sc
ENCODING -1
SWIDTH 519 0
DWIDTH 10 0
BBX 8 15 1 0
BITMAP
1B
16
3C
00
3C
7E
C3
C3
C3
81
C3
C3
E3
7E
3C
ENDCHAR
STARTCHAR Racute.c2sc
ENCODING -1
SWIDTH 465 0
DWIDTH 9 0
BBX 8 15 1 0
BITMAP
0E
18
30
00
FC
FE
C6
C2
C6
FE
FC
CC
C6
C6
C3
ENDCHAR
STARTCHAR uni0156.c2sc
ENCODING -1
SWIDTH 465 0
DWIDTH 9 0
BBX 8 16 1 -5
BITMAP
FC
FE
C6
C2
C6
FE
FC
CC
C6
C6
C3
00
10
10
10
30
ENDCHAR
STARTCHAR Rcaron.c2sc
ENCODING -1
SWIDTH 465 0
DWIDTH 9 0
BBX 8 15 1 0
BITMAP
6C
28
10
00
FC
FE
C6
C2
C6
FE
FC
CC
C6
C6
C3
ENDCHAR
STARTCHAR Sacute.c2sc
ENCODING -1
SWIDTH 453 0
DWIDTH 9 0
BBX 7 15 1 0
BITMAP
0E
18
18
00
78
FC
C6
C2
F8
3C
06
82
C6
7E
3C
ENDCHAR
STARTCHAR Scircumflex.c2sc
ENCODING -1
SWIDTH 453 0
DWIDTH 9 0
BBX 7 15 1 0
BITMAP
18
28
64
00
78
FC
C6
C2
F8
3C
06
82
C6
7E
3C
ENDCHAR
STARTCHAR Scedilla.c2sc
ENCODING -1
SWIDTH 453 0
DWIDTH 9 0
BBX 7 15 1 -4
BITMAP
78
FC
C6
C2
F8
3C
06
82
C6
7E
3C
18
08
0C
18
ENDCHAR
STARTCHAR Scaron.c2sc
ENCODING -1
SWIDTH 453 0
DWIDTH 9 0
BBX 7 15 1 0
BITMAP
6C
28
18
00
78
FC
C6
C2
F8
3C
06
82
C6
7E
3C
ENDCHAR
STARTCHAR uni021A.c2sc
ENCODING -1
SWIDTH 456 0
DWIDTH 9 0
BBX 8 16 1 -5
BITMAP
FF
FF
10
10
10
10
10
10
10
10
10
00
18
10
10
30
ENDCHAR
STARTCHAR Tcaron.c2sc
ENCODING -1
SWIDTH 456 0
DWIDTH 9 0
BBX 8 15 1 0
BITMAP
6C
28
10
00
FF
FF
10
10
10
10
10
10
10
10
10
ENDCHAR
STARTCHAR uni0162.c2sc
ENCODING -1
SWIDTH 456 0
DWIDTH 9 0
BBX 8 15 1 -4
BITMAP
FF
FF
10
10
10
10
10
10
10
10
10
10
08
0C
18
ENDCHAR
STARTCHAR Utilde.c2sc
ENCODING -1
SWIDTH 488 0
DWIDTH 10 0
BBX 8 15 1 0
BITMAP
72
4C
00
00
C3
C3
C3
C3
C3
C3
C3
C3
E7
7E
3C
ENDCHAR
STARTCHAR Umacron.c2sc
ENCODING -1
SWIDTH 488 0
DWIDTH 10 0
BBX 8 14 1 0
BITMAP
7E
7E
00
C3
C3
C3
C3
C3
C3
C3
C3
E7
7E
3C
ENDCHAR
STARTCHAR Ubreve.c2sc
ENCODING -1
SWIDTH 488 0
DWIDTH 10 0
BBX 8 14 1 0
BITMAP
66
3C
00
C3
C3
C3
C3
C3
C3
C3
C3
E7
7E
3C
ENDCHAR
STARTCHAR Uring.c2sc
ENCODING -1
SWIDTH 488 0
DWIDTH 10 0
BBX 8 16 1 0
BITMAP
18
24
24
18
00
C3
C3
C3
C3
C3
C3
C3
C3
E7
7E
3C
ENDCHAR
STARTCHAR Uhungarumlaut.c2sc
ENCODING -1
SWIDTH 488 0
DWIDTH 10 0
BBX 8 15 1 0
BITMAP
1B
36
2C
00
C3
C3
C3
C3
C3
C3
C3
C3
E7
7E
3C
ENDCHAR
STARTCHAR Uogonek.c2sc
ENCODING -1
SWIDTH 488 0
DWIDTH 10 0
BBX 8 15 1 -4
BITMAP
C3
C3
C3
C3
C3
C3
C3
C3
E7
7E
3C
08
18
18
0C
ENDCHAR
STARTCHAR Wcircumflex.c2sc
ENCODING -1
SWIDTH 655 0
DWIDTH 13 0
BBX 12 15 1 0
BITMAP
0600
0A00
1B00
0000
8430
CE20
CE60
CA60
4A60
4B40
5940
71C0
71C0
31C0
3180
ENDCHAR
STARTCHAR Ycircumflex.c2sc
ENCODING -1
SWIDTH 458 0
DWIDTH 9 0
BBX 9 15 0 0
BITMAP
0C00
1400
3600
0000
C180
6300
6300
3600
3600
1C00
1C00
0800
0800
0800
0800
ENDCHAR
STARTCHAR Ydieresis.c2sc
ENCODING -1
SWIDTH 458 0
DWIDTH 9 0
BBX 9 15 0 0
BITMAP
2300
7300
0000
0000
C180
6300
6300
3600
3600
1C00
1C00
0800
0800
0800
0800
ENDCHAR
STARTCHAR Zacute.c2sc
ENCODING -1
SWIDTH 454 0
DWIDTH 9 0
BBX 7 15 1 0
BITMAP
0E
18
10
00
FE
FE
06
0C
18
10
30
60
C0
FE
FE
ENDCHAR
STARTCHAR Zdotaccent.c2sc
ENCODING -1
SWIDTH 454 0
DWIDTH 9 0
BBX 7 15 1 0
BITMAP
18
18
00
00
FE
FE
06
0C
18
10
30
60
C0
FE
FE
ENDCHAR
STARTCHAR Zcaron.c2sc
ENCODING -1
SWIDTH 454 0
DWIDTH 9 0
BBX 7 15 1 0
BITMAP
6C
28
10
00
FE
FE
06
0C
18
10
30
60
C0
FE
FE
ENDCHAR
STARTCHAR two.pnum
ENCODING -1
SWIDTH 493 0
DWIDTH 10 0
BBX 8 14 1 0
BITMAP
3C
7E
C6
C3
02
06
06
0C
18
30
20
60
FF
FF
ENDCHAR
STARTCHAR three.pnum
ENCODING -1
SWIDTH 493 0
DWIDTH 10 0
BBX 8 14 1 0
BITMAP
3C
7E
E6
C2
02
06
3C
3E
06
03
C3
C6
7E
3C
ENDCHAR
STARTCHAR four.pnum
ENCODING -1
SWIDTH 493 0
DWIDTH 10 0
BBX 8 14 1 0
BITMAP
06
0E
0E
1E
16
26
66
46
C6
FF
FF
06
06
06
ENDCHAR
STARTCHAR five.pnum
ENCODING -1
SWIDTH 493 0
DWIDTH 10 0
BBX 8 14 1 0
BITMAP
7F
7F
60
60
60
7C
7E
43
03
03
C3
63
7E
3C
ENDCHAR
STARTCHAR six.pnum
ENCODING -1
SWIDTH 503 0
DWIDTH 10 0
BBX 7 14 2 0
BITMAP
18
78
60
C0
C0
B8
FC
C6
86
86
C6
C6
7C
38
ENDCHAR
STARTCHAR eight.pnum
ENCODING -1
SWIDTH 513 0
DWIDTH 10 0
BBX 8 14 1 0
BITMAP
3C
7E
67
43
43
66
3E
3E
63
C3
C3
63
7E
3C
ENDCHAR
STARTCHAR nine.pnum
ENCODING -1
SWIDTH 503 0
DWIDTH 10 0
BBX 8 14 1 0
BITMAP
3C
7E
E6
C2
C3
C3
C3
E7
7F
3A
06
0E
3C
38
ENDCHAR
STARTCHAR zero.pnum
ENCODING -1
SWIDTH 513 0
DWIDTH 10 0
BBX 8 14 1 0
BITMAP
3C
7E
66
43
C3
C3
C3
C3
C3
C3
43
66
7E
3C
ENDCHAR
STARTCHAR G_acutecomb.ccmp
ENCODING -1
SWIDTH 590 0
DWIDTH 12 0
BBX 10 18 1 0
BITMAP
0700
0C00
0C00
0000
1E00
7F00
6180
4180
C0C0
C000
C000
C7C0
C7C0
C0C0
60C0
61C0
3F80
1F00
ENDCHAR
STARTCHAR g_acutecomb.ccmp
ENCODING -1
SWIDTH 492 0
DWIDTH 10 0
BBX 8 19 1 -4
BITMAP
0E
0C
18
00
3B
7F
C7
C3
C3
C3
C3
C3
C7
7F
3B
03
86
7E
3C
ENDCHAR
STARTCHAR N_gravecomb.ccmp
ENCODING -1
SWIDTH 619 0
DWIDTH 12 0
BBX 10 18 1 0
BITMAP
3800
1800
0C00
0000
C0C0
E0C0
E0C0
F0C0
D0C0
D8C0
C8C0
CCC0
C6C0
C6C0
C3C0
C3C0
C1C0
C1C0
ENDCHAR
STARTCHAR n_gravecomb.ccmp
ENCODING -1
SWIDTH 483 0
DWIDTH 10 0
BBX 8 15 1 0
BITMAP
60
30
18
00
DC
FE
E6
C3
C3
C3
C3
C3
C3
C3
C3
ENDCHAR
STARTCHAR A_uni030F.ccmp
ENCODING -1
SWIDTH 576 0
DWIDTH 12 0
BBX 10 18 1 0
BITMAP
F800
3C00
3600
0000
0C00
0C00
1E00
1E00
1200
3300
3300
3300
6180
7F80
7F80
C0C0
C0C0
C0C0
ENDCHAR
STARTCHAR a_uni030F.ccmp
ENCODING -1
SWIDTH 479 0
DWIDTH 10 0
BBX 8 15 1 0
BITMAP
F8
78
3C
00
3C
7E
46
82
3E
7E
E2
C2
C6
7E
3B
ENDCHAR
STARTCHAR E_uni030F.ccmp
ENCODING -1
SWIDTH 496 0
DWIDTH 10 0
BBX 8 18 1 0
BITMAP
D8
68
3C
00
7F
7F
40
40
40
40
7E
7E
40
40
40
40
7F
7F
ENDCHAR
STARTCHAR e_uni030F.ccmp
ENCODING -1
SWIDTH 468 0
DWIDTH 9 0
BBX 8 15 0 0
BITMAP
F8
3C
36
00
1E
3F
63
61
7F
7F
60
60
61
3F
1E
ENDCHAR
STARTCHAR I_uni030F.ccmp
ENCODING -1
SWIDTH 250 0
DWIDTH 5 0
BBX 6 18 -2 0
BITMAP
F8
6C
34
00
08
08
08
08
08
08
08
08
08
08
08
08
08
08
ENDCHAR
STARTCHAR dotlessi_uni030F.ccmp
ENCODING -1
SWIDTH 234 0
DWIDTH 5 0
BBX 6 15 -2 0
BITMAP
D8
6C
3C
00
18
18
18
18
18
18
18
18
18
18
18
ENDCHAR
STARTCHAR O_uni030F.ccmp
ENCODING -1
SWIDTH 600 0
DWIDTH 12 0
BBX 10 18 1 0
BITMAP
7C00
3C00
1E00
0000
1E00
3F80
6180
40C0
C0C0
C0C0
C0C0
C0C0
C0C0
C0C0
C0C0
6180
3F80
1E00
ENDCHAR
STARTCHAR o_uni030F.ccmp
ENCODING -1
SWIDTH 501 0
DWIDTH 10 0
BBX 9 15 0 0
BITMAP
FC00
3C00
1E00
0000
1E00
3F00
7380
6180
6180
6180
6180
6180
7180
3F00
1E00
ENDCHAR
STARTCHAR R_uni030F.ccmp
ENCODING -1
SWIDTH 530 0
DWIDTH 11 0
BBX 9 18 1 0
BITMAP
D800
6800
3C00
0000
7E00
7F00
6380
6180
6180
6180
6380
7F00
7E00
6600
6300
6300
6180
6180
ENDCHAR
STARTCHAR r_uni030F.ccmp
ENCODING -1
SWIDTH 304 0
DWIDTH 6 0
BBX 7 15 -1 0
BITMAP
F8
6C
34
00
36
3E
38
30
30
30
30
30
30
30
30
ENDCHAR
STARTCHAR U_uni030F.ccmp
ENCODING -1
SWIDTH 561 0
DWIDTH 11 0
BBX 9 18 1 0
BITMAP
F800
6C00
3400
0000
C180
C180
C180
C180
C180
C180
C180
C180
C180
C180
C180
E380
7F00
3E00
ENDCHAR
STARTCHAR u_uni030F.ccmp
ENCODING -1
SWIDTH 483 0
DWIDTH 10 0
BBX 9 15 0 0
BITMAP
F800
3C00
3600
0000
6180
6180
6180
6180
6180
6180
6180
6180
3380
3F80
1D80
ENDCHAR
STARTCHAR Upsilon1_acutecomb.ccmp
ENCODING -1
SWIDTH 514 0
DWIDTH 10 0
BBX 12 15 -2 0
BITMAP
C000
9830
9C70
0C60
0C60
06C0
06C0
0380
0380
0100
0100
0100
0100
0100
0100
ENDCHAR
STARTCHAR B_dotbelowcomb.ccmp
ENCODING -1
SWIDTH 545 0
DWIDTH 11 0
BBX 8 17 2 -3
BITMAP
FC
FE
86
82
83
86
FC
FE
86
83
83
87
FE
FC
00
30
30
ENDCHAR
STARTCHAR b_dotbelowcomb.ccmp
ENCODING -1
SWIDTH 493 0
DWIDTH 10 0
BBX 8 18 1 -3
BITMAP
C0
C0
C0
C0
DC
FE
E3
C3
C3
C3
C3
C3
E3
FE
DC
00
18
18
ENDCHAR
STARTCHAR D_dotbelowcomb.ccmp
ENCODING -1
SWIDTH 570 0
DWIDTH 11 0
BBX 9 17 1 -3
BITMAP
FC00
FF00
C300
C180
C180
C180
C180
C180
C180
C180
C180
C300
FF00
FC00
0000
1800
1800
ENDCHAR
STARTCHAR d_dotbelowcomb.ccmp
ENCODING -1
SWIDTH 496 0
DWIDTH 10 0
BBX 8 18 1 -3
BITMAP
03
03
03
03
3B
7F
C7
C3
C3
C3
C3
C3
C7
7F
3B
00
18
18
ENDCHAR
STARTCHAR D_uniF6C3.ccmp
ENCODING -1
SWIDTH 570 0
DWIDTH 11 0
BBX 9 19 1 -5
BITMAP
FC00
FF00
C300
C180
C180
C180
C180
C180
C180
C180
C180
C300
FF00
FC00
0000
0800
0800
1800
1000
ENDCHAR
STARTCHAR d_uniF6C3.ccmp
ENCODING -1
SWIDTH 496 0
DWIDTH 10 0
BBX 8 20 1 -5
BITMAP
03
03
03
03
3B
7F
C7
C3
C3
C3
C3
C3
C7
7F
3B
00
08
08
18
10
ENDCHAR
STARTCHAR H_dotbelowcomb.ccmp
ENCODING -1
SWIDTH 620 0
DWIDTH 12 0
BBX 10 17 1 -3
BITMAP
C0C0
C0C0
C0C0
C0C0
C0C0
C0C0
FFC0
FFC0
C0C0
C0C0
C0C0
C0C0
C0C0
C0C0
0000
0C00
0C00
ENDCHAR
STARTCHAR h_dotbelowcomb.ccmp
ENCODING -1
SWIDTH 482 0
DWIDTH 10 0
BBX 8 18 1 -3
BITMAP
C0
C0
C0
C0
DC
FE
E6
C3
C3
C3
C3
C3
C3
C3
C3
00
18
18
ENDCHAR
STARTCHAR K_acutecomb.ccmp
ENCODING -1
SWIDTH 544 0
DWIDTH 11 0
BBX 9 18 2 0
BITMAP
0C00
1800
3000
0000
8380
8600
8600
8C00
9800
B000
B000
F800
D800
8C00
8600
8600
8300
8380
ENDCHAR
STARTCHAR k_acutecomb.ccmp
ENCODING -1
SWIDTH 450 0
DWIDTH 9 0
BBX 8 19 1 0
BITMAP
0E
18
18
00
C0
C0
C0
C0
C6
CC
CC
D8
F0
F8
F8
CC
CC
C6
C3
ENDCHAR
STARTCHAR K_dotbelowcomb.ccmp
ENCODING -1
SWIDTH 544 0
DWIDTH 11 0
BBX 9 16 2 -2
BITMAP
8380
8600
8600
8C00
9800
B000
B000
F800
D800
8C00
8600
8600
8300
8380
1800
1800
ENDCHAR
STARTCHAR k_dotbelowcomb.ccmp
ENCODING -1
SWIDTH 450 0
DWIDTH 9 0
BBX 8 17 1 -2
BITMAP
C0
C0
C0
C0
C6
CC
CC
D8
F0
F8
F8
CC
CC
C6
C3
10
38
ENDCHAR
STARTCHAR L_dotbelowcomb.ccmp
ENCODING -1
SWIDTH 475 0
DWIDTH 10 0
BBX 7 17 2 -3
BITMAP
80
80
80
80
80
80
80
80
80
80
80
80
FE
FE
00
30
30
ENDCHAR
STARTCHAR l_dotbelowcomb.ccmp
ENCODING -1
SWIDTH 229 0
DWIDTH 5 0
BBX 2 18 1 -3
BITMAP
C0
C0
C0
C0
C0
C0
C0
C0
C0
C0
C0
C0
C0
C0
C0
00
C0
C0
ENDCHAR
STARTCHAR M_dotbelowcomb.ccmp
ENCODING -1
SWIDTH 755 0
DWIDTH 15 0
BBX 12 17 2 -3
BITMAP
C070
C070
E0F0
E0F0
A0B0
B1B0
B1B0
9130
9B30
9B30
8A30
8E30
8E30
8430
0000
0400
0E00
ENDCHAR
STARTCHAR m_dotbelowcomb.ccmp
ENCODING -1
SWIDTH 752 0
DWIDTH 15 0
BBX 13 14 1 -3
BITMAP
DCE0
FFF0
E718
C218
C218
C218
C218
C218
C218
C218
C218
0000
0200
0700
ENDCHAR
STARTCHAR N_dotbelowcomb.ccmp
ENCODING -1
SWIDTH 619 0
DWIDTH 12 0
BBX 10 17 1 -3
BITMAP
C0C0
E0C0
E0C0
F0C0
D0C0
D8C0
C8C0
CCC0
C6C0
C6C0
C3C0
C3C0
C1C0
C1C0
0000
0C00
0C00
ENDCHAR
STARTCHAR n_dotbelowcomb.ccmp
ENCODING -1
SWIDTH 483 0
DWIDTH 10 0
BBX 8 14 1 -3
BITMAP
DC
FE
E6
C3
C3
C3
C3
C3
C3
C3
C3
00
18
18
ENDCHAR
STARTCHAR O_tildecomb_acutecomb.ccmp
ENCODING -1
SWIDTH 600 0
DWIDTH 12 0
BBX 10 19 1 0
BITMAP
0600
0400
1A00
1600
0000
1E00
3F80
6180
40C0
C0C0
C0C0
C0C0
C0C0
C0C0
C0C0
C0C0
6180
3F80
1E00
ENDCHAR
STARTCHAR P_acutecomb.ccmp
ENCODING -1
SWIDTH 554 0
DWIDTH 11 0
BBX 9 18 1 0
BITMAP
0600
0C00
1800
0000
FE00
FF00
C180
C180
C180
C180
C180
FF00
FE00
C000
C000
C000
C000
C000
ENDCHAR
STARTCHAR p_acutecomb.ccmp
ENCODING -1
SWIDTH 493 0
DWIDTH 10 0
BBX 8 19 1 -4
BITMAP
07
0C
18
00
DC
FE
E3
C3
C3
C3
C3
C3
E7
FE
DC
C0
C0
C0
C0
ENDCHAR
STARTCHAR R_dotbelowcomb.ccmp
ENCODING -1
SWIDTH 530 0
DWIDTH 11 0
BBX 8 17 2 -3
BITMAP
FC
FE
C7
C3
C3
C3
C7
FE
FC
CC
C6
C6
C3
C3
00
30
30
ENDCHAR
STARTCHAR r_dotbelowcomb.ccmp
ENCODING -1
SWIDTH 304 0
DWIDTH 6 0
BBX 5 14 1 -3
BITMAP
D8
F8
E0
C0
C0
C0
C0
C0
C0
C0
C0
00
C0
C0
ENDCHAR
STARTCHAR S_dotbelowcomb.ccmp
ENCODING -1
SWIDTH 518 0
DWIDTH 10 0
BBX 8 17 1 -3
BITMAP
3C
7E
C3
C3
C1
E0
78
1E
03
83
C1
C3
7F
3E
00
18
18
ENDCHAR
STARTCHAR s_dotbelowcomb.ccmp
ENCODING -1
SWIDTH 455 0
DWIDTH 9 0
BBX 7 14 1 -3
BITMAP
3C
7E
C6
C0
70
3C
0E
06
C6
FE
3C
00
18
18
ENDCHAR
STARTCHAR T_dotbelowcomb.ccmp
ENCODING -1
SWIDTH 520 0
DWIDTH 10 0
BBX 9 17 1 -3
BITMAP
FF80
FF80
1800
1800
1800
1800
1800
1800
1800
1800
1800
1800
1800
1800
0000
1800
1800
ENDCHAR
STARTCHAR t_dotbelowcomb.ccmp
ENCODING -1
SWIDTH 295 0
DWIDTH 6 0
BBX 5 17 0 -3
BITMAP
30
30
30
F8
F8
30
30
30
30
30
30
30
38
18
00
18
18
ENDCHAR
STARTCHAR U_tildecomb_acutecomb.ccmp
ENCODING -1
SWIDTH 561 0
DWIDTH 11 0
BBX 9 19 1 0
BITMAP
0600
0800
1A00
2C00
0000
C180
C180
C180
C180
C180
C180
C180
C180
C180
C180
C180
E380
7F00
3E00
ENDCHAR
STARTCHAR V_tildecomb.ccmp
ENCODING -1
SWIDTH 560 0
DWIDTH 11 0
BBX 11 17 0 0
BITMAP
1D80
1300
0000
C060
60C0
60C0
60C0
3180
3180
3180
1100
1B00
1B00
0A00
0E00
0E00
0400
ENDCHAR
STARTCHAR v_tildecomb.ccmp
ENCODING -1
SWIDTH 427 0
DWIDTH 9 0
BBX 7 15 1 0
BITMAP
64
DC
00
00
C6
C6
C6
44
6C
6C
28
28
38
38
10
ENDCHAR
STARTCHAR V_dotbelowcomb.ccmp
ENCODING -1
SWIDTH 560 0
DWIDTH 11 0
BBX 11 17 0 -3
BITMAP
C060
60C0
60C0
60C0
3180
3180
3180
1100
1B00
1B00
0A00
0E00
0E00
0400
0000
0600
0600
ENDCHAR
STARTCHAR v_dotbelowcomb.ccmp
ENCODING -1
SWIDTH 427 0
DWIDTH 9 0
BBX 7 14 1 -3
BITMAP
C6
C6
C6
44
6C
6C
28
28
38
38
10
00
30
30
ENDCHAR
STARTCHAR W_dotbelowcomb.ccmp
ENCODING -1
SWIDTH 761 0
DWIDTH 15 0
BBX 14 17 1 -3
BITMAP
C30C
C308
C718
C718
4518
4598
6C90
6C90
68B0
28F0
28F0
3860
3860
3060
0000
0300
0300
ENDCHAR
STARTCHAR w_dotbelowcomb.ccmp
ENCODING -1
SWIDTH 649 0
DWIDTH 13 0
BBX 12 14 0 -3
BITMAP
C210
6730
6730
6530
2520
2DA0
3DE0
38E0
38C0
18C0
18C0
0000
0600
0700
ENDCHAR
STARTCHAR Z_dotbelowcomb.ccmp
ENCODING -1
SWIDTH 522 0
DWIDTH 10 0
BBX 9 17 1 -3
BITMAP
FF00
FF00
0300
0600
0600
0C00
1800
1800
3000
2000
6000
C000
FF80
FF80
0000
1800
1800
ENDCHAR
STARTCHAR z_dotbelowcomb.ccmp
ENCODING -1
SWIDTH 438 0
DWIDTH 9 0
BBX 7 14 1 -3
BITMAP
FE
FE
0C
0C
18
30
30
60
C0
FE
FE
00
30
38
ENDCHAR
STARTCHAR Alphatonos.c2sc
ENCODING -1
SWIDTH 501 0
DWIDTH 10 0
BBX 10 12 0 0
BITMAP
2000
6C00
6C00
1E00
1E00
1200
3300
3300
3F00
7F80
6180
C0C0
ENDCHAR
STARTCHAR Epsilontonos.c2sc
ENCODING -1
SWIDTH 458 0
DWIDTH 9 0
BBX 10 12 -1 0
BITMAP
C000
9F80
9F80
1800
1800
1F80
1F80
1800
1800
1800
1FC0
1FC0
ENDCHAR
STARTCHAR Etatonos.c2sc
ENCODING -1
SWIDTH 562 0
DWIDTH 11 0
BBX 11 12 -1 0
BITMAP
C000
D860
9860
1860
1860
1FE0
1FE0
1860
1860
1860
1860
1860
ENDCHAR
STARTCHAR Iotatonos.c2sc
ENCODING -1
SWIDTH 250 0
DWIDTH 5 0
BBX 5 12 -1 0
BITMAP
C0
D8
98
18
18
18
18
18
18
18
18
18
ENDCHAR
STARTCHAR Omicrontonos.c2sc
ENCODING -1
SWIDTH 523 0
DWIDTH 10 0
BBX 9 12 0 0
BITMAP
C000
9E00
BF00
7180
6180
6080
6080
6080
6180
7180
3F00
1E00
ENDCHAR
STARTCHAR Upsilontonos.c2sc
ENCODING -1
SWIDTH 487 0
DWIDTH 10 0
BBX 11 12 -2 0
BITMAP
C000
D860
8860
0CC0
04C0
0780
0380
0300
0300
0300
0300
0300
ENDCHAR
STARTCHAR Omegatonos.c2sc
ENCODING -1
SWIDTH 545 0
DWIDTH 11 0
BBX 10 12 0 0
BITMAP
C000
9F00
BF80
3180
60C0
60C0
60C0
60C0
2080
3180
7BC0
7BC0
ENDCHAR
STARTCHAR Alpha.c2sc
ENCODING -1
SWIDTH 501 0
DWIDTH 10 0
BBX 10 11 0 0
BITMAP
0C00
0C00
1E00
1E00
1200
3300
3300
3F00
7F80
6180
C0C0
ENDCHAR
STARTCHAR Beta.c2sc
ENCODING -1
SWIDTH 475 0
DWIDTH 10 0
BBX 8 11 1 0
BITMAP
FC
FE
C6
C6
FC
FE
C6
C3
C6
FE
FC
ENDCHAR
STARTCHAR Epsilon.c2sc
ENCODING -1
SWIDTH 428 0
DWIDTH 9 0
BBX 7 11 1 0
BITMAP
FE
FE
C0
C0
FC
FC
C0
C0
C0
FE
FE
ENDCHAR
STARTCHAR Zeta.c2sc
ENCODING -1
SWIDTH 454 0
DWIDTH 9 0
BBX 7 11 1 0
BITMAP
FE
FE
06
0C
18
10
30
60
C0
FE
FE
ENDCHAR
STARTCHAR Eta.c2sc
ENCODING -1
SWIDTH 533 0
DWIDTH 11 0
BBX 8 11 1 0
BITMAP
C1
C1
C1
C1
FF
FF
C1
C1
C1
C1
C1
ENDCHAR
STARTCHAR Iota.c2sc
ENCODING -1
SWIDTH 221 0
DWIDTH 4 0
BBX 2 11 1 0
BITMAP
C0
C0
C0
C0
C0
C0
C0
C0
C0
C0
C0
ENDCHAR
STARTCHAR Kappa.c2sc
ENCODING -1
SWIDTH 473 0
DWIDTH 9 0
BBX 8 11 1 0
BITMAP
C7
C6
CC
D8
F0
F0
F8
CC
CC
C6
C3
ENDCHAR
STARTCHAR Mu.c2sc
ENCODING -1
SWIDTH 652 0
DWIDTH 13 0
BBX 11 11 1 0
BITMAP
E0E0
E0E0
E0E0
F1E0
F160
D160
DB60
CA60
CA60
CE60
C460
ENDCHAR
STARTCHAR Nu.c2sc
ENCODING -1
SWIDTH 533 0
DWIDTH 11 0
BBX 8 11 1 0
BITMAP
C1
E1
E1
F1
D9
C9
CD
C5
C7
C3
C3
ENDCHAR
STARTCHAR Omicron.c2sc
ENCODING -1
SWIDTH 519 0
DWIDTH 10 0
BBX 8 11 1 0
BITMAP
3C
7E
C3
C3
C3
81
C3
C3
E3
7E
3C
ENDCHAR
STARTCHAR Rho.c2sc
ENCODING -1
SWIDTH 481 0
DWIDTH 10 0
BBX 8 11 1 0
BITMAP
FC
FF
C3
C3
C3
FF
FE
C0
C0
C0
C0
ENDCHAR
STARTCHAR Tau.c2sc
ENCODING -1
SWIDTH 456 0
DWIDTH 9 0
BBX 8 11 1 0
BITMAP
FF
FF
10
10
10
10
10
10
10
10
10
ENDCHAR
STARTCHAR Upsilon.c2sc
ENCODING -1
SWIDTH 458 0
DWIDTH 9 0
BBX 9 11 0 0
BITMAP
C180
6300
6300
3600
3600
1C00
1C00
0800
0800
0800
0800
ENDCHAR
STARTCHAR Chi.c2sc
ENCODING -1
SWIDTH 478 0
DWIDTH 10 0
BBX 9 11 0 0
BITMAP
6180
6300
3300
1600
1C00
0C00
1C00
1600
3300
6300
E180
ENDCHAR
STARTCHAR Iotadieresis.c2sc
ENCODING -1
SWIDTH 221 0
DWIDTH 4 0
BBX 6 15 -1 0
BITMAP
CC
CC
00
00
30
30
30
30
30
30
30
30
30
30
30
ENDCHAR
STARTCHAR Upsilondieresis.c2sc
ENCODING -1
SWIDTH 458 0
DWIDTH 9 0
BBX 9 15 0 0
BITMAP
2300
7300
0000
0000
C180
6300
6300
3600
3600
1C00
1C00
0800
0800
0800
0800
ENDCHAR
STARTCHAR uni0401.c2sc
ENCODING -1
SWIDTH 428 0
DWIDTH 9 0
BBX 7 15 1 0
BITMAP
46
E6
00
00
FE
FE
C0
C0
FC
FC
C0
C0
C0
FE
FE
ENDCHAR
STARTCHAR uni0403.c2sc
ENCODING -1
SWIDTH 405 0
DWIDTH 8 0
BBX 7 15 1 0
BITMAP
0E
18
18
00
FE
FE
C0
C0
C0
C0
C0
C0
C0
C0
C0
ENDCHAR
STARTCHAR uni0405.c2sc
ENCODING -1
SWIDTH 453 0
DWIDTH 9 0
BBX 7 11 1 0
BITMAP
78
FC
C6
C2
F8
3C
06
82
C6
7E
3C
ENDCHAR
STARTCHAR uni0406.c2sc
ENCODING -1
SWIDTH 221 0
DWIDTH 4 0
BBX 2 11 1 0
BITMAP
C0
C0
C0
C0
C0
C0
C0
C0
C0
C0
C0
ENDCHAR
STARTCHAR uni0407.c2sc
ENCODING -1
SWIDTH 221 0
DWIDTH 4 0
BBX 6 15 -1 0
BITMAP
CC
CC
00
00
30
30
30
30
30
30
30
30
30
30
30
ENDCHAR
STARTCHAR uni0408.c2sc
ENCODING -1
SWIDTH 419 0
DWIDTH 8 0
BBX 7 11 0 0
BITMAP
06
06
06
06
06
06
06
06
C6
7E
3C
ENDCHAR
STARTCHAR uni040C.c2sc
ENCODING -1
SWIDTH 473 0
DWIDTH 9 0
BBX 8 15 1 0
BITMAP
0E
18
30
00
C7
C6
CC
D8
F0
F0
F8
CC
CC
C6
C3
ENDCHAR
STARTCHAR uni040E.c2sc
ENCODING -1
SWIDTH 454 0
DWIDTH 9 0
BBX 9 14 0 0
BITMAP
2300
1E00
0000
E180
6300
6300
3200
3600
1600
1C00
1C00
1800
3800
3000
ENDCHAR
STARTCHAR uni0410.c2sc
ENCODING -1
SWIDTH 501 0
DWIDTH 10 0
BBX 10 11 0 0
BITMAP
0C00
0C00
1E00
1E00
1200
3300
3300
3F00
7F80
6180
C0C0
ENDCHAR
STARTCHAR uni0412.c2sc
ENCODING -1
SWIDTH 475 0
DWIDTH 10 0
BBX 8 11 1 0
BITMAP
FC
FE
C6
C6
FC
FE
C6
C3
C6
FE
FC
ENDCHAR
STARTCHAR uni0413.c2sc
ENCODING -1
SWIDTH 405 0
DWIDTH 8 0
BBX 7 11 1 0
BITMAP
FE
FE
C0
C0
C0
C0
C0
C0
C0
C0
C0
ENDCHAR
STARTCHAR uni0415.c2sc
ENCODING -1
SWIDTH 428 0
DWIDTH 9 0
BBX 7 11 1 0
BITMAP
FE
FE
C0
C0
FC
FC
C0
C0
C0
FE
FE
ENDCHAR
STARTCHAR uni0419.c2sc
ENCODING -1
SWIDTH 537 0
DWIDTH 11 0
BBX 9 14 1 0
BITMAP
2300
1E00
0000
C180
C380
C780
C780
CD80
C980
D980
D180
F180
E180
C180
ENDCHAR
STARTCHAR uni041C.c2sc
ENCODING -1
SWIDTH 652 0
DWIDTH 13 0
BBX 11 11 1 0
BITMAP
E0E0
E0E0
E0E0
F1E0
F160
D160
DB60
CA60
CA60
CE60
C460
ENDCHAR
STARTCHAR uni041D.c2sc
ENCODING -1
SWIDTH 533 0
DWIDTH 11 0
BBX 8 11 1 0
BITMAP
C1
C1
C1
C1
FF
FF
C1
C1
C1
C1
C1
ENDCHAR
STARTCHAR uni041E.c2sc
ENCODING -1
SWIDTH 519 0
DWIDTH 10 0
BBX 8 11 1 0
BITMAP
3C
7E
C3
C3
C3
81
C3
C3
E3
7E
3C
ENDCHAR
STARTCHAR uni041F.c2sc
ENCODING -1
SWIDTH 525 0
DWIDTH 11 0
BBX 8 11 2 0
BITMAP
FF
FF
83
83
83
83
83
83
83
83
83
ENDCHAR
STARTCHAR uni0420.c2sc
ENCODING -1
SWIDTH 481 0
DWIDTH 10 0
BBX 8 11 1 0
BITMAP
FC
FF
C3
C3
C3
FF
FE
C0
C0
C0
C0
ENDCHAR
STARTCHAR uni0421.c2sc
ENCODING -1
SWIDTH 490 0
DWIDTH 10 0
BBX 8 11 1 0
BITMAP
3C
7E
63
C3
C0
C0
C0
C3
E3
7E
3C
ENDCHAR
STARTCHAR uni0422.c2sc
ENCODING -1
SWIDTH 456 0
DWIDTH 9 0
BBX 8 11 1 0
BITMAP
FF
FF
10
10
10
10
10
10
10
10
10
ENDCHAR
STARTCHAR uni0425.c2sc
ENCODING -1
SWIDTH 478 0
DWIDTH 10 0
BBX 9 11 0 0
BITMAP
6180
6300
3300
1600
1C00
0C00
1C00
1600
3300
6300
E180
ENDCHAR
STARTCHAR uni0498.c2sc
ENCODING -1
SWIDTH 466 0
DWIDTH 9 0
BBX 7 15 1 -4
BITMAP
7C
FE
C6
06
3C
3C
06
06
C6
FE
7C
30
30
30
30
ENDCHAR
STARTCHAR uni04A2.c2sc
ENCODING -1
SWIDTH 533 0
DWIDTH 11 0
BBX 10 15 1 -4
BITMAP
C100
C100
C100
C100
FF00
FF00
C100
C100
C100
C1C0
C1C0
00C0
00C0
00C0
00C0
ENDCHAR
STARTCHAR uni04AA.c2sc
ENCODING -1
SWIDTH 490 0
DWIDTH 10 0
BBX 8 15 1 -4
BITMAP
3C
7E
63
C3
C0
C0
C0
C3
E3
7E
3C
18
18
18
18
ENDCHAR
STARTCHAR uni04AE.c2sc
ENCODING -1
SWIDTH 458 0
DWIDTH 9 0
BBX 9 11 0 0
BITMAP
C180
6300
6300
3600
3600
1C00
1C00
0800
0800
0800
0800
ENDCHAR
STARTCHAR uni04BE.c2sc
ENCODING -1
SWIDTH 632 0
DWIDTH 13 0
BBX 12 15 0 -4
BITMAP
03C0
0FE0
0C60
D830
5830
7FF0
3FF0
1800
0C40
0FE0
07C0
0100
0100
0100
0100
ENDCHAR
STARTCHAR uni04E2.c2sc
ENCODING -1
SWIDTH 537 0
DWIDTH 11 0
BBX 9 14 1 0
BITMAP
3E00
3E00
0000
C180
C380
C780
C780
CD80
C980
D980
D180
F180
E180
C180
ENDCHAR
STARTCHAR uni04EE.c2sc
ENCODING -1
SWIDTH 454 0
DWIDTH 9 0
BBX 9 14 0 0
BITMAP
3E00
3E00
0000
E180
6300
6300
3200
3600
1600
1C00
1C00
1800
3800
3000
ENDCHAR
STARTCHAR uni0424.c2sc
ENCODING -1
SWIDTH 587 0
DWIDTH 12 0
BBX 10 11 1 0
BITMAP
0C00
3F00
7F80
EDC0
CCC0
CCC0
CCC0
EDC0
7F80
3F00
0C00
ENDCHAR
STARTCHAR IJ.c2sc
ENCODING -1
SWIDTH 641 0
DWIDTH 13 0
BBX 10 11 1 0
BITMAP
C040
C040
C040
C040
C040
C040
C040
C040
CCC0
CFC0
C780
ENDCHAR
STARTCHAR AEacute.c2sc
ENCODING -1
SWIDTH 676 0
DWIDTH 14 0
BBX 13 15 0 0
BITMAP
00E0
0180
0100
0000
03F8
07F8
0500
0D00
09F0
19F0
1180
3F80
3F80
61F8
E1F8
ENDCHAR
STARTCHAR Oslashacute.c2sc
ENCODING -1
SWIDTH 519 0
DWIDTH 10 0
BBX 8 15 1 0
BITMAP
06
0C
18
00
3F
7E
E7
C7
CB
99
93
F3
E7
7E
FC
ENDCHAR
STARTCHAR uni0218.c2sc
ENCODING -1
SWIDTH 453 0
DWIDTH 9 0
BBX 7 16 1 -5
BITMAP
78
FC
C6
C2
F8
3C
06
82
C6
7E
3C
00
18
18
10
30
ENDCHAR
STARTCHAR Wgrave.c2sc
ENCODING -1
SWIDTH 655 0
DWIDTH 13 0
BBX 12 15 1 0
BITMAP
1800
0C00
0600
0000
8430
CE20
CE60
CA60
4A60
4B40
5940
71C0
71C0
31C0
3180
ENDCHAR
STARTCHAR Wacute.c2sc
ENCODING -1
SWIDTH 655 0
DWIDTH 13 0
BBX 12 15 1 0
BITMAP
0380
0600
0600
0000
8430
CE20
CE60
CA60
4A60
4B40
5940
71C0
71C0
31C0
3180
ENDCHAR
STARTCHAR Wdieresis.c2sc
ENCODING -1
SWIDTH 655 0
DWIDTH 13 0
BBX 12 14 1 0
BITMAP
1980
3980
0000
8430
CE20
CE60
CA60
4A60
4B40
5940
71C0
71C0
31C0
3180
ENDCHAR
STARTCHAR Ygrave.c2sc
ENCODING -1
SWIDTH 458 0
DWIDTH 9 0
BBX 9 15 0 0
BITMAP
3000
1800
0C00
0000
C180
6300
6300
3600
3600
1C00
1C00
0800
0800
0800
0800
ENDCHAR
STARTCHAR Aogonek.locl
ENCODING -1
SWIDTH 576 0
DWIDTH 12 0
BBX 10 18 1 -4
BITMAP
0C00
0C00
1E00
1E00
1200
3300
3300
3300
6180
7F80
7F80
C0C0
C0C0
C8C0
1C00
1000
1000
1C00
ENDCHAR
STARTCHAR aogonek.locl
ENCODING -1
SWIDTH 479 0
DWIDTH 10 0
BBX 8 15 1 -4
BITMAP
3C
7E
46
82
3E
7E
E2
C2
C6
7E
3B
20
60
60
30
ENDCHAR
STARTCHAR Eogonek.locl
ENCODING -1
SWIDTH 496 0
DWIDTH 10 0
BBX 7 18 2 -4
BITMAP
FE
FE
80
80
80
80
FC
FC
80
80
80
80
FE
FE
20
60
60
30
ENDCHAR
STARTCHAR eogonek.locl
ENCODING -1
SWIDTH 468 0
DWIDTH 9 0
BBX 7 15 1 -4
BITMAP
3C
7E
C6
C2
FE
FE
C0
C0
C2
7E
3C
30
20
20
38
ENDCHAR
STARTCHAR Aogonek.c2sc.locl
ENCODING -1
SWIDTH 501 0
DWIDTH 10 0
BBX 10 15 0 -4
BITMAP
0C00
0C00
1E00
1E00
1200
3300
3300
3F00
7F80
6180
4880
8C40
1800
1000
1C00
ENDCHAR
STARTCHAR Eogonek.c2sc.locl
ENCODING -1
SWIDTH 428 0
DWIDTH 9 0
BBX 7 15 1 -4
BITMAP
FE
FE
C0
C0
FC
FC
C0
C0
C0
FE
FE
30
20
60
30
ENDCHAR
STARTCHAR glyph1293
ENCODING -1
SWIDTH 234 0
DWIDTH 5 0
BBX 2 14 1 -3
BITMAP
C0
C0
C0
C0
C0
C0
C0
C0
C0
C0
C0
00
C0
C0
ENDCHAR
ENDFONT
